<?xml version="1.0" encoding="UTF-8"?>
<svg version="1.1" xmlns="http://www.w3.org/2000/svg" width="500" height="500">
<path d="M0 0 C3.90483404 1.30161135 5.15438973 3.67614588 7.375 6.9375 C8.26227596 8.21015506 9.15033733 9.48226279 10.0390625 10.75390625 C10.51375977 11.43727051 10.98845703 12.12063477 11.47753906 12.82470703 C14.1932055 16.70485263 16.97408623 20.5378484 19.75 24.375 C20.54543213 25.47896118 20.54543213 25.47896118 21.35693359 26.60522461 C24.85020481 31.44512191 28.40250277 36.2370937 32 41 C30.25094295 44.62159403 28.10364941 47.81208865 25.75 51.0625 C25.32251465 51.65740234 24.8950293 52.25230469 24.45458984 52.86523438 C19.96517848 59.09181833 15.4000273 65.26348966 10.82324219 71.42602539 C8.35745878 74.75441341 5.9296294 78.06339957 3.7109375 81.5625 C3.14632812 82.366875 2.58171875 83.17125 2 84 C1.34 84 0.68 84 0 84 C-1.46949263 82.03226737 -2.80388735 80.06586147 -4.125 78 C-5.01089956 76.63878942 -5.89768445 75.2781548 -6.78515625 73.91796875 C-7.28418457 73.1501709 -7.78321289 72.38237305 -8.29736328 71.59130859 C-10.23415469 68.64363094 -12.20651152 65.72158241 -14.18359375 62.80078125 C-14.90595215 61.73021484 -15.62831055 60.65964844 -16.37255859 59.55664062 C-17.82101883 57.41091714 -19.27311264 55.26764156 -20.72900391 53.12695312 C-21.39722168 52.13244141 -22.06543945 51.13792969 -22.75390625 50.11328125 C-23.35533447 49.22423096 -23.9567627 48.33518066 -24.57641602 47.41918945 C-25.91658606 45.14175077 -26.77419324 43.62212337 -27 41 C-26.20825195 38.93286133 -26.20825195 38.93286133 -24.92578125 36.76953125 C-24.45865723 35.98143066 -23.9915332 35.19333008 -23.51025391 34.38134766 C-21.1909503 30.72430153 -18.7288746 27.19287259 -16.1875 23.6875 C-15.13027522 22.21051879 -14.07429158 20.73264841 -13.01953125 19.25390625 C-12.50729004 18.53605957 -11.99504883 17.81821289 -11.46728516 17.07861328 C-8.20510636 12.45728379 -5.10440001 7.72824001 -2 3 C-1.34 2.01 -0.68 1.02 0 0 Z " fill="#2883F5" transform="translate(95,243)"/>
<path d="M0 0 C4.46490768 4.17281092 7.98125456 8.81031669 11.5625 13.75 C12.46645508 14.99450928 12.46645508 14.99450928 13.38867188 16.26416016 C14.63728536 17.9857432 15.88418017 19.70857398 17.12939453 21.43261719 C18.94553319 23.92524497 20.79403815 26.39027729 22.65234375 28.8515625 C23.76884128 30.3589218 24.88475375 31.86671469 26 33.375 C26.53439697 34.06948242 27.06879395 34.76396484 27.61938477 35.47949219 C31.09078901 40.24584592 31.09078901 40.24584592 30.70703125 43.43359375 C28.14929441 47.27897842 25.47314085 51.00386881 22.6875 54.6875 C21.42331359 56.37412699 20.16032361 58.0616513 18.8984375 59.75 C17.93115723 61.04357422 17.93115723 61.04357422 16.94433594 62.36328125 C15.02326361 64.96845217 13.14885634 67.60081155 11.2890625 70.25 C10.70423096 71.07927002 10.11939941 71.90854004 9.5168457 72.76293945 C8.39579585 74.35771759 7.28211691 75.9577071 6.17651367 77.56323242 C5.67095947 78.27842041 5.16540527 78.9936084 4.64453125 79.73046875 C4.20471924 80.36364014 3.76490723 80.99681152 3.31176758 81.64916992 C2.87888428 82.09494385 2.44600098 82.54071777 2 83 C1.01 83 0.02 83 -1 83 C-2.72916459 80.82921423 -4.24109603 78.69422595 -5.75 76.375 C-6.71918717 74.91609171 -7.68929297 73.45779341 -8.66015625 72 C-9.18754395 71.20335937 -9.71493164 70.40671875 -10.25830078 69.5859375 C-12.1504481 66.77662654 -14.09866246 64.01241196 -16.05859375 61.25 C-17.08484863 59.78941162 -17.08484863 59.78941162 -18.13183594 58.29931641 C-19.48605311 56.37285402 -20.84978612 54.45304054 -22.22363281 52.54052734 C-22.84463867 51.6480127 -23.46564453 50.75549805 -24.10546875 49.8359375 C-24.66387451 49.04751465 -25.22228027 48.2590918 -25.79760742 47.44677734 C-27.32806604 44.33241059 -27.44177105 42.43771186 -27 39 C-25.59814453 36.24609375 -25.59814453 36.24609375 -23.6328125 33.4375 C-22.91601318 32.39907959 -22.19921387 31.36065918 -21.46069336 30.29077148 C-20.68249596 29.19358723 -19.90392516 28.09666772 -19.125 27 C-18.34332429 25.87849186 -17.56280913 24.75617396 -16.78344727 23.63305664 C-14.54016697 20.40931277 -12.27219051 17.20344161 -10 14 C-9.11562256 12.74678955 -9.11562256 12.74678955 -8.21337891 11.46826172 C-5.50116614 7.6265934 -2.76796029 3.80169484 0 0 Z " fill="#2883F5" transform="translate(96,148)"/>
<path d="M0 0 C3.26294757 1.08764919 3.62169918 1.48851217 5.4609375 4.18359375 C5.92636963 4.85559814 6.39180176 5.52760254 6.87133789 6.2199707 C7.36754639 6.95175537 7.86375488 7.68354004 8.375 8.4375 C9.44297389 9.98248785 10.51202279 11.52673303 11.58203125 13.0703125 C12.13842285 13.87629883 12.69481445 14.68228516 13.26806641 15.51269531 C16.14852619 19.64944809 19.10485481 23.73074838 22.0625 27.8125 C22.88403564 28.94933228 22.88403564 28.94933228 23.72216797 30.10913086 C26.63615703 34.15640886 26.63615703 34.15640886 29.69897461 38.09033203 C30.34298218 39.03561768 30.34298218 39.03561768 31 40 C30.0120378 44.81631571 26.45282724 48.62679098 23.5 52.4375 C22.41403714 53.86096744 21.3294257 55.28546678 20.24609375 56.7109375 C19.70194824 57.42604492 19.15780273 58.14115234 18.59716797 58.87792969 C14.61586145 64.16767536 10.82516958 69.59703084 7 75 C5.33531421 77.33475532 3.66778401 79.66745551 2 82 C-1.26294757 80.91235081 -1.62169918 80.51148783 -3.4609375 77.81640625 C-3.92653076 77.14424072 -4.39212402 76.4720752 -4.87182617 75.77954102 C-5.36787354 75.04791748 -5.8639209 74.31629395 -6.375 73.5625 C-7.44028961 72.02006152 -8.50673795 70.47842282 -9.57421875 68.9375 C-10.13028809 68.13183594 -10.68635742 67.32617188 -11.25927734 66.49609375 C-14.73196352 61.51646634 -18.32290572 56.62146003 -21.89794922 51.71508789 C-22.68129639 50.63602173 -22.68129639 50.63602173 -23.48046875 49.53515625 C-23.94348389 48.899729 -24.40649902 48.26430176 -24.88354492 47.60961914 C-27.18855649 44.28643059 -27.40104435 42.03943461 -27 38 C-25.68614169 35.71038688 -24.41795546 33.81129556 -22.8125 31.75 C-21.89940792 30.52628907 -20.98666584 29.30231693 -20.07421875 28.078125 C-19.58099121 27.42650391 -19.08776367 26.77488281 -18.57958984 26.10351562 C-15.7056314 22.27630914 -12.92275077 18.38304741 -10.125 14.5 C-9.5781958 13.74686523 -9.0313916 12.99373047 -8.46801758 12.21777344 C-5.55488203 8.19959355 -2.71965161 4.1517387 0 0 Z " fill="#2883F5" transform="translate(129,196)"/>
<path d="M0 0 C5.74739758 -0.12377604 11.49401627 -0.21442248 17.24243164 -0.2746582 C19.19699623 -0.29977281 21.15146717 -0.33387131 23.10571289 -0.37719727 C25.91836668 -0.43798434 28.72977702 -0.46623983 31.54296875 -0.48828125 C32.41398727 -0.51408768 33.2850058 -0.5398941 34.18241882 -0.56648254 C38.60041199 -0.5685161 40.39487109 -0.48408311 43.95239258 2.36181641 C44.62810303 3.23241699 45.30381348 4.10301758 46 5 C46.7321875 5.89074219 47.464375 6.78148437 48.21875 7.69921875 C48.9715625 8.68535156 49.724375 9.67148438 50.5 10.6875 C50.91580322 11.23204834 51.33160645 11.77659668 51.76000977 12.33764648 C57.18462979 19.49093717 62.401912 26.79872477 67.62475586 34.09985352 C68.61040611 35.46170616 69.63130415 36.79831388 70.67407227 38.11694336 C72 40 72 40 72 42 C66.2021927 42.3235469 60.40971913 42.55817315 54.60498047 42.71411133 C52.63529908 42.77914341 50.66623712 42.86761327 48.69873047 42.98071289 C32.89230563 43.86596882 32.89230563 43.86596882 28.20068359 40.83917236 C24.60525142 37.43364584 22.37637801 33.30073087 20 29 C18.75302013 27.27548317 17.47935013 25.56973961 16.171875 23.890625 C15.02985356 22.34478067 13.88919236 20.79793036 12.75 19.25 C11.89148438 18.09177734 11.89148438 18.09177734 11.015625 16.91015625 C0 1.96395597 0 1.96395597 0 0 Z " fill="#443EEE" transform="translate(134,192)"/>
<path d="M0 0 C1.87295532 -0.36076355 1.87295532 -0.36076355 4.17431641 -0.34057617 C5.46542831 -0.34023628 5.46542831 -0.34023628 6.78262329 -0.33988953 C7.71287323 -0.32440567 8.64312317 -0.30892181 9.6015625 -0.29296875 C10.55316254 -0.28872391 11.50476257 -0.28447906 12.48519897 -0.28010559 C15.53208414 -0.26327896 18.57831391 -0.22561954 21.625 -0.1875 C23.68749046 -0.17245831 25.74999127 -0.15876901 27.8125 -0.14648438 C32.8752535 -0.11336239 37.93751554 -0.06155284 43 0 C39.31035951 5.90988512 35.63411618 11.71948651 31.3125 17.1875 C30.4623456 18.26989496 29.61344977 19.35327931 28.765625 20.4375 C28.32283203 21.00339844 27.88003906 21.56929688 27.42382812 22.15234375 C25.85565364 24.18731366 24.32366228 26.24630884 22.796875 28.3125 C22.25893311 29.03928955 21.72099121 29.7660791 21.16674805 30.51489258 C20.11509306 31.93913207 19.0669459 33.36596991 18.02270508 34.7956543 C17.54212646 35.44445557 17.06154785 36.09325684 16.56640625 36.76171875 C16.14302979 37.33881592 15.71965332 37.91591309 15.28344727 38.51049805 C13.51437431 40.56359184 11.85269626 41.89087471 9.12068176 42.24050903 C8.41674789 42.23606781 7.71281403 42.23162659 6.98754883 42.22705078 C6.18694534 42.22689972 5.38634186 42.22674866 4.56147766 42.22659302 C3.70201035 42.21627045 2.84254303 42.20594788 1.95703125 42.1953125 C1.0734343 42.1924826 0.18983734 42.18965271 -0.72053528 42.18673706 C-3.54299454 42.17554097 -6.36513662 42.15043751 -9.1875 42.125 C-11.10090688 42.11496946 -13.01431873 42.10584374 -14.92773438 42.09765625 C-19.61861182 42.07560351 -24.30925213 42.04107762 -29 42 C-28.09748132 37.49840549 -25.57678775 34.49502196 -22.8125 30.9375 C-21.72697084 29.51630721 -20.64237677 28.09439982 -19.55859375 26.671875 C-18.98351074 25.91970703 -18.40842773 25.16753906 -17.81591797 24.39257812 C-14.62583013 20.18945083 -11.50174624 15.93783792 -8.375 11.6875 C-7.46971558 10.46051392 -7.46971558 10.46051392 -6.54614258 9.20874023 C-4.30732349 6.168996 -2.09458016 3.14187023 0 0 Z " fill="#2B7CF3" transform="translate(130,288)"/>
<path d="M0 0 C5.74739758 -0.12377604 11.49401627 -0.21442248 17.24243164 -0.2746582 C19.19699623 -0.29977281 21.15146717 -0.33387131 23.10571289 -0.37719727 C25.91836668 -0.43798434 28.72977702 -0.46623983 31.54296875 -0.48828125 C32.41398727 -0.51408768 33.2850058 -0.5398941 34.18241882 -0.56648254 C38.54290591 -0.56848963 40.38552136 -0.48619112 43.90478516 2.29833984 C44.9419165 3.63566162 44.9419165 3.63566162 46 5 C46.52875732 5.62898193 47.05751465 6.25796387 47.60229492 6.90600586 C48.05709229 7.50292236 48.51188965 8.09983887 48.98046875 8.71484375 C49.50012207 9.39458252 50.01977539 10.07432129 50.55517578 10.7746582 C51.09384277 11.488396 51.63250977 12.20213379 52.1875 12.9375 C52.75194824 13.6802417 53.31639648 14.4229834 53.89794922 15.18823242 C58.36716586 21.09654943 62.70856495 27.08971675 66.9765625 33.14453125 C68.20459239 34.87752324 69.46285089 36.59028781 70.7734375 38.26171875 C72 40 72 40 72 42 C66.2021927 42.3235469 60.40971913 42.55817315 54.60498047 42.71411133 C52.63529908 42.77914341 50.66623712 42.86761327 48.69873047 42.98071289 C32.88727506 43.86625056 32.88727506 43.86625056 28.19161987 40.83111572 C24.59377092 37.42475932 22.36003164 33.31277144 20 29 C18.83437164 27.35126152 17.64567701 25.71837544 16.42578125 24.109375 C15.38614363 22.65759245 14.34834736 21.20448933 13.3125 19.75 C9.36370444 14.23156547 5.37726077 8.78241992 1.07421875 3.53125 C0 2 0 2 0 0 Z " fill="#443EEF" transform="translate(101,145)"/>
<path d="M0 0 C0.89805359 0.02580643 1.79610718 0.05161285 2.72137451 0.07820129 C4.11123566 0.0888134 4.11123566 0.0888134 5.5291748 0.09963989 C8.48469237 0.12759884 11.43830595 0.19033982 14.39324951 0.25398254 C16.39843046 0.27906349 18.40364114 0.30187701 20.40887451 0.32234192 C25.32106494 0.3774305 30.23183459 0.46371343 35.14324951 0.56648254 C33.39423351 4.18799159 31.24740687 7.37898298 28.89324951 10.62898254 C28.25093384 11.52024841 28.25093384 11.52024841 27.59564209 12.42951965 C26.11547788 14.47807526 24.62940857 16.52227236 23.14324951 18.56648254 C22.56301025 19.36827942 21.982771 20.17007629 21.38494873 20.99617004 C19.53894288 23.54441279 17.68587009 26.08736946 15.83074951 28.62898254 C15.24454834 29.43794983 14.65834717 30.24691711 14.05438232 31.08039856 C13.48945068 31.85053284 12.92451904 32.62066711 12.34246826 33.41413879 C11.84577637 34.09484436 11.34908447 34.77554993 10.83734131 35.47688293 C10.27829102 36.16645081 9.71924072 36.85601868 9.14324951 37.56648254 C8.44731689 38.46705383 7.75138428 39.36762512 7.03436279 40.29548645 C2.93790554 43.51329133 -0.24983784 43.20479769 -5.31378174 43.05476379 C-6.21674484 43.04768906 -7.11970795 43.04061432 -8.05003357 43.0333252 C-10.92396136 43.00541574 -13.79591521 42.94268487 -16.66925049 42.87898254 C-18.62169624 42.85389516 -20.57417264 42.83108276 -22.52667236 42.81062317 C-27.30412151 42.75560044 -32.08010175 42.66935252 -36.85675049 42.56648254 C-35.10771077 38.94492439 -32.96061362 35.75422145 -30.60675049 32.50398254 C-30.17926514 31.9098053 -29.75177979 31.31562805 -29.31134033 30.70344543 C-25.39857701 25.2814734 -21.44265758 19.89083693 -17.48175049 14.50398254 C-16.88717041 13.69501526 -16.29259033 12.88604797 -15.67999268 12.05256653 C-14.82776123 10.89736511 -14.82776123 10.89736511 -13.95831299 9.71882629 C-13.45638428 9.03812073 -12.95445557 8.35741516 -12.43731689 7.65608215 C-11.91572998 6.96651428 -11.39414307 6.27694641 -10.85675049 5.56648254 C-10.33032959 4.66591125 -9.80390869 3.76533997 -9.26153564 2.83747864 C-6.11441732 -0.13455128 -4.20762507 -0.00189042 0 0 Z " fill="#2C7AF4" transform="translate(170.85675048828125,239.4335174560547)"/>
<path d="M0 0 C25 0 25 0 32 4 C35.34536923 8.44509005 34.61907504 14.72346503 34 20 C32 23.25 32 23.25 30 25 C30.56589844 25.39832031 31.13179687 25.79664063 31.71484375 26.20703125 C32.44832031 26.73683594 33.18179688 27.26664063 33.9375 27.8125 C34.66839844 28.33457031 35.39929688 28.85664063 36.15234375 29.39453125 C38.61900969 31.537871 38.94553159 33.32333481 39.203125 36.5234375 C39.36177316 46.17453399 39.36177316 46.17453399 36 50 C31.18988649 54.2235143 28.82770315 55.12533784 22.4609375 55.09765625 C21.28837402 55.09515869 20.11581055 55.09266113 18.90771484 55.09008789 C16.664021 55.07643188 16.664021 55.07643188 14.375 55.0625 C9.63125 55.041875 4.8875 55.02125 0 55 C0 36.85 0 18.7 0 0 Z M13 10 C13 13.63 13 17.26 13 21 C17.47883696 20.55296014 17.47883696 20.55296014 21 18 C21.50014953 15.54258463 21.50014953 15.54258463 21 13 C19.32683688 11.07845307 19.32683688 11.07845307 17 10 C15.68 10 14.36 10 13 10 Z M13 33 C13 36.96 13 40.92 13 45 C16.69628969 45.21742881 19.45781172 45.20764658 22.9375 43.875 C25.2908033 42.11441018 25.2908033 42.11441018 25.5625 39 C25.24403918 36.00389743 25.24403918 36.00389743 23.5 34.125 C19.87739877 32.49482945 16.95453342 32.80227333 13 33 Z " fill="#4585FB" transform="translate(220,172)"/>
<path d="M0 0 C1.57421875 1.0703125 1.57421875 1.0703125 2.57421875 3.0703125 C1.578125 5.453125 1.578125 5.453125 0.13671875 8.1953125 C-0.33636719 9.10539062 -0.80945313 10.01546875 -1.296875 10.953125 C-1.66941406 11.65179688 -2.04195312 12.35046875 -2.42578125 13.0703125 C-3.56015625 12.5753125 -4.69453125 12.0803125 -5.86328125 11.5703125 C-10.44672257 9.82384917 -14.5776454 9.76730401 -19.42578125 10.0703125 C-19.42578125 12.0503125 -19.42578125 14.0303125 -19.42578125 16.0703125 C-18.72453125 16.34230469 -18.02328125 16.61429687 -17.30078125 16.89453125 C-2.09480789 23.11327851 -2.09480789 23.11327851 2.57421875 29.0703125 C4.50783745 34.8711686 4.56780894 40.9684871 1.94921875 46.5078125 C-2.3346012 51.12982876 -6.52550211 53.86949862 -12.8671875 54.30859375 C-20.84541729 54.52230501 -28.49429651 54.64424541 -35.42578125 50.0703125 C-36.41578125 48.7503125 -37.40578125 47.4303125 -38.42578125 46.0703125 C-36.44578125 42.7703125 -34.46578125 39.4703125 -32.42578125 36.0703125 C-29.58363756 37.20716998 -26.75572099 38.38706826 -23.98828125 39.6953125 C-20.41364361 41.0749972 -18.20313129 41.58540569 -14.42578125 41.0703125 C-12.54687691 39.69525151 -12.54687691 39.69525151 -11.42578125 38.0703125 C-13.08062608 33.00446099 -17.68999579 31.48942612 -22.10742188 29.24609375 C-27.20088543 26.52885815 -30.78638084 23.34911332 -33.42578125 18.0703125 C-34.01635869 12.39168325 -33.7194903 7.90108578 -30.42578125 3.0703125 C-22.23173551 -5.19089755 -10.08781901 -5.0345862 0 0 Z " fill="#4784F6" transform="translate(255.42578125,253.9296875)"/>
<path d="M0 0 C4.29 0 8.58 0 13 0 C13.33 10.89 13.66 21.78 14 33 C17.3 29.7 20.6 26.4 24 23 C27.60953399 22.21257985 29.20776697 21.95351964 32.625 22.375 C33.70201172 22.44267578 33.70201172 22.44267578 34.80078125 22.51171875 C36.53762478 22.62750832 38.27005262 22.8068297 40 23 C38.34136495 27.32504836 35.128959 30.09418825 31.875 33.25 C31.03001953 34.08144531 31.03001953 34.08144531 30.16796875 34.9296875 C28.78313972 36.29104485 27.39216796 37.64614859 26 39 C27.3584202 42.04332765 28.88463024 44.12309151 31.2578125 46.453125 C31.88300781 47.071875 32.50820313 47.690625 33.15234375 48.328125 C33.80332031 48.96234375 34.45429688 49.5965625 35.125 50.25 C35.78371094 50.8996875 36.44242187 51.549375 37.12109375 52.21875 C38.74296643 53.81711727 40.3693281 55.41061897 42 57 C37.57400034 59.95066644 33.93867847 59.42316757 28.7421875 59.0234375 C22.05304909 57.19404892 18.23774445 52.24961404 14 47 C13.67 50.63 13.34 54.26 13 58 C8.71 58 4.42 58 0 58 C0 38.86 0 19.72 0 0 Z " fill="#4985F6" transform="translate(369,249)"/>
<path d="M0 0 C3.96 0 7.92 0 12 0 C12.33 10.89 12.66 21.78 13 33 C16.3 29.7 19.6 26.4 23 23 C26.60953399 22.21257985 28.20776697 21.95351964 31.625 22.375 C32.70201172 22.44267578 32.70201172 22.44267578 33.80078125 22.51171875 C35.53762478 22.62750832 37.27005262 22.8068297 39 23 C37.34136495 27.32504836 34.128959 30.09418825 30.875 33.25 C30.03001953 34.08144531 30.03001953 34.08144531 29.16796875 34.9296875 C27.78313972 36.29104485 26.39216796 37.64614859 25 39 C26.3584202 42.04332765 27.88463024 44.12309151 30.2578125 46.453125 C30.88300781 47.071875 31.50820313 47.690625 32.15234375 48.328125 C32.80332031 48.96234375 33.45429688 49.5965625 34.125 50.25 C34.78371094 50.8996875 35.44242187 51.549375 36.12109375 52.21875 C37.74296643 53.81711727 39.3693281 55.41061897 41 57 C39 59 39 59 35.91015625 59.36328125 C28.91170727 59.27091593 24.22421567 58.99266473 19.01538086 53.9909668 C16.90298471 51.73232511 14.92116536 49.42442282 13 47 C12.67 50.63 12.34 54.26 12 58 C8.04 58 4.08 58 0 58 C0 38.86 0 19.72 0 0 Z " fill="#4785F8" transform="translate(354,169)"/>
<path d="M0 0 C0.845625 0.07863281 1.69125 0.15726563 2.5625 0.23828125 C5.0319976 0.69339699 6.82618768 1.45466662 9 2.6875 C9 2.0275 9 1.3675 9 0.6875 C10.97909398 0.66063447 12.95828971 0.64116625 14.9375 0.625 C16.03964844 0.61339844 17.14179688 0.60179687 18.27734375 0.58984375 C21 0.6875 21 0.6875 22 1.6875 C22.08847743 4.20844076 22.11527301 6.70180893 22.09765625 9.22265625 C22.0962413 9.97590683 22.09482635 10.72915741 22.09336853 11.50523376 C22.08775376 13.9201956 22.07519883 16.33506601 22.0625 18.75 C22.0574869 20.38346221 22.05292366 22.01692586 22.04882812 23.65039062 C22.03777954 27.66279585 22.02050506 31.67513241 22 35.6875 C16.66666667 35.6875 11.33333333 35.6875 6 35.6875 C5.01 36.1825 5.01 36.1825 4 36.6875 C2.06640414 36.83601844 0.12657903 36.90880833 -1.8125 36.9375 C-2.85019531 36.96328125 -3.88789063 36.9890625 -4.95703125 37.015625 C-9.07941715 36.57110585 -11.59497862 35.04994497 -14.546875 32.1875 C-19.74740158 25.7037266 -19.69284087 19.77714907 -19 11.6875 C-17.37676128 6.29834745 -13.87114363 3.32603613 -9 0.6875 C-5.85583207 -0.35400563 -3.28254338 -0.33525977 0 0 Z M-4 12.6875 C-5.92199114 15.25015486 -6.01028636 16.51948949 -5.8125 19.75 C-4.8411184 23.43951749 -4.8411184 23.43951749 -2 25.6875 C1.93094707 26.18780235 4.1005787 26.2871142 7.4375 24.0625 C9.47161336 20.97064769 9.60605429 19.32382575 9 15.6875 C7.03600004 12.99609265 5.64117537 11.91191138 2.5 10.8125 C-0.41159419 10.66692029 -1.6461485 10.98298685 -4 12.6875 Z " fill="#4885F5" transform="translate(281,191.3125)"/>
<path d="M0 0 C0.33 -0.33 0.66 -0.66 1 -1 C4.96 -1 8.92 -1 13 -1 C13 10.55 13 22.1 13 34 C9.04 34 5.08 34 1 34 C1 33.34 1 32.68 1 32 C0.29617188 32.48597656 -0.40765625 32.97195313 -1.1328125 33.47265625 C-6.317157 36.23434385 -12.60633536 36.01447626 -18.1953125 34.34375 C-22.68823624 32.08756319 -25.3608216 28.65172248 -27 24 C-28.9242529 15.86505498 -27.53022406 10.2170401 -23.3125 3.1875 C-16.62644884 -3.13714299 -8.35177591 -2.7839253 0 0 Z M-13 12 C-14.42041821 14.84083641 -14.31452272 16.85477278 -14 20 C-12.56338689 22.52006844 -12.56338689 22.52006844 -10 24 C-6.5 24.75 -6.5 24.75 -3 24 C-0.34115399 22.00979883 -0.34115399 22.00979883 1 19 C0.93550016 15.77500781 0.58491853 13.84813186 -1.25 11.1875 C-5.78760118 8.10841349 -8.74634504 8.80975878 -13 12 Z " fill="#4685F8" transform="translate(316,273)"/>
<path d="M0 0 C3.30063976 2.88805979 4.38641244 4.72038836 4.72705078 9.12011719 C4.71657715 10.23032227 4.70610352 11.34052734 4.6953125 12.484375 C4.68886719 13.68964844 4.68242187 14.89492187 4.67578125 16.13671875 C4.65902344 17.39097656 4.64226562 18.64523438 4.625 19.9375 C4.61597656 21.20722656 4.60695313 22.47695312 4.59765625 23.78515625 C4.57409087 26.91935129 4.53822013 30.05344941 4.5 33.1875 C0.21 33.1875 -4.08 33.1875 -8.5 33.1875 C-8.56058594 31.53878906 -8.62117188 29.89007813 -8.68359375 28.19140625 C-8.76797937 26.044261 -8.85262835 23.89712609 -8.9375 21.75 C-8.97681641 20.66138672 -9.01613281 19.57277344 -9.05664062 18.45117188 C-9.09853516 17.41669922 -9.14042969 16.38222656 -9.18359375 15.31640625 C-9.22025146 14.35806885 -9.25690918 13.39973145 -9.29467773 12.41235352 C-9.25834424 10.21611075 -9.25834424 10.21611075 -10.5 9.1875 C-13.17058851 9.04634839 -15.82432238 9.14502893 -18.5 9.1875 C-19.33371359 12.14258447 -19.67889534 14.88859613 -19.81640625 17.953125 C-19.85830078 18.84257812 -19.90019531 19.73203125 -19.94335938 20.6484375 C-19.98267578 21.56882813 -20.02199219 22.48921875 -20.0625 23.4375 C-20.10568359 24.37335938 -20.14886719 25.30921875 -20.19335938 26.2734375 C-20.29917939 28.57796222 -20.40006917 30.88271239 -20.5 33.1875 C-24.46 33.1875 -28.42 33.1875 -32.5 33.1875 C-32.5 21.6375 -32.5 10.0875 -32.5 -1.8125 C-28.54 -1.8125 -24.58 -1.8125 -20.5 -1.8125 C-20.5 -1.1525 -20.5 -0.4925 -20.5 0.1875 C-19.076875 -0.5859375 -19.076875 -0.5859375 -17.625 -1.375 C-11.57985778 -3.95000987 -5.7056006 -2.95468603 0 0 Z " fill="#4785F8" transform="translate(342.5,193.8125)"/>
<path d="M0 0 C3.96 0 7.92 0 12 0 C13.03159626 3.09478879 12.97482862 4.52631393 12.5625 7.6875 C12.46066406 8.49574219 12.35882813 9.30398438 12.25390625 10.13671875 C12.17011719 10.75160156 12.08632813 11.36648438 12 12 C14.31 12 16.62 12 19 12 C19 15.3 19 18.6 19 22 C17.02 22.33 15.04 22.66 13 23 C13 26.96 13 30.92 13 35 C14.65 35.33 16.3 35.66 18 36 C19.485 40.95 19.485 40.95 21 46 C16.34186237 49.10542508 11.45168836 48.74307763 6 48 C3.02638914 45.78436838 1.63040207 44.26080415 0 41 C-0.15004973 39.6265365 -0.24838006 38.2471474 -0.31640625 36.8671875 C-0.35830078 36.06152344 -0.40019531 35.25585938 -0.44335938 34.42578125 C-0.48267578 33.58402344 -0.52199219 32.74226563 -0.5625 31.875 C-0.60568359 31.02550781 -0.64886719 30.17601562 -0.69335938 29.30078125 C-0.79954236 27.20071777 -0.90028497 25.10038052 -1 23 C-2.32 22.67 -3.64 22.34 -5 22 C-5 18.7 -5 15.4 -5 12 C-3.35 12 -1.7 12 0 12 C0 8.04 0 4.08 0 0 Z " fill="#4785F8" transform="translate(267,260)"/>
<path d="M0 0 C-0.56545837 3.95820859 -1.80902348 6.6659053 -4 10 C-5.216875 9.731875 -6.43375 9.46375 -7.6875 9.1875 C-11.32777857 8.73408452 -11.81414882 8.87483492 -15.0625 11.0625 C-17.27509805 13.84849464 -17.27509805 13.84849464 -17.0625 17.125 C-16.17687785 19.99147159 -16.17687785 19.99147159 -14.4375 21.9375 C-10.72580791 23.55541707 -7.94844195 22.72388102 -4 22 C0 28.625 0 28.625 0 32 C-6.20189987 34.88192373 -13.65139448 35.34272732 -20.2265625 33.3125 C-25.25826738 30.65256791 -29.20344796 26.38965613 -31 21 C-31.53385142 15.03523706 -31.55270149 10.04254405 -28 5 C-20.37317408 -3.01201915 -10.08217071 -5.77476445 0 0 Z " fill="#4985F4" transform="translate(365,274)"/>
<path d="M0 0 C3.26294757 1.08764919 3.62169918 1.48851217 5.4609375 4.18359375 C5.92636963 4.85559814 6.39180176 5.52760254 6.87133789 6.2199707 C7.36754639 6.95175537 7.86375488 7.68354004 8.375 8.4375 C9.44297389 9.98248785 10.51202279 11.52673303 11.58203125 13.0703125 C12.13842285 13.87629883 12.69481445 14.68228516 13.26806641 15.51269531 C16.14852619 19.64944809 19.10485481 23.73074838 22.0625 27.8125 C22.88403564 28.94933228 22.88403564 28.94933228 23.72216797 30.10913086 C26.63353844 34.15454188 26.63353844 34.15454188 29.70092773 38.08081055 C30.34396851 39.03080933 30.34396851 39.03080933 31 40 C30.07676635 44.50076406 27.29837023 46.96202742 24 50 C23.505 46.04 23.505 46.04 23 42 C22.34 42 21.68 42 21 42 C21 41.34 21 40.68 21 40 C21.99 40 22.98 40 24 40 C23.67 39.01 23.34 38.02 23 37 C22.01 36.67 21.02 36.34 20 36 C20 35.34 20 34.68 20 34 C19.01 33.67 18.02 33.34 17 33 C16.26953125 31.2578125 16.26953125 31.2578125 15.8125 29.125 C15.65394531 28.42632812 15.49539062 27.72765625 15.33203125 27.0078125 C15 25 15 25 15 22 C12.82467143 19.82467143 11.89725531 19.6337746 9 19 C8.34 18.67 7.68 18.34 7 18 C6.59270772 15.67843403 6.25561323 13.3431213 6 11 C2.535 12.485 2.535 12.485 -1 14 C-1 15.65 -1 17.3 -1 19 C-2.98 18.34 -4.96 17.68 -7 17 C-7.99 19.475 -7.99 19.475 -9 22 C-9.99 22 -10.98 22 -12 22 C-11.67 23.32 -11.34 24.64 -11 26 C-11.99 26.33 -12.98 26.66 -14 27 C-14 26.34 -14 25.68 -14 25 C-15.98 25.99 -15.98 25.99 -18 27 C-16.65725102 24.16723281 -15.14231475 21.65060465 -13.3203125 19.1015625 C-12.80339844 18.37453125 -12.28648438 17.6475 -11.75390625 16.8984375 C-11.21636719 16.14820313 -10.67882812 15.39796875 -10.125 14.625 C-6.67801174 9.79418434 -3.2593538 4.95988622 0 0 Z " fill="#3564ED" transform="translate(129,196)"/>
<path d="M0 0 C2.50768568 1.22326131 3.96410845 1.97860149 5.5625 4.25 C5.75 6.9375 5.75 6.9375 5.5625 9.25 C6.5525 8.92 7.5425 8.59 8.5625 8.25 C9.2225 8.91 9.8825 9.57 10.5625 10.25 C10.8925 9.59 11.2225 8.93 11.5625 8.25 C12.2225 8.25 12.8825 8.25 13.5625 8.25 C13.5625 7.59 13.5625 6.93 13.5625 6.25 C14.2225 6.25 14.8825 6.25 15.5625 6.25 C15.8925 4.27 16.2225 2.29 16.5625 0.25 C16.8925 0.25 17.2225 0.25 17.5625 0.25 C18.19574538 11.27902375 18.19574538 11.27902375 15.6875 15.125 C14.98625 15.82625 14.285 16.5275 13.5625 17.25 C11.61431304 22.17173548 10.50795197 26.64083314 10.6875 31.9375 C10.64625 33.030625 10.605 34.12375 10.5625 35.25 C7.5625 37.25 7.5625 37.25 5.375 36.875 C4.776875 36.66875 4.17875 36.4625 3.5625 36.25 C4.8825 35.59 6.2025 34.93 7.5625 34.25 C7.8127157 31.33365871 7.8127157 31.33365871 7.5625 28.25 C4.66157498 26.31604999 3.66575263 25.94868059 0.375 25.625 C-0.883125 25.50125 -2.14125 25.3775 -3.4375 25.25 C-3.4375 28.88 -3.4375 32.51 -3.4375 36.25 C-4.0975 36.25 -4.7575 36.25 -5.4375 36.25 C-5.49141993 34.45866022 -5.53025571 32.66686101 -5.5625 30.875 C-5.58570313 29.87726563 -5.60890625 28.87953125 -5.6328125 27.8515625 C-5.4375 25.25 -5.4375 25.25 -3.4375 23.25 C-1.11474823 22.84952556 1.21989357 22.5102896 3.5625 22.25 C2.9025 20.27 2.2425 18.29 1.5625 16.25 C0.758125 16.105625 -0.04625 15.96125 -0.875 15.8125 C-3.4375 15.25 -3.4375 15.25 -4.4375 14.25 C-4.51021741 11.89686445 -4.52120868 9.54166332 -4.5 7.1875 C-4.49097656 5.89714844 -4.48195312 4.60679687 -4.47265625 3.27734375 C-4.46105469 2.27832031 -4.44945312 1.27929688 -4.4375 0.25 C-2.4375 -0.75 -2.4375 -0.75 0 0 Z M-3.4375 2.25 C-3.4375 5.88 -3.4375 9.51 -3.4375 13.25 C1.04133696 12.80296014 1.04133696 12.80296014 4.5625 10.25 C5.06264953 7.79258463 5.06264953 7.79258463 4.5625 5.25 C2.88933688 3.32845307 2.88933688 3.32845307 0.5625 2.25 C-0.7575 2.25 -2.0775 2.25 -3.4375 2.25 Z " fill="#4A85F3" transform="translate(236.4375,179.75)"/>
<path d="M0 0 C0.625 1.8125 0.625 1.8125 1 4 C0.01 5.485 0.01 5.485 -1 7 C-0.01 7 0.98 7 2 7 C2.66 7.66 3.32 8.32 4 9 C6.06874034 9.6425235 6.06874034 9.6425235 8 10 C7.96519531 11.01320312 7.96519531 11.01320312 7.9296875 12.046875 C7.91164063 12.93890625 7.89359375 13.8309375 7.875 14.75 C7.84019531 16.07257813 7.84019531 16.07257813 7.8046875 17.421875 C8.06157028 20.81272767 8.97763561 23.02208624 11.4375 25.375 C13.59787397 27.62178893 14.69069701 30.19435073 16 33 C16.78375 32.95875 17.5675 32.9175 18.375 32.875 C21 33 21 33 23 35 C23.33 34.34 23.66 33.68 24 33 C26.64 33 29.28 33 32 33 C32.59578358 37.00026118 32.63996562 38.98632012 30.44140625 42.46875 C28.68414992 44.70332947 26.88845449 46.8754887 25 49 C21.74252189 45.8814928 19.05541864 42.85646337 16.625 39.0625 C13.88213518 34.82112023 11.06783568 30.65769607 8.1484375 26.53515625 C7.46700684 25.56376709 6.78557617 24.59237793 6.08349609 23.59155273 C4.70893588 21.63440706 3.32402643 19.68448386 1.92822266 17.74243164 C1.29190918 16.82969482 0.6555957 15.91695801 0 14.9765625 C-0.5775 14.16268066 -1.155 13.34879883 -1.75 12.51025391 C-3.2753468 9.4470477 -3.3352513 7.38219666 -3 4 C-1.5 1.625 -1.5 1.625 0 0 Z " fill="#1EAEF3" transform="translate(72,183)"/>
<path d="M0 0 C4.46526482 4.17314469 7.97923477 8.81140388 11.5625 13.75 C12.46863037 14.98907104 12.46863037 14.98907104 13.39306641 16.25317383 C19.3574696 24.43455208 25.19900574 32.70224082 31 41 C30.34 42.32 29.68 43.64 29 45 C29 44.01 29 43.02 29 42 C28.34 42 27.68 42 27 42 C26.34 40.02 25.68 38.04 25 36 C24.34 36 23.68 36 23 36 C21.7625 35.7215625 21.7625 35.7215625 20.5 35.4375 C18.01124241 34.74658685 18.01124241 34.74658685 16 36 C15.93941406 35.15695313 15.87882812 34.31390625 15.81640625 33.4453125 C15.69072266 31.80175781 15.69072266 31.80175781 15.5625 30.125 C15.48128906 29.03445312 15.40007812 27.94390625 15.31640625 26.8203125 C15.16998297 24.05271029 15.16998297 24.05271029 14 22 C12.68 22 11.36 22 10 22 C9.34 22 8.68 22 8 22 C8 18.7 8 15.4 8 12 C6.68 11.67 5.36 11.34 4 11 C4 11.99 4 12.98 4 14 C1.69 13.34 -0.62 12.68 -3 12 C-3.763125 12.825 -4.52625 13.65 -5.3125 14.5 C-8 17 -8 17 -11 17 C-9.3189585 13.3650778 -7.16668 10.13401865 -4.9375 6.8125 C-4.22464844 5.74644531 -3.51179688 4.68039063 -2.77734375 3.58203125 C-1 1 -1 1 0 0 Z " fill="#3D55DB" transform="translate(96,148)"/>
<path d="M0 0 C1.76462683 3.08809695 2 4.23312136 2 8 C3.65 8.33 5.3 8.66 7 9 C7.33 9.99 7.66 10.98 8 12 C8.66 12.33 9.32 12.66 10 13 C9.95875 14.051875 9.9175 15.10375 9.875 16.1875 C9.99147875 19.74010173 10.47208068 21.84866641 12 25 C12.66 25 13.32 25 14 25 C19 30.47619048 19 30.47619048 19 33 C19.66 33 20.32 33 21 33 C21 33.99 21 34.98 21 36 C21.99 35.505 21.99 35.505 23 35 C23.33 34.01 23.66 33.02 24 32 C24.66 32 25.32 32 26 32 C26.33 32.99 26.66 33.98 27 35 C27.66 35 28.32 35 29 35 C29.33 34.34 29.66 33.68 30 33 C30.99 33 31.98 33 33 33 C32.625 34.9375 32.625 34.9375 32 37 C31.01 37.495 31.01 37.495 30 38 C29.2833793 40.31847874 28.61757973 42.65319703 28 45 C27.67 45.66 27.34 46.32 27 47 C26.34 47 25.68 47 25 47 C23.53050737 45.03226737 22.19611265 43.06586147 20.875 41 C19.98910044 39.63878942 19.10231555 38.2781548 18.21484375 36.91796875 C17.71581543 36.1501709 17.21678711 35.38237305 16.70263672 34.59130859 C14.76584531 31.64363094 12.79348848 28.72158241 10.81640625 25.80078125 C10.09404785 24.73021484 9.37168945 23.65964844 8.62744141 22.55664062 C7.17898117 20.41091714 5.72688736 18.26764156 4.27099609 16.12695312 C3.60277832 15.13244141 2.93456055 14.13792969 2.24609375 13.11328125 C1.64466553 12.22423096 1.0432373 11.33518066 0.42358398 10.41918945 C-0.89008984 8.18677753 -1.66540416 6.55450393 -2 4 C-1.0625 1.75 -1.0625 1.75 0 0 Z " fill="#22AFF1" transform="translate(70,280)"/>
<path d="M0 0 C4.01047679 1.3368256 5.34420715 3.95974334 7.625 7.3125 C8.5091323 8.58292605 9.39457703 9.85243962 10.28125 11.12109375 C10.72984375 11.76546387 11.1784375 12.40983398 11.640625 13.07373047 C13.74267603 16.05239114 15.92747252 18.96640338 18.125 21.875 C18.87007812 22.86242187 19.61515625 23.84984375 20.3828125 24.8671875 C20.91648438 25.57101562 21.45015625 26.27484375 22 27 C21.67 27.66 21.34 28.32 21 29 C20.01 28.34 19.02 27.68 18 27 C18 26.01 18 25.02 18 24 C17.34 24 16.68 24 16 24 C15.34 23.01 14.68 22.02 14 21 C11.41619823 20.74969023 11.41619823 20.74969023 9 21 C9 18.69 9 16.38 9 14 C6.525 13.505 6.525 13.505 4 13 C4 12.34 4 11.68 4 11 C1.36 11 -1.28 11 -4 11 C-4 11.66 -4 12.32 -4 13 C-4.99 13.33 -5.98 13.66 -7 14 C-7.33 14.99 -7.66 15.98 -8 17 C-8.66 17 -9.32 17 -10 17 C-10 20.63 -10 24.26 -10 28 C-10.9075 27.7525 -11.815 27.505 -12.75 27.25 C-16.08837848 26.61740673 -16.08837848 26.61740673 -18.375 28.9375 C-19.179375 29.9584375 -19.179375 29.9584375 -20 31 C-18.62951681 27.13080755 -16.84813597 24.20381304 -14.375 20.9375 C-10.03168265 15.09621371 -5.99773791 9.08106611 -2 3 C-1.34 2.01 -0.68 1.02 0 0 Z " fill="#395CED" transform="translate(95,243)"/>
<path d="M0 0 C5.74739758 -0.12377604 11.49401627 -0.21442248 17.24243164 -0.2746582 C19.19699623 -0.29977281 21.15146717 -0.33387131 23.10571289 -0.37719727 C25.91836668 -0.43798434 28.72977702 -0.46623983 31.54296875 -0.48828125 C32.41398727 -0.51408768 33.2850058 -0.5398941 34.18241882 -0.56648254 C38.56492978 -0.56849977 40.38940348 -0.48496945 43.92382812 2.32226562 C44.60896484 3.20591797 45.29410156 4.08957031 46 5 C46.49024658 5.58112549 46.98049316 6.16225098 47.4855957 6.76098633 C47.87835693 7.27943115 48.27111816 7.79787598 48.67578125 8.33203125 C49.32836914 9.18764648 49.32836914 9.18764648 49.99414062 10.06054688 C50.42919922 10.63869141 50.86425781 11.21683594 51.3125 11.8125 C51.76689453 12.40998047 52.22128906 13.00746094 52.68945312 13.62304688 C53.79633917 15.07947588 54.89865264 16.53937817 56 18 C55.67 18.66 55.34 19.32 55 20 C54.236875 19.649375 53.47375 19.29875 52.6875 18.9375 C49.95240621 17.67639116 49.95240621 17.67639116 47 19 C47.020625 18.2575 47.04125 17.515 47.0625 16.75 C47.00610468 14.26860581 46.83184292 12.32916018 46 10 C45.34 9.67 44.68 9.34 44 9 C44 8.01 44 7.02 44 6 C41.525 5.505 41.525 5.505 39 5 C38.67 5.66 38.34 6.32 38 7 C37.34 5.68 36.68 4.36 36 3 C27.42 3 18.84 3 10 3 C9.34 4.98 8.68 6.96 8 9 C4.20620942 7.50958227 2.31656242 5.30937488 0 2 C0 1.34 0 0.68 0 0 Z " fill="#482EDC" transform="translate(101,145)"/>
<path d="M0 0 C1.98 0.66 3.96 1.32 6 2 C5.896875 2.763125 5.79375 3.52625 5.6875 4.3125 C5.790625 5.199375 5.89375 6.08625 6 7 C8.46326712 8.6446674 8.46326712 8.6446674 11 10 C11 10.99 11 11.98 11 13 C11.66 13 12.32 13 13 13 C12.67 14.65 12.34 16.3 12 18 C12.66 18 13.32 18 14 18 C14.33 19.98 14.66 21.96 15 24 C16.65 23.34 18.3 22.68 20 22 C20 22.66 20 23.32 20 24 C23.44534004 24.86133501 25.60379646 24.93688374 29 24 C29.66 24.33 30.32 24.66 31 25 C31 25.66 31 26.32 31 27 C29.35 27 27.7 27 26 27 C26.33 28.98 26.66 30.96 27 33 C26.34 33 25.68 33 25 33 C25 33.66 25 34.32 25 35 C22.80859375 34.91015625 22.80859375 34.91015625 20 34 C18.14286464 31.83088944 16.61361626 29.80627308 15.0625 27.4375 C14.19121375 26.15289256 13.318823 24.86903353 12.4453125 23.5859375 C12.02797852 22.96557617 11.61064453 22.34521484 11.18066406 21.70605469 C9.70289718 19.57068765 8.08134514 17.57164406 6.4375 15.5625 C3.76366693 12.07521913 3.18179052 9.36297238 3 5 C2.01 4.67 1.02 4.34 0 4 C-0.33 3.01 -0.66 2.02 -1 1 C-0.67 0.67 -0.34 0.34 0 0 Z " fill="#1F9FF6" transform="translate(106,240)"/>
<path d="M0 0 C0.33 0.99 0.66 1.98 1 3 C1.66 3 2.32 3 3 3 C3.33 4.32 3.66 5.64 4 7 C4.66 7 5.32 7 6 7 C6 6.34 6 5.68 6 5 C6.66 5.33 7.32 5.66 8 6 C8.38063221 8.3260857 8.71269945 10.66055264 9 13 C9.33 13.66 9.66 14.32 10 15 C11.0828125 14.8453125 11.0828125 14.8453125 12.1875 14.6875 C16.12041589 15.12449065 17.46321923 17.10082197 20 20 C18.68 20.33 17.36 20.66 16 21 C16 21.66 16 22.32 16 23 C34.315 23.495 34.315 23.495 53 24 C53.33 23.34 53.66 22.68 54 22 C54.495 23.485 54.495 23.485 55 25 C49.2021927 25.3235469 43.40971913 25.55817315 37.60498047 25.71411133 C35.63529908 25.77914341 33.66623712 25.86761327 31.69873047 25.98071289 C15.82486937 26.86974566 15.82486937 26.86974566 11.15032959 23.77572632 C7.57606264 20.34835552 5.3389655 16.32346664 3 12 C1.64757246 10.04667693 0.27651148 8.10590997 -1.125 6.1875 C-2.0865671 4.79389238 -3.04628482 3.39899279 -4 2 C-2.68 1.34 -1.36 0.68 0 0 Z " fill="#4356DB" transform="translate(151,209)"/>
<path d="M0 0 C4.70338983 1.52542373 4.70338983 1.52542373 6.25 4 C9.06244759 7.21422582 12.91080075 7.3484714 17 8 C17.33 9.98 17.66 11.96 18 14 C18.99 14.33 19.98 14.66 21 15 C20.98839844 15.68707031 20.97679688 16.37414062 20.96484375 17.08203125 C20.95582031 17.98308594 20.94679688 18.88414062 20.9375 19.8125 C20.92589844 20.70582031 20.91429688 21.59914062 20.90234375 22.51953125 C20.88990033 25.13413791 20.88990033 25.13413791 22 28 C22.99 28 23.98 28 25 28 C25 29.32 25 30.64 25 32 C26.98 32 28.96 32 31 32 C31 32.33 31 32.66 31 33 C27.7890625 33.3359375 27.7890625 33.3359375 24 33 C21.5859375 30.7890625 21.5859375 30.7890625 19.375 27.625 C18.76700562 26.77651489 18.76700562 26.77651489 18.14672852 25.91088867 C17.24842035 24.65379424 16.36000881 23.38958721 15.47998047 22.11962891 C13.85263989 19.78895076 12.1826391 17.49313658 10.50390625 15.19921875 C8.18972933 12.03148815 5.88026931 8.86074177 3.58984375 5.67578125 C2.87622681 4.6844519 2.87622681 4.6844519 2.14819336 3.6730957 C1 2 1 2 0 0 Z " fill="#3F50ED" transform="translate(107,154)"/>
<path d="M0 0 C5.74739758 -0.12377604 11.49401627 -0.21442248 17.24243164 -0.2746582 C19.19699623 -0.29977281 21.15146717 -0.33387131 23.10571289 -0.37719727 C25.91836668 -0.43798434 28.72977702 -0.46623983 31.54296875 -0.48828125 C32.41398727 -0.51408768 33.2850058 -0.5398941 34.18241882 -0.56648254 C38.57289354 -0.56850343 40.39070007 -0.48467847 43.93041992 2.33105469 C44.61338135 3.21180664 45.29634277 4.09255859 46 5 C46.47453613 5.56017822 46.94907227 6.12035645 47.43798828 6.69750977 C47.81165527 7.19049561 48.18532227 7.68348145 48.5703125 8.19140625 C48.99183594 8.74376953 49.41335937 9.29613281 49.84765625 9.86523438 C50.26917969 10.42533203 50.69070312 10.98542969 51.125 11.5625 C51.55425781 12.12646484 51.98351562 12.69042969 52.42578125 13.27148438 C53.62153506 14.84436055 54.81097896 16.42202801 56 18 C56.59554687 18.75152344 57.19109375 19.50304687 57.8046875 20.27734375 C59 22 59 22 59 24 C54.25 25.125 54.25 25.125 52 24 C52 23.34 52 22.68 52 22 C52.66 21.67 53.32 21.34 54 21 C53.505 19.515 53.505 19.515 53 18 C52.01 18.33 51.02 18.66 50 19 C48.0625 17.6875 48.0625 17.6875 46 16 C44.68 15.34 43.36 14.68 42 14 C42.33 10.37 42.66 6.74 43 3 C39.20245738 1.73415246 35.63943072 1.85702014 31.68359375 1.8671875 C30.87132828 1.86623077 30.05906281 1.86527405 29.22218323 1.86428833 C27.50660118 1.86360827 25.79101655 1.86545045 24.07543945 1.86962891 C21.4441147 1.87498653 18.81296011 1.86967451 16.18164062 1.86328125 C14.51562462 1.86394193 12.84960873 1.86522287 11.18359375 1.8671875 C10.39399765 1.86516327 9.60440155 1.86313904 8.7908783 1.86105347 C4.76504133 1.78604431 4.76504133 1.78604431 1 3 C0.67 2.01 0.34 1.02 0 0 Z " fill="#4B2CEA" transform="translate(134,192)"/>
<path d="M0 0 C-0.3125 2.375 -0.3125 2.375 -1 5 C-1.99 5.66 -2.98 6.32 -4 7 C-3.67 8.32 -3.34 9.64 -3 11 C-5.31 11 -7.62 11 -10 11 C-10 12.32 -10 13.64 -10 15 C-10.33 15.66 -10.66 16.32 -11 17 C-8.50707156 18.24646422 -6.90865311 18.06454848 -4.125 18 C1.96192974 17.93550273 7.94577986 18.40831356 14 19 C14 19.33 14 19.66 14 20 C2.45 20 -9.1 20 -21 20 C-6.27272727 -2.09090909 -6.27272727 -2.09090909 0 0 Z M-10 8 C-9 10 -9 10 -9 10 Z " fill="#2294F7" transform="translate(155,261)"/>
<path d="M0 0 C-1.88473873 4.95042136 -6.0640421 8.12652009 -9.83203125 11.66601562 C-11.27438717 13.05773193 -12.6431026 14.52484091 -14 16 C-14 16.99 -14 17.98 -14 19 C-14.66 19 -15.32 19 -16 19 C-16 16.69 -16 14.38 -16 12 C-15.34 12 -14.68 12 -14 12 C-14.33 10.02 -14.66 8.04 -15 6 C-14.34 6 -13.68 6 -13 6 C-13.99 5.01 -14.98 4.02 -16 3 C-18.64 5.64 -21.28 8.28 -24 11 C-24.66 10.67 -25.32 10.34 -26 10 C-18.26081294 -0.41813643 -12.11002391 -1.35223592 0 0 Z " fill="#4B85F3" transform="translate(393,192)"/>
<path d="M0 0 C2.54016301 -0.13344417 5.0391948 -0.11400198 7.5819397 -0.04135132 C8.97392326 -0.03073921 8.97392326 -0.03073921 10.39402771 -0.01991272 C13.35982675 0.00809051 16.32374203 0.07083961 19.28897095 0.13442993 C21.29870932 0.15950515 23.30847726 0.18231967 25.31826782 0.20278931 C30.24672871 0.25793666 35.17378041 0.34424997 40.10147095 0.44692993 C38.2409913 4.32555699 35.86858287 7.72206948 33.35147095 11.19692993 C32.90626099 11.81584106 32.46105103 12.4347522 32.00234985 13.07241821 C28.75699117 17.57260183 25.4587432 22.02946644 22.10147095 26.44692993 C21.22306099 23.34972148 21.10711688 21.54047591 22.10147095 18.44692993 C22.76147095 18.44692993 23.42147095 18.44692993 24.10147095 18.44692993 C24.43147095 17.78692993 24.76147095 17.12692993 25.10147095 16.44692993 C25.76147095 16.77692993 26.42147095 17.10692993 27.10147095 17.44692993 C27.06022095 16.33317993 27.01897095 15.21942993 26.97647095 14.07192993 C27.10147095 10.44692993 27.10147095 10.44692993 29.10147095 8.44692993 C30.09147095 8.44692993 31.08147095 8.44692993 32.10147095 8.44692993 C32.76147095 6.13692993 33.42147095 3.82692993 34.10147095 1.44692993 C33.58939087 1.61442749 33.07731079 1.78192505 32.54971313 1.95449829 C29.28364945 2.61142394 26.25853769 2.44862502 22.92959595 2.32583618 C22.24717834 2.30222519 21.56476074 2.2786142 20.86166382 2.25428772 C18.69137037 2.17798033 16.52146381 2.09381587 14.35147095 2.00942993 C12.87622919 1.9561762 11.40096879 1.90343604 9.9256897 1.85122681 C6.31738182 1.72241043 2.70937885 1.58654799 -0.89852905 1.44692993 C-0.89852905 2.43692993 -0.89852905 3.42692993 -0.89852905 4.44692993 C-2.21852905 4.77692993 -3.53852905 5.10692993 -4.89852905 5.44692993 C-3.86087582 2.62318431 -3.08372316 0.72593473 0 0 Z " fill="#3B4BDA" transform="translate(165.89852905273438,239.55307006835938)"/>
<path d="M0 0 C0.92508865 0.02064514 1.85017731 0.04129028 2.80329895 0.06256104 C3.75348404 0.06822083 4.70366913 0.07388062 5.68264771 0.07971191 C8.71946964 0.10211456 11.75511451 0.15231834 14.7915802 0.20318604 C16.84950588 0.223246 18.90745004 0.24149764 20.96540833 0.25787354 C26.01208627 0.30199216 31.05788363 0.37104673 36.1040802 0.45318604 C32.20207618 6.72383233 28.25516428 12.85016159 23.6665802 18.64068604 C23.22120911 19.21109619 22.77583801 19.78150635 22.31697083 20.36920166 C21.25039004 21.73396633 20.17792763 23.09413164 19.1040802 24.45318604 C18.16984375 21.4428686 18.05958109 20.58668336 19.1040802 17.45318604 C19.7640802 16.97881104 20.4240802 16.50443604 21.1040802 16.01568604 C23.50040062 14.14356071 23.41272035 13.30504541 24.1040802 10.45318604 C26.00564157 8.30626191 27.53535099 6.73755064 30.1040802 5.45318604 C29.6090802 3.96818604 29.6090802 3.96818604 29.1040802 2.45318604 C24.15619706 2.37913867 19.20863496 2.32463358 14.2603302 2.28839111 C12.5763538 2.273286 10.89241685 2.25280058 9.20857239 2.22686768 C6.79083027 2.19055883 4.37360728 2.17347757 1.9556427 2.16021729 C0.82275314 2.1369915 0.82275314 2.1369915 -0.33302307 2.11329651 C-2.68000061 2.07756294 -2.68000061 2.07756294 -5.8959198 2.45318604 C-6.8859198 3.93818604 -6.8859198 3.93818604 -7.8959198 5.45318604 C-8.5559198 5.12318604 -9.2159198 4.79318604 -9.8959198 4.45318604 C-7.73238241 -0.32893485 -4.6959989 -0.00164846 0 0 Z " fill="#3F57D3" transform="translate(136.8959197998047,287.54681396484375)"/>
<path d="M0 0 C1.41116678 3.20719724 0.89413879 4.28390052 -0.375 7.6875 C-2.325 11.6625 -2.325 11.6625 -5 13 C-5 13.66 -5 14.32 -5 15 C12.325 14.505 12.325 14.505 30 14 C28 16 28 16 24.10107422 16.22705078 C22.41891207 16.22673341 20.73672981 16.21539396 19.0546875 16.1953125 C18.1696756 16.1924826 17.2846637 16.18965271 16.37283325 16.18673706 C13.54008588 16.1755224 10.70765216 16.1504157 7.875 16.125 C5.95703581 16.11497185 4.03906667 16.10584572 2.12109375 16.09765625 C-2.58605876 16.07557889 -7.29297616 16.04104045 -12 16 C-11.21699779 12.42317827 -9.97141762 10.32785399 -7.6875 7.4375 C-7.09324219 6.67308594 -6.49898438 5.90867187 -5.88671875 5.12109375 C-4.06779319 3.0762147 -2.24531398 1.55139796 0 0 Z " fill="#31A4E7" transform="translate(113,314)"/>
<path d="M0 0 C0.625 1.8125 0.625 1.8125 1 4 C0.01 5.485 0.01 5.485 -1 7 C-0.01 7 0.98 7 2 7 C2.66 7.66 3.32 8.32 4 9 C6.06874034 9.6425235 6.06874034 9.6425235 8 10 C7.93039063 10.94359375 7.93039063 10.94359375 7.859375 11.90625 C7.61565866 17.68580887 8.20086353 21.44114951 11.22265625 26.40625 C11.47917969 26.9321875 11.73570313 27.458125 12 28 C11.67 28.66 11.34 29.32 11 30 C8.31124816 26.34902986 5.65159764 22.67802253 3 19 C2.38382812 18.16726562 1.76765625 17.33453125 1.1328125 16.4765625 C-1.25440095 13.12989483 -2.86731489 10.78136788 -3.5625 6.6875 C-2.94482605 3.73639111 -2.03132778 2.2006051 0 0 Z " fill="#249DF3" transform="translate(72,183)"/>
<path d="M0 0 C4.17383395 3.92831431 7.89394426 8.16479983 11 13 C11 13.66 11 14.32 11 15 C1.43 15 -8.14 15 -18 15 C-16 13 -16 13 -13.66162109 12.77294922 C-12.70852051 12.78342285 -11.75541992 12.79389648 -10.7734375 12.8046875 C-9.2265625 12.81435547 -9.2265625 12.81435547 -7.6484375 12.82421875 C-6.02808594 12.84935547 -6.02808594 12.84935547 -4.375 12.875 C-3.28703125 12.88402344 -2.1990625 12.89304688 -1.078125 12.90234375 C1.61480152 12.92596591 4.30729255 12.95890444 7 13 C7 12.34 7 11.68 7 11 C4.34771188 9.92474806 1.71631546 8.90543849 -1 8 C-1.8125 6.1875 -1.8125 6.1875 -2 4 C-1.0625 1.75 -1.0625 1.75 0 0 Z " fill="#4743D3" transform="translate(162,172)"/>
<path d="M0 0 C1.18142578 0.00966797 1.18142578 0.00966797 2.38671875 0.01953125 C4.3125 0.1875 4.3125 0.1875 5.3125 1.1875 C5.35330783 3.18708364 5.35504356 5.18795254 5.3125 7.1875 C-0.22363706 8.61618053 -6.23961412 9.00346196 -11.6875 7.1875 C-11.6875 6.5275 -11.6875 5.8675 -11.6875 5.1875 C-10.6975 5.1875 -9.7075 5.1875 -8.6875 5.1875 C-8.6875 4.1975 -8.6875 3.2075 -8.6875 2.1875 C-5.65909851 0.43421493 -3.48875633 -0.06343193 0 0 Z " fill="#4386FB" transform="translate(356.6875,298.8125)"/>
<path d="M0 0 C25 0 25 0 32 4 C32.9375 6.25 32.9375 6.25 33 8 C30.525 7.505 30.525 7.505 28 7 C28 6.01 28 5.02 28 4 C19.90061731 -0.04969135 10.04683829 1.3933408 1 1 C1 18.82 1 36.64 1 55 C0.67 55 0.34 55 0 55 C0 36.85 0 18.7 0 0 Z " fill="#5081EC" transform="translate(220,172)"/>
<path d="M0 0 C1.76462683 3.08809695 2 4.23312136 2 8 C3.65 8.33 5.3 8.66 7 9 C7.33 9.99 7.66 10.98 8 12 C8.66 12.33 9.32 12.66 10 13 C9.938125 14.051875 9.87625 15.10375 9.8125 16.1875 C10.01122348 20.22821068 10.88406521 21.68810207 13 25 C12.67 25.99 12.34 26.98 12 28 C9.84494702 24.75602641 7.70260251 21.50385219 5.5625 18.25 C4.95083984 17.32960938 4.33917969 16.40921875 3.70898438 15.4609375 C3.12568359 14.57148438 2.54238281 13.68203125 1.94140625 12.765625 C1.40201416 11.94868164 0.86262207 11.13173828 0.30688477 10.29003906 C-0.93145173 8.12011634 -1.65546329 6.46498871 -2 4 C-1.0625 1.75 -1.0625 1.75 0 0 Z " fill="#2DA4EB" transform="translate(70,280)"/>
<path d="M0 0 C13.53 0 27.06 0 41 0 C41 0.33 41 0.66 41 1 C25.16 1.495 25.16 1.495 9 2 C9.33 2.99 9.66 3.98 10 5 C9.0625 7.1875 9.0625 7.1875 8 9 C4.20620942 7.50958227 2.31656242 5.30937488 0 2 C0 1.34 0 0.68 0 0 Z " fill="#4743C8" transform="translate(101,145)"/>
<path d="M0 0 C0.66 0.33 1.32 0.66 2 1 C2 1.66 2 2.32 2 3 C2.99 3.33 3.98 3.66 5 4 C5.33 5.65 5.66 7.3 6 9 C4.02 8.34 2.04 7.68 0 7 C-0.66 8.65 -1.32 10.3 -2 12 C-2.99 12 -3.98 12 -5 12 C-4.67 13.32 -4.34 14.64 -4 16 C-4.99 16.33 -5.98 16.66 -7 17 C-7 16.34 -7 15.68 -7 15 C-8.98 15.99 -8.98 15.99 -11 17 C-9.24933204 13.11390189 -6.81675994 9.72187742 -4.375 6.25 C-3.95476562 5.64800781 -3.53453125 5.04601562 -3.1015625 4.42578125 C-2.07006863 2.94886957 -1.03535421 1.47420806 0 0 Z " fill="#3866E7" transform="translate(122,206)"/>
<path d="M0 0 C5.74739758 -0.12377604 11.49401627 -0.21442248 17.24243164 -0.2746582 C19.19699623 -0.29977281 21.15146717 -0.33387131 23.10571289 -0.37719727 C25.91836668 -0.43798434 28.72977702 -0.46623983 31.54296875 -0.48828125 C32.41398727 -0.51408768 33.2850058 -0.5398941 34.18241882 -0.56648254 C38.65039502 -0.56853911 40.40221191 -0.48306897 43.9921875 2.41796875 C44.65476563 3.27003906 45.31734375 4.12210938 46 5 C46.52207031 5.59425781 47.04414063 6.18851563 47.58203125 6.80078125 C48.72135417 8.20052083 49.86067708 9.60026042 51 11 C50.67 11.66 50.34 12.32 50 13 C47.69 12.34 45.38 11.68 43 11 C43 8.36 43 5.72 43 3 C39.20245738 1.73415246 35.63943072 1.85702014 31.68359375 1.8671875 C30.87132828 1.86623077 30.05906281 1.86527405 29.22218323 1.86428833 C27.50660118 1.86360827 25.79101655 1.86545045 24.07543945 1.86962891 C21.4441147 1.87498653 18.81296011 1.86967451 16.18164062 1.86328125 C14.51562462 1.86394193 12.84960873 1.86522287 11.18359375 1.8671875 C10.39399765 1.86516327 9.60440155 1.86313904 8.7908783 1.86105347 C4.76504133 1.78604431 4.76504133 1.78604431 1 3 C0.67 2.01 0.34 1.02 0 0 Z " fill="#4C38CE" transform="translate(134,192)"/>
<path d="M0 0 C3.59478807 3.32850747 6.22364768 6.98971331 9 11 C7.53181332 14.10742423 5.79975 16.90471739 3.875 19.75 C3.33617188 20.54921875 2.79734375 21.3484375 2.2421875 22.171875 C1.83226563 22.77515625 1.42234375 23.3784375 1 24 C0.67 23.01 0.34 22.02 0 21 C-0.66 20.67 -1.32 20.34 -2 20 C-1.505 18.515 -1.505 18.515 -1 17 C-0.34 17 0.32 17 1 17 C1 16.34 1 15.68 1 15 C1.66 15 2.32 15 3 15 C3.12469099 9.42169984 3.12469099 9.42169984 2 4 C1.34 4 0.68 4 0 4 C0 2.68 0 1.36 0 0 Z " fill="#3473E8" transform="translate(118,273)"/>
<path d="M0 0 C4.12797153 3.88514967 8.14744012 8.06928653 11 13 C11 14.32 11 15.64 11 17 C7.6875 17.25 7.6875 17.25 4 17 C2.0625 15.1875 2.0625 15.1875 1 13 C1 12.01 1 11.02 1 10 C1.66 9.67 2.32 9.34 3 9 C3.33 8.01 3.66 7.02 4 6 C3.34 6 2.68 6 2 6 C2 5.01 2 4.02 2 3 C1.01 2.67 0.02 2.34 -1 2 C-0.67 1.34 -0.34 0.68 0 0 Z " fill="#4337DE" transform="translate(193,216)"/>
<path d="M0 0 C0.66 0.33 1.32 0.66 2 1 C2 2.65 2 4.3 2 6 C2.66 6 3.32 6 4 6 C3.46884894 10.51478398 1.63379708 13.34666857 -1 17 C-2.32 16.67 -3.64 16.34 -5 16 C-4.54273352 13.86608974 -4.05870034 12.10639437 -3 10.1875 C-1.63777456 7.20763185 -1.42675189 4.23112142 -1 1 C-0.67 0.67 -0.34 0.34 0 0 Z " fill="#3173EB" transform="translate(121,184)"/>
<path d="M0 0 C4.03034912 -0.18319769 6.48257051 0.05934924 10 2 C10.99 2 11.98 2 13 2 C12.34 3.32 11.68 4.64 11 6 C10.34 6 9.68 6 9 6 C8.67 7.32 8.34 8.64 8 10 C7.01 9.67 6.02 9.34 5 9 C4.67 8.34 4.34 7.68 4 7 C3.01 7.495 3.01 7.495 2 8 C2 7.01 2 6.02 2 5 C1.34 5 0.68 5 0 5 C0 3.35 0 1.7 0 0 Z " fill="#4885FD" transform="translate(231,252)"/>
<path d="M0 0 C0.804375 1.2065625 0.804375 1.2065625 1.625 2.4375 C4.47643874 5.51405232 5.8754681 5.8281445 10 6 C12.27650745 5.6422386 12.27650745 5.6422386 14 5 C18 11.625 18 11.625 18 15 C14.00248167 16.88646933 10.77931569 17.27024973 6.375 17.25 C5.24835938 17.25515625 4.12171875 17.2603125 2.9609375 17.265625 C0 17 0 17 -3 15 C2.94 15 8.88 15 15 15 C14.67 13.02 14.34 11.04 14 9 C12.98679687 8.96132813 12.98679687 8.96132813 11.953125 8.921875 C4.66388584 8.45839737 4.66388584 8.45839737 1.375 6.1875 C0 4 0 4 0 0 Z " fill="#5582DF" transform="translate(347,291)"/>
<path d="M0 0 C0.7425 0.185625 1.485 0.37125 2.25 0.5625 C4.99006016 0.99841866 6.39020109 0.71994453 9 0 C9.66 0.33 10.32 0.66 11 1 C11 1.66 11 2.32 11 3 C9.35 3 7.7 3 6 3 C6.33 4.98 6.66 6.96 7 9 C6.34 9 5.68 9 5 9 C5 9.66 5 10.32 5 11 C3.68 10.67 2.36 10.34 1 10 C-1.125 3.375 -1.125 3.375 0 0 Z " fill="#18ACFA" transform="translate(126,264)"/>
<path d="M0 0 C4.32448087 4.06773989 7.79990263 8.53656263 11.3125 13.3125 C12.13717773 14.42334961 12.13717773 14.42334961 12.97851562 15.55664062 C14.32272179 17.36839676 15.66308744 19.182859 17 21 C16.67 21.66 16.34 22.32 16 23 C15.01 22.34 14.02 21.68 13 21 C13 20.01 13 19.02 13 18 C12.34 18 11.68 18 11 18 C10.34 17.01 9.68 16.02 9 15 C6.41619823 14.74969023 6.41619823 14.74969023 4 15 C4 12.03 4 9.06 4 6 C3.01 6 2.02 6 1 6 C1 5.34 1 4.68 1 4 C0.34 3.67 -0.32 3.34 -1 3 C-0.67 2.01 -0.34 1.02 0 0 Z " fill="#3C5BD7" transform="translate(100,249)"/>
<path d="M0 0 C1.65 0.33 3.3 0.66 5 1 C5 1.66 5 2.32 5 3 C5.99 3.33 6.98 3.66 8 4 C8 5.32 8 6.64 8 8 C5.69 7.34 3.38 6.68 1 6 C0.236875 6.825 -0.52625 7.65 -1.3125 8.5 C-4 11 -4 11 -7 11 C-5.22054913 6.95579349 -2.60470327 3.53921513 0 0 Z " fill="#3A5BF4" transform="translate(92,154)"/>
<path d="M0 0 C0.99 0.33 1.98 0.66 3 1 C5.14255793 0.61067144 5.14255793 0.61067144 7 0 C7.68707555 2.49064888 8 4.37886292 8 7 C2.62694301 8.67357513 2.62694301 8.67357513 0 9 C-2 7.625 -2 7.625 -3 6 C-1.125 1.125 -1.125 1.125 0 0 Z " fill="#385BED" transform="translate(126,201)"/>
<path d="M0 0 C0 3 0 3 -1.90893555 5.65698242 C-6.16410222 8.88238599 -9.26255408 8.64218256 -14.45703125 8.48828125 C-15.81147591 8.47766914 -15.81147591 8.47766914 -17.19328308 8.46684265 C-20.06721088 8.43893319 -22.93916472 8.37620232 -25.8125 8.3125 C-27.76494575 8.28741262 -29.71742215 8.26460022 -31.66992188 8.24414062 C-36.44737102 8.18911789 -41.22335126 8.10286998 -46 8 C-46 7.67 -46 7.34 -46 7 C-32.47 6.67 -18.94 6.34 -5 6 C-5 5.34 -5 4.68 -5 4 C-4.34 4 -3.68 4 -3 4 C-3 3.34 -3 2.68 -3 2 C-2.01 1.34 -1.02 0.68 0 0 Z " fill="#2D7AC5" transform="translate(180,274)"/>
<path d="M0 0 C3.63 0 7.26 0 11 0 C11 0.66 11 1.32 11 2 C8.69 2 6.38 2 4 2 C4.33 2.99 4.66 3.98 5 5 C5.66 5.33 6.32 5.66 7 6 C7.59355614 8.64860427 7.74209269 11.29197322 8 14 C4.41897159 10.61791761 1.43226526 7.30323854 -1 3 C-0.67 2.01 -0.34 1.02 0 0 Z " fill="#353AE6" transform="translate(137,193)"/>
<path d="M0 0 C0.66 0.99 1.32 1.98 2 3 C4.99558673 3.99852891 6.82195252 4.07319935 9.9375 4 C16.002975 3.93512861 21.96711957 4.41039912 28 5 C28 5.33 28 5.66 28 6 C16.45 6 4.9 6 -7 6 C-5.68 4.68 -4.36 3.36 -3 2 C-2.01 2 -1.02 2 0 2 C0 1.34 0 0.68 0 0 Z " fill="#2DA0F8" transform="translate(141,275)"/>
<path d="M0 0 C-1.8855148 4.28359673 -4.35965701 6.15103592 -8 9 C-8 7.68 -8 6.36 -8 5 C-6.68 4.34 -5.36 3.68 -4 3 C-4 2.34 -4 1.68 -4 1 C-9.4796237 0.64580379 -13.51211279 0.84624862 -17.95703125 4.29296875 C-20.41469902 6.78579629 -22.75407772 9.31561133 -25 12 C-25 8.15832037 -23.98563298 7.19230985 -21.5 4.3125 C-15.21120453 -1.9258236 -8.22810168 -0.81776225 0 0 Z " fill="#5483D6" transform="translate(409,272)"/>
<path d="M0 0 C0.33 0.66 0.66 1.32 1 2 C0.06553465 4.03144641 -0.93224776 6.03533587 -2 8 C-2.66 8 -3.32 8 -4 8 C-4 11.63 -4 15.26 -4 19 C-4.9075 18.7525 -5.815 18.505 -6.75 18.25 C-10.08837848 17.61740673 -10.08837848 17.61740673 -12.375 19.9375 C-13.179375 20.9584375 -13.179375 20.9584375 -14 22 C-12.59290322 17.98904888 -10.67407059 14.95324484 -8.125 11.5625 C-5.30470417 7.76792016 -2.57239462 3.96577503 0 0 Z " fill="#3B74DC" transform="translate(89,252)"/>
<path d="M0 0 C1.32 0.33 2.64 0.66 4 1 C3.51814387 5.7221901 1.30336567 8.70054372 -1.5625 12.3125 C-1.98724609 12.86228516 -2.41199219 13.41207031 -2.84960938 13.97851562 C-3.89181259 15.3251827 -4.94483843 16.66346201 -6 18 C-6.87840996 14.90279155 -6.99435406 13.09354597 -6 10 C-5.34 10 -4.68 10 -4 10 C-3.67 9.34 -3.34 8.68 -3 8 C-2.34 8.33 -1.68 8.66 -1 9 C-1.020625 7.88625 -1.04125 6.7725 -1.0625 5.625 C-1 2 -1 2 0 0 Z " fill="#3C5FE0" transform="translate(194,248)"/>
<path d="M0 0 C3.24000075 1.08000025 3.6336358 1.49783862 5.48046875 4.16015625 C5.92197266 4.78857422 6.36347656 5.41699219 6.81835938 6.06445312 C7.49608398 7.05348633 7.49608398 7.05348633 8.1875 8.0625 C8.65091797 8.72572266 9.11433594 9.38894531 9.59179688 10.07226562 C10.73472863 11.71007505 11.8682718 13.35442897 13 15 C12.67 15.66 12.34 16.32 12 17 C10.79557292 15.4375 9.59114583 13.875 8.38671875 12.3125 C6.95508863 10.65629795 6.95508863 10.65629795 4 11 C3 8 3 8 4 5 C2.35 5.66 0.7 6.32 -1 7 C-1.625 5.1875 -1.625 5.1875 -2 3 C-1.34 2.01 -0.68 1.02 0 0 Z " fill="#3C52D6" transform="translate(129,196)"/>
<path d="M0 0 C4.00390625 1.953125 4.00390625 1.953125 5.5625 4.25 C5.98728586 8.32794425 5.87532587 9.78076119 3.5625 13.25 C2.9025 13.25 2.2425 13.25 1.5625 13.25 C1.5625 13.91 1.5625 14.57 1.5625 15.25 C-0.10361905 15.292721 -1.77132885 15.29063832 -3.4375 15.25 C-4.4375 14.25 -4.4375 14.25 -4.53515625 11.08984375 C-4.51775391 9.15818359 -4.51775391 9.15818359 -4.5 7.1875 C-4.49097656 5.89714844 -4.48195312 4.60679687 -4.47265625 3.27734375 C-4.46105469 2.27832031 -4.44945312 1.27929688 -4.4375 0.25 C-2.4375 -0.75 -2.4375 -0.75 0 0 Z M-3.4375 2.25 C-3.4375 5.88 -3.4375 9.51 -3.4375 13.25 C1.04133696 12.80296014 1.04133696 12.80296014 4.5625 10.25 C5.06264953 7.79258463 5.06264953 7.79258463 4.5625 5.25 C2.88933688 3.32845307 2.88933688 3.32845307 0.5625 2.25 C-0.7575 2.25 -2.0775 2.25 -3.4375 2.25 Z " fill="#5884E3" transform="translate(236.4375,179.75)"/>
<path d="M0 0 C0.33 0 0.66 0 1 0 C1 1.98 1 3.96 1 6 C1.99 6.33 2.98 6.66 4 7 C4.33 7.99 4.66 8.98 5 10 C4.01 10.33 3.02 10.66 2 11 C2 10.34 2 9.68 2 9 C1.01 9.33 0.02 9.66 -1 10 C-4 11 -4 11 -7 10 C-5.85821872 8.33055479 -4.71147095 6.6645052 -3.5625 5 C-2.92441406 4.071875 -2.28632812 3.14375 -1.62890625 2.1875 C-1.09136719 1.465625 -0.55382812 0.74375 0 0 Z " fill="#3678E7" transform="translate(84,165)"/>
<path d="M0 0 C0.99 0 1.98 0 3 0 C1.42488485 4.70734412 -1.1721734 8.34290011 -4.0625 12.3125 C-4.75182617 13.28026367 -4.75182617 13.28026367 -5.45507812 14.26757812 C-6.60739017 15.86660145 -7.80022598 17.43627337 -9 19 C-9.33 19 -9.66 19 -10 19 C-10.1875 16.625 -10.1875 16.625 -10 14 C-9.01 13.34 -8.02 12.68 -7 12 C-6.67 11.154375 -6.34 10.30875 -6 9.4375 C-5.67 8.633125 -5.34 7.82875 -5 7 C-4.01 6.67 -3.02 6.34 -2 6 C-1.855625 5.195625 -1.71125 4.39125 -1.5625 3.5625 C-1 1 -1 1 0 0 Z " fill="#309AE4" transform="translate(109,304)"/>
<path d="M0 0 C1.76462683 3.08809695 2 4.23312136 2 8 C3.65 8.33 5.3 8.66 7 9 C7.33 9.99 7.66 10.98 8 12 C8.66 12.33 9.32 12.66 10 13 C8.68 13.33 7.36 13.66 6 14 C5.67 13.34 5.34 12.68 5 12 C4.195625 11.7525 3.39125 11.505 2.5625 11.25 C0 10 0 10 -1.4375 7.125 C-2.03809362 3.78836877 -1.88954631 2.72934467 0 0 Z " fill="#289AEE" transform="translate(70,280)"/>
<path d="M0 0 C0.99 0 1.98 0 3 0 C1.45158425 3.34708051 -0.49105864 6.24667512 -2.625 9.25 C-3.25664062 10.14203125 -3.88828125 11.0340625 -4.5390625 11.953125 C-5.02117187 12.62859375 -5.50328125 13.3040625 -6 14 C-6.99 13.67 -7.98 13.34 -9 13 C-9.33 12.01 -9.66 11.02 -10 10 C-8.68 10.33 -7.36 10.66 -6 11 C-6.33 10.01 -6.66 9.02 -7 8 C-6.34 8 -5.68 8 -5 8 C-5 6.35 -5 4.7 -5 3 C-3.35 3 -1.7 3 0 3 C0 2.01 0 1.02 0 0 Z " fill="#299FE6" transform="translate(137,264)"/>
<path d="M0 0 C0 0.66 0 1.32 0 2 C-0.66 2 -1.32 2 -2 2 C-1.896875 2.886875 -1.79375 3.77375 -1.6875 4.6875 C-2.09498572 9.00684858 -3.7722703 10.25642975 -7 13 C-8.01095266 8.65290358 -8.29010189 5.92588896 -6 2 C-3.82419059 0.57212508 -2.5999945 0 0 0 Z " fill="#2096F7" transform="translate(111,208)"/>
<path d="M0 0 C0.33 0 0.66 0 1 0 C1.56475645 11.94355301 1.56475645 11.94355301 -2 16 C-4.6875 18.3125 -4.6875 18.3125 -7 20 C-8.04449911 16.86650268 -7.93423645 16.01031744 -7 13 C-5.02 12.67 -3.04 12.34 -1 12 C-0.67 8.04 -0.34 4.08 0 0 Z " fill="#5085E4" transform="translate(258,206)"/>
<path d="M0 0 C0 3.24986616 -0.76815277 5.02907432 -2 8 C-2.75023554 10.55080083 -3 12.30020872 -3 15 C-3.99 14.67 -4.98 14.34 -6 14 C-8.14255793 14.38932856 -8.14255793 14.38932856 -10 15 C-8.37815499 11.41486894 -6.20743761 8.41007677 -3.875 5.25 C-3.15054688 4.26515625 -2.42609375 3.2803125 -1.6796875 2.265625 C-1.12539062 1.51796875 -0.57109375 0.7703125 0 0 Z " fill="#25A0EA" transform="translate(147,263)"/>
<path d="M0 0 C1.32 0.33 2.64 0.66 4 1 C4.33 2.32 4.66 3.64 5 5 C6.65 4.34 8.3 3.68 10 3 C10.33 6.96 10.66 10.92 11 15 C7.72782865 11.72782865 5.63928945 9.10962142 3.25 5.25 C2.63640625 4.26515625 2.0228125 3.2803125 1.390625 2.265625 C0.93171875 1.51796875 0.4728125 0.7703125 0 0 Z " fill="#22AFEF" transform="translate(116,259)"/>
<path d="M0 0 C2.375 0.125 2.375 0.125 5 1 C6.875 3.4375 6.875 3.4375 8 6 C7.67 6.66 7.34 7.32 7 8 C6.21625 7.814375 5.4325 7.62875 4.625 7.4375 C2.02910225 6.74037734 2.02910225 6.74037734 0 8 C-0.38063221 5.6739143 -0.71269945 3.33944736 -1 1 C-0.67 0.67 -0.34 0.34 0 0 Z " fill="#3465F2" transform="translate(112,176)"/>
<path d="M0 0 C3.20700048 1.37442878 4.29973362 2.37455603 6.0625 5.3125 C2.96771121 6.34409626 1.53618607 6.28732862 -1.625 5.875 C-2.83736328 5.72224609 -2.83736328 5.72224609 -4.07421875 5.56640625 C-4.68910156 5.48261719 -5.30398438 5.39882813 -5.9375 5.3125 C-5.5625 2.875 -5.5625 2.875 -4.9375 0.3125 C-2.9375 -0.6875 -2.9375 -0.6875 0 0 Z " fill="#418BF5" transform="translate(404.9375,301.6875)"/>
<path d="M0 0 C2.64 0 5.28 0 8 0 C8 1.98 8 3.96 8 6 C5.36 6 2.72 6 0 6 C0 4.02 0 2.04 0 0 Z " fill="#1BA6F7" transform="translate(96,216)"/>
<path d="M0 0 C2.31 0 4.62 0 7 0 C6.67 2.31 6.34 4.62 6 7 C4.35 7.33 2.7 7.66 1 8 C0.67 5.36 0.34 2.72 0 0 Z " fill="#2496F2" transform="translate(136,256)"/>
<path d="M0 0 C0 3.98025806 -1.04539531 7.40103715 -3.09375 10.83203125 C-4.28602859 13.68424942 -3.98817115 15.69936231 -3.625 18.75 C-3.51414062 19.73484375 -3.40328125 20.7196875 -3.2890625 21.734375 C-3.19367188 22.48203125 -3.09828125 23.2296875 -3 24 C-5.85657394 21.14342606 -5.71181424 18.59736051 -6.03515625 14.671875 C-5.96087863 9.02677585 -3.69811395 4.22641594 0 0 Z " fill="#5382DF" transform="translate(294,275)"/>
<path d="M0 0 C0.99 0 1.98 0 3 0 C2 2 1 4 0 6 C-0.04022391 8.3329866 -0.04320247 10.66706666 0 13 C-0.99 13 -1.98 13 -3 13 C-4.15941038 9.52176885 -3.70820884 7.54104422 -3 4 C-2.34 4 -1.68 4 -1 4 C-0.67 2.68 -0.34 1.36 0 0 Z " fill="#2D70F0" transform="translate(88,256)"/>
<path d="M0 0 C-0.66 1.32 -1.32 2.64 -2 4 C-2.33 3.01 -2.66 2.02 -3 1 C-8.54844297 0.76529429 -13.21023323 0.67702038 -17.80078125 4.0703125 C-19.99308621 6.30107895 -22.04667318 8.55834148 -24 11 C-24.66 10.67 -25.32 10.34 -26 10 C-18.26081294 -0.41813643 -12.11002391 -1.35223592 0 0 Z " fill="#5684D8" transform="translate(393,192)"/>
<path d="M0 0 C0.66 0.33 1.32 0.66 2 1 C2.62460568 10.75078864 2.62460568 10.75078864 0.25 15.5 C-1.7204137 17.68934855 -3.52871551 19.41131711 -6 21 C-6.66 20.67 -7.32 20.34 -8 20 C-7.67 19.34 -7.34 18.68 -7 18 C-6.34 18 -5.68 18 -5 18 C-4.67 17.01 -4.34 16.02 -4 15 C-3.34 15.33 -2.68 15.66 -2 16 C-0.24836544 12.22777911 0.22490027 9.333361 0.125 5.1875 C0.10695313 4.21167969 0.08890625 3.23585938 0.0703125 2.23046875 C0.04710937 1.49441406 0.02390625 0.75835937 0 0 Z " fill="#5787DC" transform="translate(257,285)"/>
<path d="M0 0 C4.875 1.75 4.875 1.75 6 4 C5.00390625 6.3828125 5.00390625 6.3828125 3.5625 9.125 C3.08941406 10.03507812 2.61632812 10.94515625 2.12890625 11.8828125 C1.75636719 12.58148438 1.38382813 13.28015625 1 14 C-1.64 13.01 -4.28 12.02 -7 11 C-7 10.67 -7 10.34 -7 10 C-4.36 10.33 -1.72 10.66 1 11 C0.67 9.35 0.34 7.7 0 6 C0.99 5.67 1.98 5.34 3 5 C3 4.34 3 3.68 3 3 C2.01 2.67 1.02 2.34 0 2 C0 1.34 0 0.68 0 0 Z " fill="#5280DA" transform="translate(252,253)"/>
<path d="M0 0 C1.80078125 1.55078125 1.80078125 1.55078125 3 3 C2.4328125 2.83886719 1.865625 2.67773438 1.28125 2.51171875 C-1.04534179 1.98982915 -3.118605 1.83288866 -5.5 1.8125 C-6.62921875 1.79123047 -6.62921875 1.79123047 -7.78125 1.76953125 C-10.25991837 2.02699856 -11.80599587 2.86253474 -14 4 C-14.99 4 -15.98 4 -17 4 C-16 1 -16 1 -13.5625 -0.25 C-8.94546116 -1.22200818 -4.58823695 -1.1766735 0 0 Z " fill="#5783E1" transform="translate(313,272)"/>
<path d="M0 0 C1.24652344 -0.01417969 2.49304688 -0.02835938 3.77734375 -0.04296875 C7.0625 0.1875 7.0625 0.1875 10.0625 2.1875 C8.31610243 2.57893394 6.56514082 2.95004287 4.8125 3.3125 C3.83796875 3.52132812 2.8634375 3.73015625 1.859375 3.9453125 C-1.22199985 4.21213546 -2.35496645 3.77326622 -4.9375 2.1875 C-6.2617287 1.81965869 -7.59363912 1.47547019 -8.9375 1.1875 C-5.98162889 -0.29043555 -3.28752355 0.01696349 0 0 Z " fill="#4D83EA" transform="translate(240.9375,250.8125)"/>
<path d="M0 0 C5.80205656 5.64524422 5.80205656 5.64524422 8 9 C8 9.66 8 10.32 8 11 C4.75728494 10.4409112 3.06942576 9.5867822 1 7 C1 6.34 1 5.68 1 5 C0.34 4.67 -0.32 4.34 -1 4 C-0.67 2.68 -0.34 1.36 0 0 Z " fill="#3D60DC" transform="translate(147,220)"/>
<path d="M0 0 C3.79379058 1.49041773 5.68343758 3.69062512 8 7 C8 7.66 8 8.32 8 9 C8.99 9 9.98 9 11 9 C11 10.32 11 11.64 11 13 C12.98 13 14.96 13 17 13 C17 13.33 17 13.66 17 14 C13.83984375 14.40234375 13.83984375 14.40234375 10 14 C7.7143965 12.18580682 6.19397471 9.96320623 4.5625 7.5625 C4.11712891 6.95083984 3.67175781 6.33917969 3.21289062 5.70898438 C0 1.24252352 0 1.24252352 0 0 Z " fill="#415BD2" transform="translate(121,173)"/>
<path d="M0 0 C3.59478807 3.32850747 6.22364768 6.98971331 9 11 C7.84826645 13.46800047 6.95216435 15.04783565 5 17 C5.061875 15.9275 5.12375 14.855 5.1875 13.75 C4.99047658 9.80953169 4.52063064 8.83570947 2 6 C2 5.34 2 4.68 2 4 C1.34 4 0.68 4 0 4 C0 2.68 0 1.36 0 0 Z " fill="#3966CC" transform="translate(118,273)"/>
<path d="M0 0 C0 0.99 0 1.98 0 3 C0.07888535 4.50154181 0.18515215 6.00178999 0.3125 7.5 C0.37050781 8.2734375 0.42851563 9.046875 0.48828125 9.84375 C1.09928208 12.41834894 2.0912824 13.23543034 4 15 C4.6875 17.6875 4.6875 17.6875 5 20 C-2.66313163 12.7510917 -2.66313163 12.7510917 -3.375 6.9375 C-2.9633342 3.71278459 -2.1773029 2.35874481 0 0 Z " fill="#3692D9" transform="translate(105,230)"/>
<path d="M0 0 C1.32 0.66 2.64 1.32 4 2 C4 3.65 4 5.3 4 7 C4.66 7.33 5.32 7.66 6 8 C5.67 8.66 5.34 9.32 5 10 C4.34 10 3.68 10 3 10 C3 9.34 3 8.68 3 8 C2.360625 7.7525 1.72125 7.505 1.0625 7.25 C-1 6 -1 6 -1.75 3.875 C-1.8325 3.25625 -1.915 2.6375 -2 2 C-1.34 2 -0.68 2 0 2 C0 1.34 0 0.68 0 0 Z " fill="#3463EA" transform="translate(114,270)"/>
<path d="M0 0 C1.0625 1.875 1.0625 1.875 2 4 C1.67 4.66 1.34 5.32 1 6 C0.34 6 -0.32 6 -1 6 C-0.67 7.32 -0.34 8.64 0 10 C-0.99 10.33 -1.98 10.66 -3 11 C-3 10.34 -3 9.68 -3 9 C-4.98 9.99 -4.98 9.99 -7 11 C-5.22054913 6.95579349 -2.60470327 3.53921513 0 0 Z " fill="#3475E1" transform="translate(118,212)"/>
<path d="M0 0 C4.54075781 4.14010271 7.71842138 8.82390176 11 14 C10.34 15.32 9.68 16.64 9 18 C9 17.01 9 16.02 9 15 C8.34 15 7.68 15 7 15 C6.6596875 13.7315625 6.6596875 13.7315625 6.3125 12.4375 C4.96513439 8.90868531 3.32162397 6.4647429 1.0234375 3.515625 C0 2 0 2 0 0 Z " fill="#3D63CB" transform="translate(116,175)"/>
<path d="M0 0 C3.94534803 1.27957234 5.77404653 2.50207312 8 6 C8.99 7.485 8.99 7.485 10 9 C9.625 11.1875 9.625 11.1875 9 13 C7.49710267 11.02297434 5.99758658 9.0435417 4.5 7.0625 C4.07074219 6.49853516 3.64148438 5.93457031 3.19921875 5.35351562 C0 1.11328125 0 1.11328125 0 0 Z " fill="#424ED4" transform="translate(107,154)"/>
<path d="M0 0 C1.32 0.33 2.64 0.66 4 1 C4 1.66 4 2.32 4 3 C4.66 3.33 5.32 3.66 6 4 C5.34 4 4.68 4 4 4 C4 4.66 4 5.32 4 6 C2.02 6 0.04 6 -2 6 C-2 3 -2 3 0 0 Z " fill="#1DB0F2" transform="translate(104,323)"/>
<path d="M0 0 C3.79588866 0.54226981 5.47211993 2.20127563 8 5 C6.68 5.33 5.36 5.66 4 6 C4 6.66 4 7.32 4 8 C5.32 8.33 6.64 8.66 8 9 C6.35 9 4.7 9 3 9 C2.814375 7.824375 2.814375 7.824375 2.625 6.625 C2.20882007 3.85942178 2.20882007 3.85942178 0 2 C0 1.34 0 0.68 0 0 Z " fill="#3C56F0" transform="translate(163,224)"/>
<path d="M0 0 C5.32938809 0.33671515 9.62826633 0.615432 14 4 C14 4.33 14 4.66 14 5 C12.35 5 10.7 5 9 5 C8.67 5.66 8.34 6.32 8 7 C7.67 5.35 7.34 3.7 7 2 C4.69 2 2.38 2 0 2 C0 1.34 0 0.68 0 0 Z " fill="#5983E5" transform="translate(330,191)"/>
<path d="M0 0 C0.66 0.33 1.32 0.66 2 1 C2.40729228 3.32156597 2.74438677 5.6568787 3 8 C2.01 8.33 1.02 8.66 0 9 C-1.5625 6.625 -1.5625 6.625 -3 4 C-2.67 3.34 -2.34 2.68 -2 2 C-1.34 2 -0.68 2 0 2 C0 1.34 0 0.68 0 0 Z " fill="#3D52EF" transform="translate(157,214)"/>
<path d="M0 0 C3.45201639 1.47721422 5.64961936 3.43794001 8.25 6.125 C8.95640625 6.84945313 9.6628125 7.57390625 10.390625 8.3203125 C11.18726563 9.15175781 11.18726563 9.15175781 12 10 C11.67 10.66 11.34 11.32 11 12 C9.2925002 10.71937515 7.62626404 9.38232443 6 8 C6 7.34 6 6.68 6 6 C5.34 6 4.68 6 4 6 C4 5.34 4 4.68 4 4 C2.35 3.67 0.7 3.34 -1 3 C-0.67 2.01 -0.34 1.02 0 0 Z " fill="#6184F1" transform="translate(395,292)"/>
<path d="M0 0 C2.40072955 2.88087546 4.47291037 5.56404834 6 9 C1.25 10.125 1.25 10.125 -1 9 C-1 8.34 -1 7.68 -1 7 C-0.34 6.67 0.32 6.34 1 6 C0.67 5.67 0.34 5.34 0 5 C-0.04063832 3.33382885 -0.042721 1.66611905 0 0 Z " fill="#4A31D8" transform="translate(187,207)"/>
<path d="M0 0 C2.31 0.66 4.62 1.32 7 2 C7.33 4.64 7.66 7.28 8 10 C4.71211176 6.88983545 2.16264012 3.98381075 0 0 Z " fill="#3D49D9" transform="translate(137,197)"/>
<path d="M0 0 C0.99 0 1.98 0 3 0 C1.34832443 3.5786304 -0.78286492 6.74820188 -3 10 C-3.66 9.34 -4.32 8.68 -5 8 C-4.67 7.01 -4.34 6.02 -4 5 C-3.34 5.33 -2.68 5.66 -2 6 C-2 5.34 -2 4.68 -2 4 C-2.66 3.67 -3.32 3.34 -4 3 C-3.01 2.67 -2.02 2.34 -1 2 C-0.67 1.34 -0.34 0.68 0 0 Z " fill="#327FDF" transform="translate(150,246)"/>
<path d="M0 0 C1.65 1.65 3.3 3.3 5 5 C3.6062718 9.43458973 1.39417765 11.87378374 -2 15 C-2 13.68 -2 12.36 -2 11 C-1.34 11 -0.68 11 0 11 C0 10.34 0 9.68 0 9 C0.66 9 1.32 9 2 9 C1.34 6.03 0.68 3.06 0 0 Z " fill="#3D68D3" transform="translate(155,231)"/>
<path d="M0 0 C1.5625 1.8125 1.5625 1.8125 3 4 C2.67 4.99 2.34 5.98 2 7 C2.66 7.33 3.32 7.66 4 8 C4 8.66 4 9.32 4 10 C0.34683329 8.75023244 -0.78065836 8.32901247 -3 5 C-2.01 3.35 -1.02 1.7 0 0 Z " fill="#5183E6" transform="translate(220,295)"/>
<path d="M0 0 C0.60546875 1.875 0.60546875 1.875 1 4 C-0.6875 6 -0.6875 6 -3 8 C-3.7425 8.7425 -4.485 9.485 -5.25 10.25 C-5.8275 10.8275 -6.405 11.405 -7 12 C-7 8.19654123 -5.86213669 7.22298985 -3.5 4.3125 C-2.8503125 3.50425781 -2.200625 2.69601563 -1.53125 1.86328125 C-1.0259375 1.24839844 -0.520625 0.63351563 0 0 Z " fill="#357FE0" transform="translate(156,251)"/>
<path d="M0 0 C0.7425 0.0825 1.485 0.165 2.25 0.25 C2.25 1.57 2.25 2.89 2.25 4.25 C0.93 4.25 -0.39 4.25 -1.75 4.25 C-2.08 4.91 -2.41 5.57 -2.75 6.25 C-4.07 5.59 -5.39 4.93 -6.75 4.25 C-3.42692308 0.31153846 -3.42692308 0.31153846 0 0 Z " fill="#346AF2" transform="translate(133.75,288.75)"/>
<path d="M0 0 C0.639375 0.2475 1.27875 0.495 1.9375 0.75 C2.2675 1.74 2.5975 2.73 2.9375 3.75 C2.2775 3.75 1.6175 3.75 0.9375 3.75 C0.6075 4.41 0.2775 5.07 -0.0625 5.75 C-1.0525 5.42 -2.0425 5.09 -3.0625 4.75 C-3.75 2.6875 -3.75 2.6875 -4.0625 0.75 C-2.0625 -0.25 -2.0625 -0.25 0 0 Z " fill="#3655EF" transform="translate(97.0625,247.25)"/>
<path d="M0 0 C7.75 0.75 7.75 0.75 10 3 C9.67 3.66 9.34 4.32 9 5 C8.95977609 7.3329866 8.95679753 9.66706666 9 12 C8.67 12 8.34 12 8 12 C7.79375 10.741875 7.5875 9.48375 7.375 8.1875 C6.49193978 4.51890422 6.27006117 4.17283915 2.875 2 C1.92625 1.67 0.9775 1.34 0 1 C0 0.67 0 0.34 0 0 Z " fill="#4D80E7" transform="translate(282,201)"/>
<path d="M0 0 C1.21744727 3.65234182 0.64202228 4.62953322 -1 8 C-1.66 8.66 -2.32 9.32 -3 10 C-3.99 10 -4.98 10 -6 10 C-4.34832443 6.4213696 -2.21713508 3.25179812 0 0 Z " fill="#3D63DB" transform="translate(91,155)"/>
<path d="M0 0 C1.2065625 0.0309375 1.2065625 0.0309375 2.4375 0.0625 C1.48328192 1.21176266 0.52397955 2.35680541 -0.4375 3.5 C-0.97117187 4.13808594 -1.50484375 4.77617187 -2.0546875 5.43359375 C-3.5625 7.0625 -3.5625 7.0625 -5.5625 8.0625 C-3.38616071 0.08258929 -3.38616071 0.08258929 0 0 Z " fill="#5585EA" transform="translate(398.5625,280.9375)"/>
<path d="M0 0 C0.99 0.33 1.98 0.66 3 1 C4.1875 3.5625 4.1875 3.5625 5 6 C2.69 5.67 0.38 5.34 -2 5 C-2.66 6.32 -3.32 7.64 -4 9 C-4 5.00095031 -2.27413033 3.19799578 0 0 Z " fill="#3F57CC" transform="translate(95,243)"/>
<path d="M0 0 C2.125 0 2.125 0 5 1 C7.25484692 3.49775783 9.14265083 6.19801963 11 9 C10.67 9.66 10.34 10.32 10 11 C7.5625 9.8125 7.5625 9.8125 5 8 C4.62690101 6.34178227 4.29299023 4.67422986 4 3 C2.0431712 1.17662247 2.0431712 1.17662247 0 0 Z " fill="#4829C9" transform="translate(140,146)"/>
<path d="M0 0 C0 3 0 3 -2.125 5.75 C-5 8 -5 8 -8.3125 7.8125 C-9.199375 7.544375 -10.08625 7.27625 -11 7 C-11 6.67 -11 6.34 -11 6 C-9.02 6 -7.04 6 -5 6 C-5 5.34 -5 4.68 -5 4 C-4.34 4 -3.68 4 -3 4 C-3 3.34 -3 2.68 -3 2 C-2.01 1.34 -1.02 0.68 0 0 Z " fill="#3887DC" transform="translate(180,274)"/>
<path d="M0 0 C0.33 0.66 0.66 1.32 1 2 C2.65 2 4.3 2 6 2 C4.79296875 3.51953125 4.79296875 3.51953125 3 5 C0.73828125 5.07421875 0.73828125 5.07421875 -1.6875 4.6875 C-2.49574219 4.56761719 -3.30398437 4.44773438 -4.13671875 4.32421875 C-4.75160156 4.21722656 -5.36648437 4.11023438 -6 4 C-3 2 -3 2 -1 2 C-0.67 1.34 -0.34 0.68 0 0 Z " fill="#3D54ED" transform="translate(141,182)"/>
<path d="M0 0 C1 2 1 2 0.4375 4.375 C-1.41741462 7.76223539 -3.71164126 9.06987639 -7 11 C-5.22054913 6.95579349 -2.60470327 3.53921513 0 0 Z " fill="#3693DA" transform="translate(117,306)"/>
<path d="M0 0 C0.33 1.32 0.66 2.64 1 4 C2.98 4 4.96 4 7 4 C6.67 6.97 6.34 9.94 6 13 C5.67 13 5.34 13 5 13 C4.67 10.69 4.34 8.38 4 6 C2.68 5.67 1.36 5.34 0 5 C0 3.35 0 1.7 0 0 Z " fill="#5185EA" transform="translate(262,277)"/>
<path d="M0 0 C0.99 0 1.98 0 3 0 C3.69710731 1.28650706 4.38242876 2.57940665 5.0625 3.875 C5.63677734 4.95394531 5.63677734 4.95394531 6.22265625 6.0546875 C6.47917969 6.69664062 6.73570313 7.33859375 7 8 C6.67 8.66 6.34 9.32 6 10 C4.99421411 8.71283353 3.99553202 7.42011342 3 6.125 C2.443125 5.40570313 1.88625 4.68640625 1.3125 3.9453125 C0 2 0 2 0 0 Z " fill="#37A3E0" transform="translate(77,203)"/>
<path d="M0 0 C2.475 0.495 2.475 0.495 5 1 C5 2.32 5 3.64 5 5 C4.34 5 3.68 5 3 5 C2.67 5.66 2.34 6.32 2 7 C2 6.34 2 5.68 2 5 C1.34 5 0.68 5 0 5 C0 3.35 0 1.7 0 0 Z " fill="#3E8BFC" transform="translate(231,252)"/>
<path d="M0 0 C4.13621084 3.3810038 7.81316569 6.66590534 11 11 C8 11 8 11 6.2109375 9.35546875 C5.60507812 8.64003906 4.99921875 7.92460937 4.375 7.1875 C3.76398438 6.47980469 3.15296875 5.77210938 2.5234375 5.04296875 C1 3 1 3 0 0 Z " fill="#5286D5" transform="translate(384,216)"/>
<path d="M0 0 C0.66 0.33 1.32 0.66 2 1 C-0.97 4.96 -0.97 4.96 -4 9 C-5 5 -5 5 -5 2 C-3.68 2 -2.36 2 -1 2 C-0.67 1.34 -0.34 0.68 0 0 Z " fill="#3682DA" transform="translate(117,201)"/>
<path d="M0 0 C0.66 0.33 1.32 0.66 2 1 C2.625 4.0625 2.625 4.0625 3 7 C1.68 7.33 0.36 7.66 -1 8 C-1.04241723 5.66705225 -1.04092937 3.33297433 -1 1 C-0.67 0.67 -0.34 0.34 0 0 Z " fill="#2F6AF6" transform="translate(121,184)"/>
<path d="M0 0 C2.875 -0.1875 2.875 -0.1875 6 0 C6.66 0.99 7.32 1.98 8 3 C6.35 3 4.7 3 3 3 C2.67 3.66 2.34 4.32 2 5 C0 1.125 0 1.125 0 0 Z " fill="#4D27E9" transform="translate(137,147)"/>
<path d="M0 0 C1.32 0.33 2.64 0.66 4 1 C3.67 2.65 3.34 4.3 3 6 C3.66 6 4.32 6 5 6 C5 6.66 5 7.32 5 8 C3.35 7.67 1.7 7.34 0 7 C0 4.69 0 2.38 0 0 Z " fill="#1CACF3" transform="translate(115,252)"/>
<path d="M0 0 C0.66 0 1.32 0 2 0 C2.1875 3.375 2.1875 3.375 2 7 C-1 9 -1 9 -3.1875 8.625 C-3.785625 8.41875 -4.38375 8.2125 -5 8 C-4.0409375 7.690625 -4.0409375 7.690625 -3.0625 7.375 C-0.65074923 6.10461791 -0.65074923 6.10461791 -0.25 2.875 C-0.1675 1.92625 -0.085 0.9775 0 0 Z " fill="#5483E3" transform="translate(245,208)"/>
<path d="M0 0 C1.60080151 4.00200378 0.29279692 7.04556236 -1 11 C-1.66 10.67 -2.32 10.34 -3 10 C-3.36923077 4.58461538 -3.36923077 4.58461538 -1.5 1.625 C-1.005 1.08875 -0.51 0.5525 0 0 Z " fill="#3C96DE" transform="translate(72,183)"/>
<path d="M0 0 C2.5 2.25 2.5 2.25 5 5 C5 6.32 5 7.64 5 9 C4.01 8.67 3.02 8.34 2 8 C2.33 7.34 2.66 6.68 3 6 C1.68 5.34 0.36 4.68 -1 4 C-0.34 4 0.32 4 1 4 C0.67 2.68 0.34 1.36 0 0 Z " fill="#4539D1" transform="translate(166,177)"/>
<path d="M0 0 C0.66 0 1.32 0 2 0 C2.66 1.98 3.32 3.96 4 6 C1.69 5.67 -0.62 5.34 -3 5 C-1.625 2.5 -1.625 2.5 0 0 Z " fill="#18AAF9" transform="translate(94,312)"/>
<path d="M0 0 C0.66 0.99 1.32 1.98 2 3 C2.99 3.66 3.98 4.32 5 5 C2.03 5 -0.94 5 -4 5 C-3.67 4.01 -3.34 3.02 -3 2 C-2.01 2 -1.02 2 0 2 C0 1.34 0 0.68 0 0 Z " fill="#1AADFC" transform="translate(141,275)"/>
<path d="M0 0 C0.33 0.99 0.66 1.98 1 3 C0.34 3 -0.32 3 -1 3 C-1.66 4.32 -2.32 5.64 -3 7 C-4.0625 5.125 -4.0625 5.125 -5 3 C-4.67 2.34 -4.34 1.68 -4 1 C-1.9375 0.375 -1.9375 0.375 0 0 Z " fill="#428CFC" transform="translate(277,215)"/>
<path d="M0 0 C-0.54226981 3.79588866 -2.20127563 5.47211993 -5 8 C-4.74438677 5.6568787 -4.40729228 3.32156597 -4 1 C-2 0 -2 0 0 0 Z " fill="#3867D9" transform="translate(160,304)"/>
<path d="M0 0 C2.475 0.495 2.475 0.495 5 1 C3.02 3.97 3.02 3.97 1 7 C0.31292445 4.50935112 0 2.62113708 0 0 Z " fill="#3481E4" transform="translate(113,296)"/>
<path d="M0 0 C0.66 0 1.32 0 2 0 C1.65120368 3.25543229 0.97866739 4.01873107 -1.5625 6.25 C-2.366875 6.8275 -3.17125 7.405 -4 8 C-4 6.68 -4 5.36 -4 4 C-2.68 3.34 -1.36 2.68 0 2 C0 1.34 0 0.68 0 0 Z " fill="#5384EA" transform="translate(405,273)"/>
<path d="M0 0 C0 0.99 0 1.98 0 3 C-2.31 3 -4.62 3 -7 3 C-6.67 2.01 -6.34 1.02 -6 0 C-3.50907189 -1.24546405 -2.58919267 -0.7767578 0 0 Z " fill="#1D9EF5" transform="translate(152,269)"/>
<path d="M0 0 C2.54032055 0.01796549 5.04320014 0.118343 7.57421875 0.33203125 C7.57421875 0.66203125 7.57421875 0.99203125 7.57421875 1.33203125 C4.60421875 1.33203125 1.63421875 1.33203125 -1.42578125 1.33203125 C-1.42578125 2.32203125 -1.42578125 3.31203125 -1.42578125 4.33203125 C-2.74578125 4.66203125 -4.06578125 4.99203125 -5.42578125 5.33203125 C-4.29102155 2.08986068 -3.53506819 0.48386602 0 0 Z " fill="#3C64D7" transform="translate(166.42578125,239.66796875)"/>
<path d="M0 0 C0.66 0 1.32 0 2 0 C2.66 0.99 3.32 1.98 4 3 C4.66 3 5.32 3 6 3 C6 4.98 6 6.96 6 9 C2.91910327 6.22719294 1.31224548 3.93673644 0 0 Z " fill="#2FABE1" transform="translate(88,219)"/>
<path d="M0 0 C0.66 0.33 1.32 0.66 2 1 C2.625 3.5625 2.625 3.5625 3 6 C1.02 6.99 1.02 6.99 -1 8 C-1.04241723 5.66705225 -1.04092937 3.33297433 -1 1 C-0.67 0.67 -0.34 0.34 0 0 Z " fill="#3A5CEF" transform="translate(105,162)"/>
<path d="M0 0 C1.98 0 3.96 0 6 0 C2.67692308 3.93846154 2.67692308 3.93846154 -0.75 4.25 C-1.4925 4.1675 -2.235 4.085 -3 4 C-2.01 3.34 -1.02 2.68 0 2 C0 1.34 0 0.68 0 0 Z " fill="#5082EA" transform="translate(310,304)"/>
<path d="M0 0 C0.33 0.99 0.66 1.98 1 3 C-0.65 4.32 -2.3 5.64 -4 7 C-4.66 6.67 -5.32 6.34 -6 6 C-5.67 5.34 -5.34 4.68 -5 4 C-4.34 4 -3.68 4 -3 4 C-2.67 3.01 -2.34 2.02 -2 1 C-1.34 1.33 -0.68 1.66 0 2 C0 1.34 0 0.68 0 0 Z " fill="#5284EA" transform="translate(255,299)"/>
<path d="M0 0 C1.98 0.99 3.96 1.98 6 3 C6 4.65 6 6.3 6 8 C1.125 3.375 1.125 3.375 0 0 Z " fill="#319EE1" transform="translate(110,250)"/>
<path d="M0 0 C3.21029714 1.10699901 4.00968977 2.01603825 5.8125 5 C6.204375 5.99 6.59625 6.98 7 8 C6.67 8.66 6.34 9.32 6 10 C4.99421411 8.71283353 3.99553202 7.42011342 3 6.125 C2.443125 5.40570313 1.88625 4.68640625 1.3125 3.9453125 C0 2 0 2 0 0 Z " fill="#4359D2" transform="translate(157,223)"/>
<path d="M0 0 C1.67542976 0.28604898 3.34385343 0.61781233 5 1 C3.69593116 3.01920337 2.36176581 5.01924973 1 7 C0.67 7 0.34 7 0 7 C-0.38133299 5.0085944 -0.71325582 3.00720923 -1 1 C-0.67 0.67 -0.34 0.34 0 0 Z " fill="#2AA6EA" transform="translate(99,221)"/>
<path d="M0 0 C1.98 0.99 1.98 0.99 4 2 C3.67 3.65 3.34 5.3 3 7 C2.34 7 1.68 7 1 7 C0.67 4.69 0.34 2.38 0 0 Z " fill="#3D4EF3" transform="translate(116,160)"/>
<path d="M0 0 C0.66 0 1.32 0 2 0 C4.1519437 3.22791555 4.20086443 4.28400809 4 8 C3.01 8.33 2.02 8.66 1 9 C1.020625 8.071875 1.04125 7.14375 1.0625 6.1875 C1.15769604 2.97713989 1.15769604 2.97713989 0 0 Z " fill="#5382E2" transform="translate(315,285)"/>
<path d="M0 0 C0.99 0.33 1.98 0.66 3 1 C2.34 2.65 1.68 4.3 1 6 C0.01 5.67 -0.98 5.34 -2 5 C-2.33 4.01 -2.66 3.02 -3 2 C-1.68 2.33 -0.36 2.66 1 3 C0.67 2.01 0.34 1.02 0 0 Z " fill="#32ACDF" transform="translate(130,272)"/>
<path d="M0 0 C2.475 0.495 2.475 0.495 5 1 C5 2.65 5 4.3 5 6 C3.0625 5.25 3.0625 5.25 1 4 C0.25 1.875 0.25 1.875 0 0 Z " fill="#3066F6" transform="translate(112,272)"/>
<path d="M0 0 C1.65 0 3.3 0 5 0 C4.1875 1.9375 4.1875 1.9375 3 4 C2.01 4.33 1.02 4.66 0 5 C0 3.35 0 1.7 0 0 Z " fill="#2686F3" transform="translate(176,272)"/>
<path d="M0 0 C0 3.20395416 -0.74335022 5.09399739 -2 8 C-2.99 8 -3.98 8 -5 8 C-3.62845496 5.04590299 -2.01136276 2.55991624 0 0 Z " fill="#2B8EDD" transform="translate(147,263)"/>
<path d="M0 0 C4 1 4 1 5.8125 3.9375 C6.204375 4.948125 6.59625 5.95875 7 7 C6.67 7.66 6.34 8.32 6 9 C4.02 6.03 2.04 3.06 0 0 Z " fill="#34A6E1" transform="translate(116,259)"/>
<path d="M0 0 C0.66 0.33 1.32 0.66 2 1 C0.02579865 3.52259061 -0.96745642 3.9929808 -4.1875 4.6875 C-5.5796875 4.8421875 -5.5796875 4.8421875 -7 5 C-6.34 4.01 -5.68 3.02 -5 2 C-2.375 1.8125 -2.375 1.8125 0 2 C0 1.34 0 0.68 0 0 Z " fill="#5184DF" transform="translate(288,223)"/>
<path d="M0 0 C0.99 0.33 1.98 0.66 3 1 C2.34 2.32 1.68 3.64 1 5 C-1.97 4.505 -1.97 4.505 -5 4 C-4.34 3.34 -3.68 2.68 -3 2 C-2.01 2 -1.02 2 0 2 C0 1.34 0 0.68 0 0 Z " fill="#3D8EF3" transform="translate(248,222)"/>
<path d="M0 0 C2.22825644 2.22825644 2.69239369 3.65761628 3.625 6.625 C4.01558594 7.85089844 4.01558594 7.85089844 4.4140625 9.1015625 C4.60742188 9.72804687 4.80078125 10.35453125 5 11 C0.07692308 6.81538462 0.07692308 6.81538462 -0.3125 2.6875 C-0.209375 1.800625 -0.10625 0.91375 0 0 Z " fill="#27AEEA" transform="translate(83,208)"/>
<path d="M0 0 C1.68762851 1.6454378 3.3540349 3.31288577 5 5 C5 5.33 5 5.66 5 6 C3.35 6 1.7 6 0 6 C0 4.02 0 2.04 0 0 Z " fill="#4831D1" transform="translate(157,165)"/>
<path d="M0 0 C1.32 0.33 2.64 0.66 4 1 C4 2.65 4 4.3 4 6 C2.68 5.34 1.36 4.68 0 4 C0 2.68 0 1.36 0 0 Z " fill="#4D83EE" transform="translate(239,282)"/>
<path d="M0 0 C0.99 0 1.98 0 3 0 C1.75023244 3.65316671 1.32901247 4.78065836 -2 7 C-1.125 2.25 -1.125 2.25 0 0 Z " fill="#434FCD" transform="translate(200,244)"/>
<path d="M0 0 C1.98 0.495 1.98 0.495 4 1 C2.68 3.31 1.36 5.62 0 8 C-0.98120464 4.94736336 -0.98120464 3.05263664 0 0 Z " fill="#219BF1" transform="translate(105,229)"/>
<path d="M0 0 C0 3 0 3 -2 5.1875 C-2.66 5.785625 -3.32 6.38375 -4 7 C-4.33 5.68 -4.66 4.36 -5 3 C-3.35 2.01 -1.7 1.02 0 0 Z " fill="#3397E2" transform="translate(108,214)"/>
<path d="M0 0 C0.625 1.8125 0.625 1.8125 1 4 C0.01 5.485 0.01 5.485 -1 7 C-1.66 6.67 -2.32 6.34 -3 6 C-2.42655063 3.13275314 -2.1385485 2.1385485 0 0 Z " fill="#326CF0" transform="translate(122,209)"/>
<path d="M0 0 C2 1 2 1 2 1 Z " fill="#5A7397" transform="translate(130,281)"/>
</svg>
