<?xml version="1.0" encoding="UTF-8"?>
<svg version="1.1" xmlns="http://www.w3.org/2000/svg" width="707" height="353">
<path d="M0 0 C30 0 30 0 38 4 C42.06019899 8.97374377 42.56736851 13.05605033 42.33203125 19.41015625 C41.7350551 24.06657018 39.54715777 27.17926335 37 31 C37.9075 31.391875 38.815 31.78375 39.75 32.1875 C44.14766177 34.64004214 46.40902453 37.22707358 48 42 C48.50748917 48.21674229 48.7719833 53.76789413 45 59 C40.16507149 64.30818871 37.49907786 65.12523053 30 67 C20.1 67 10.2 67 0 67 C0 44.89 0 22.78 0 0 Z M16 12 C16 16.29 16 20.58 16 25 C20.67885258 25.42744381 20.67885258 25.42744381 24.875 23.75 C26.20345668 21.68351183 26.85463211 20.47125406 27 18 C26.2081584 15.17891059 26.2081584 15.17891059 24 13 C21.26931435 12.25819957 18.85629849 12.1404737 16 12 Z M16 40 C15.92728259 42.35313555 15.91629132 44.70833668 15.9375 47.0625 C15.94652344 48.35285156 15.95554688 49.64320313 15.96484375 50.97265625 C15.97644531 51.97167969 15.98804688 52.97070312 16 54 C22.79368935 54.49919738 22.79368935 54.49919738 29.125 52.375 C31.2222805 50.0964035 31.2222805 50.0964035 31.5625 47 C31.17735562 43.99653643 31.17735562 43.99653643 29.625 41.6875 C26.61317538 39.75132703 18.97552884 37.02447116 16 40 Z " fill="#4785F8" transform="translate(180,140)"/>
<path d="M0 0 C0.94921875 1.77734375 0.94921875 1.77734375 1 4 C-0.21484375 6.796875 -0.21484375 6.796875 -1.9375 9.75 C-2.50339844 10.73484375 -3.06929688 11.7196875 -3.65234375 12.734375 C-4.09707031 13.48203125 -4.54179687 14.2296875 -5 15 C-5.64066406 14.71125 -6.28132813 14.4225 -6.94140625 14.125 C-12.11452294 11.90464589 -16.26196508 10.29738348 -22 11 C-22.99 11.66 -23.98 12.32 -25 13 C-24.80938717 15.42774424 -24.80938717 15.42774424 -24 18 C-22.26151149 19.45956539 -22.26151149 19.45956539 -19.9921875 20.39453125 C-18.75855469 20.99297852 -18.75855469 20.99297852 -17.5 21.60351562 C-15.77378851 22.39854904 -14.04723547 23.19284135 -12.3203125 23.98632812 C-5.71319193 27.19242312 -0.3566457 31.28670861 3 38 C3.56490993 44.5507824 3.49316728 50.25317642 0 56 C-5.2626855 62.18365546 -11.73310411 64.36609425 -19.62890625 65.31640625 C-30.05969418 65.78708227 -39.99871249 62.69875234 -48 56 C-47.57847656 55.22914063 -47.15695312 54.45828125 -46.72265625 53.6640625 C-45.90087891 52.15972656 -45.90087891 52.15972656 -45.0625 50.625 C-44.51722656 49.62726563 -43.97195313 48.62953125 -43.41015625 47.6015625 C-42.5850241 46.07929654 -41.77435609 44.54871217 -41 43 C-37.5985346 43.68187884 -34.884429 45.03805832 -31.8125 46.625 C-26.28429314 49.21820456 -22.91523967 49.26062485 -17 48 C-16.34 46.35 -15.68 44.7 -15 43 C-18.24825105 39.28301399 -21.94543085 37.36625781 -26.3125 35.25 C-32.3625377 32.17617877 -37.44370598 29.00282254 -41 23 C-42.61944889 17.93678328 -42.4832931 13.40155 -40.75 8.375 C-37.01225195 1.1664859 -32.73359739 -2.09279919 -25.1328125 -4.62109375 C-17.14931487 -6.03940743 -6.80282432 -4.57882406 0 0 Z " fill="#4685F7" transform="translate(460,143)"/>
<path d="M0 0 C4.95 0 9.9 0 15 0 C15.79101875 4.74611248 16.12867104 8.75531594 16.1328125 13.515625 C16.13424759 14.56118561 16.13424759 14.56118561 16.13571167 15.62786865 C16.13638817 17.09012951 16.13457112 18.55239346 16.13037109 20.01464844 C16.12498263 22.25722919 16.13035058 24.49961263 16.13671875 26.7421875 C16.13605851 28.16666711 16.13477847 29.59114659 16.1328125 31.015625 C16.13168457 32.30758789 16.13055664 33.59955078 16.12939453 34.93066406 C16 38 16 38 15 40 C16.23121385 38.93987294 17.45985685 37.87675995 18.6875 36.8125 C19.37199219 36.22082031 20.05648437 35.62914062 20.76171875 35.01953125 C23.11757842 33.0106077 23.11757842 33.0106077 25.125 30.28125 C29.36959825 26.91325356 33.06410209 27.44640752 38.3125 27.6875 C39.70952148 27.72133789 39.70952148 27.72133789 41.13476562 27.75585938 C43.4248396 27.81457922 45.71157875 27.89663142 48 28 C44.07711742 32.70341126 39.98981304 37.14273951 35.625 41.4375 C35.07972656 41.97826172 34.53445313 42.51902344 33.97265625 43.07617188 C32.65076536 44.38646723 31.32572382 45.69358284 30 47 C34.79904334 52.75146886 39.93487597 57.98658532 45.31640625 63.18945312 C45.92097656 63.78306641 46.52554688 64.37667969 47.1484375 64.98828125 C47.69677246 65.51977783 48.24510742 66.05127441 48.81005859 66.59887695 C50 68 50 68 50 70 C34.44860441 72.08899344 34.44860441 72.08899344 28.75830078 68.64208984 C24.77310697 65.31779989 21.40497701 61.47847568 18.21069336 57.39868164 C17.03185926 55.85610463 17.03185926 55.85610463 15 55 C15.33 55.66 15.66 56.32 16 57 C16.0962762 59.01896864 16.12981825 61.0412429 16.125 63.0625 C16.12886719 64.68865234 16.12886719 64.68865234 16.1328125 66.34765625 C16 69 16 69 15 70 C10.05 70 5.1 70 0 70 C0 46.9 0 23.8 0 0 Z " fill="#4785F7" transform="translate(595,137)"/>
<path d="M0 0 C4.95 0 9.9 0 15 0 C15.33 12.87 15.66 25.74 16 39 C19.63 35.37 23.26 31.74 27 28 C31.08737754 26.98960271 33.22507886 26.59602569 37.1875 26.8125 C38.04408203 26.81443359 38.90066406 26.81636719 39.78320312 26.81835938 C41.85632073 26.82994104 43.92890516 26.90771287 46 27 C46 31 46 31 44.53125 32.92285156 C43.8609375 33.5722168 43.190625 34.22158203 42.5 34.890625 C41.778125 35.59960938 41.05625 36.30859375 40.3125 37.0390625 C39.549375 37.76867187 38.78625 38.49828125 38 39.25 C37.236875 39.99507812 36.47375 40.74015625 35.6875 41.5078125 C33.80031094 43.34782184 31.90443371 45.17787227 30 47 C31.45299829 50.36152609 33.29042948 52.50218106 35.9140625 55.0390625 C36.67460937 55.78414062 37.43515625 56.52921875 38.21875 57.296875 C39.0128125 58.06515625 39.806875 58.8334375 40.625 59.625 C42.20502184 61.15421728 43.78078974 62.68784633 45.3515625 64.2265625 C46.05104004 64.90283691 46.75051758 65.57911133 47.47119141 66.27587891 C49 68 49 68 49 70 C33.45560228 72.08805343 33.45560228 72.08805343 27.72607422 68.62597656 C23.24706324 64.91684429 19.5726502 60.56926225 16 56 C15.67 60.62 15.34 65.24 15 70 C10.05 70 5.1 70 0 70 C0 46.9 0 23.8 0 0 Z " fill="#4685FA" transform="translate(342,137)"/>
<path d="M0 0 C0 -0.66 0 -1.32 0 -2 C4.95 -2 9.9 -2 15 -2 C15 11.86 15 25.72 15 40 C10.05 40 5.1 40 0 40 C-0.33 39.01 -0.66 38.02 -1 37 C-2.134375 37.66 -3.26875 38.32 -4.4375 39 C-10.05666861 41.75526897 -14.65138904 42.08455012 -20.6171875 40.15234375 C-26.82690923 37.43443884 -30.22216461 34.17583867 -33 28 C-35.0996038 21.7011886 -35.21060109 13.67754343 -32.4375 7.5625 C-29.31761642 2.36635586 -25.21376817 -1.03930815 -19.6875 -3.4375 C-12.51575076 -4.53149565 -6.28518937 -3.80419356 0 0 Z M-16 12.0625 C-18.51930235 15.76272533 -18.7066341 17.6031656 -18 22 C-16.59121904 24.9901643 -16.59121904 24.9901643 -14 27 C-10.05070721 28.14888518 -7.97041141 28.43129396 -4.1875 26.75 C-1.7897427 25.01308468 -1.7897427 25.01308468 0 22 C0.50418234 17.36152243 -0.22045603 14.74169381 -3 11 C-7.68667131 8.65666434 -11.88482796 9.23331922 -16 12.0625 Z " fill="#4785F7" transform="translate(265,167)"/>
<path d="M0 0 C0 -0.66 0 -1.32 0 -2 C4.95 -2 9.9 -2 15 -2 C15 11.86 15 25.72 15 40 C10.05 40 5.1 40 0 40 C-0.33 39.01 -0.66 38.02 -1 37 C-1.5775 37.474375 -2.155 37.94875 -2.75 38.4375 C-7.1160615 41.46948716 -11.79499708 41.49300574 -17 41 C-24.01009736 39.66474336 -28.01167428 35.7560047 -32 30 C-34.90551668 24.18896664 -34.87923354 17.58011262 -33.34765625 11.34375 C-31.24520489 5.3522148 -28.46146226 1.32084676 -23 -2 C-15.28349345 -5.34867265 -7.12352159 -4.31160518 0 0 Z M-16.375 13.125 C-18.73124567 17.29374234 -18.1192131 19.37391921 -17 24 C-16.01951062 26.06402685 -16.01951062 26.06402685 -14 27 C-10.09870199 28.01144763 -7.90920779 28.40409235 -4.1875 26.75 C-1.06708873 24.25367098 -0.07805473 22.60213649 0.4375 18.625 C0.30214897 14.87515873 0.30214897 14.87515873 -2.25 12.125 C-7.69010679 7.92128112 -11.23438855 8.52550554 -16.375 13.125 Z " fill="#4785F8" transform="translate(532,167)"/>
<path d="M0 0 C4.45911969 4.59299626 5.06082113 10.0658592 4.984375 16.20703125 C4.98013016 16.88520401 4.97588531 17.56337677 4.97151184 18.26210022 C4.95488566 20.40172152 4.91726799 22.54035697 4.87890625 24.6796875 C4.86383847 26.14126232 4.85015375 27.60285208 4.83789062 29.06445312 C4.80760204 32.62437172 4.74885984 36.18219262 4.69140625 39.7421875 C-0.25859375 39.7421875 -5.20859375 39.7421875 -10.30859375 39.7421875 C-10.35757812 38.06769531 -10.4065625 36.39320313 -10.45703125 34.66796875 C-10.53207613 32.46352541 -10.60762322 30.25909913 -10.68359375 28.0546875 C-10.71453125 26.95189453 -10.74546875 25.84910156 -10.77734375 24.71289062 C-10.81601562 23.64619141 -10.8546875 22.57949219 -10.89453125 21.48046875 C-10.92595215 20.50118408 -10.95737305 19.52189941 -10.98974609 18.51293945 C-11.35504253 15.33855256 -11.97309058 12.07769067 -14.30859375 9.7421875 C-18.87994546 9.26004735 -18.87994546 9.26004735 -23.00317383 10.87036133 C-24.8785918 13.55950095 -24.74384656 15.68395736 -24.8203125 18.94140625 C-24.85576172 20.14990234 -24.89121094 21.35839844 -24.92773438 22.60351562 C-24.96157227 24.4974707 -24.96157227 24.4974707 -24.99609375 26.4296875 C-25.03025391 27.70392578 -25.06441406 28.97816406 -25.09960938 30.29101562 C-25.1821957 33.44109393 -25.24706766 36.59162749 -25.30859375 39.7421875 C-30.25859375 39.7421875 -35.20859375 39.7421875 -40.30859375 39.7421875 C-40.30859375 25.8821875 -40.30859375 12.0221875 -40.30859375 -2.2578125 C-35.35859375 -2.2578125 -30.40859375 -2.2578125 -25.30859375 -2.2578125 C-25.30859375 -1.5978125 -25.30859375 -0.9378125 -25.30859375 -0.2578125 C-24.56609375 -0.7321875 -23.82359375 -1.2065625 -23.05859375 -1.6953125 C-15.41215819 -6.03987816 -7.26451509 -4.39814066 0 0 Z " fill="#4685F7" transform="translate(329.30859375,167.2578125)"/>
<path d="M0 0 C5.17518491 4.9821496 9.41245791 10.56614327 13.71582031 16.30126953 C14.94773699 17.93086578 16.20385502 19.54208095 17.4609375 21.15234375 C18.56308594 22.59287109 18.56308594 22.59287109 19.6875 24.0625 C20.35136719 24.91972656 21.01523438 25.77695313 21.69921875 26.66015625 C23 29 23 29 22.73388672 30.92724609 C21.94559942 33.15364634 20.99773135 34.63689588 19.55859375 36.50390625 C18.81174316 37.48423828 18.81174316 37.48423828 18.04980469 38.484375 C17.51774414 39.17015625 16.98568359 39.8559375 16.4375 40.5625 C15.3470055 41.99038867 14.25716463 43.41877675 13.16796875 44.84765625 C12.63091309 45.54906738 12.09385742 46.25047852 11.54052734 46.97314453 C8.28321293 51.25875853 5.1461351 55.63242421 2 60 C-1.81128225 58.51061171 -3.35738499 56.46392252 -5.6015625 53.09765625 C-6.25640625 52.12505859 -6.91125 51.15246094 -7.5859375 50.15039062 C-8.25882813 49.13138672 -8.93171875 48.11238281 -9.625 47.0625 C-10.305625 46.04736328 -10.98625 45.03222656 -11.6875 43.98632812 C-13.46678584 41.32970668 -15.23569807 38.66658438 -17 36 C-17.66 35.01 -18.32 34.02 -19 33 C-19.11739624 25.92913414 -15.25444503 21.44320347 -11.1875 15.9375 C-9.9306075 14.19689042 -8.67408764 12.45601169 -7.41796875 10.71484375 C-6.82677246 9.9038623 -6.23557617 9.09288086 -5.62646484 8.25732422 C-3.67567767 5.54988228 -1.82214524 2.79517998 0 0 Z " fill="#2884F4" transform="translate(79,112)"/>
<path d="M0 0 C3.76993827 3.57574962 6.85099636 7.35016475 9.8125 11.625 C10.68055013 12.85968408 11.54904625 14.09405471 12.41796875 15.328125 C12.84770996 15.94107422 13.27745117 16.55402344 13.72021484 17.18554688 C15.66033739 19.9362128 17.64162507 22.65534557 19.625 25.375 C20.27726562 26.26960938 20.92953125 27.16421875 21.6015625 28.0859375 C22.06304687 28.71757812 22.52453125 29.34921875 23 30 C20.09978906 35.33555553 16.81373904 40.11983956 13.125 44.9375 C12.62097656 45.60201172 12.11695313 46.26652344 11.59765625 46.95117188 C10.58512537 48.28610709 9.57114332 49.61994295 8.55566406 50.95263672 C6.02040481 54.28921615 3.51026707 57.64459851 1 61 C-4.19659178 56.33716668 -7.85648947 50.69524438 -11.75 44.9375 C-12.43449219 43.94427734 -13.11898437 42.95105469 -13.82421875 41.92773438 C-14.47519531 40.97060547 -15.12617187 40.01347656 -15.796875 39.02734375 C-16.38823242 38.15843506 -16.97958984 37.28952637 -17.58886719 36.39428711 C-18.91324697 34.14719498 -19.739644 32.5852719 -20 30 C-18.66319444 27.38647003 -17.29817688 25.06051575 -15.6875 22.625 C-15.01485107 21.57892578 -15.01485107 21.57892578 -14.32861328 20.51171875 C-9.78303516 13.51219295 -4.93908193 6.72555838 0 0 Z " fill="#2980F4" transform="translate(79,180)"/>
<path d="M0 0 C3.33794502 1.39943502 4.95618291 2.90196825 7.0234375 5.8515625 C7.57 6.62113281 8.1165625 7.39070312 8.6796875 8.18359375 C9.23914063 8.98925781 9.79859375 9.79492188 10.375 10.625 C11.48626576 12.2010241 12.59824088 13.77654828 13.7109375 15.3515625 C14.24944336 16.12790039 14.78794922 16.90423828 15.34277344 17.70410156 C16.45089474 19.23927728 17.61208112 20.73745109 18.82128906 22.19433594 C20.38031946 24.08130337 21.80192987 25.86555828 23 28 C22.43009109 32.40205502 19.16303979 35.58774361 16.4375 39 C11.3284481 45.4761702 6.62671948 52.17167729 2 59 C-1.65443915 55.48235804 -4.87277563 51.7968538 -7.9375 47.75 C-8.3691748 47.18079834 -8.80084961 46.61159668 -9.24560547 46.02514648 C-10.50395309 44.35511723 -11.75303973 42.67854108 -13 41 C-13.98033203 39.69482422 -13.98033203 39.69482422 -14.98046875 38.36328125 C-15.52316406 37.60402344 -16.06585938 36.84476563 -16.625 36.0625 C-17.09164062 35.41410156 -17.55828125 34.76570313 -18.0390625 34.09765625 C-19.44987125 31.01796398 -19.54475754 29.38470677 -19 26 C-17.23820136 22.82655734 -15.08278247 19.99991674 -12.875 17.125 C-12.30523437 16.36058594 -11.73546875 15.59617188 -11.1484375 14.80859375 C-9.44539743 12.52884238 -7.72382647 10.26405699 -6 8 C-4.85546918 6.47754017 -3.71215817 4.95416223 -2.5703125 3.4296875 C-1.8280542 2.4394458 -1.8280542 2.4394458 -1.07080078 1.42919922 C-0.71743652 0.95756348 -0.36407227 0.48592773 0 0 Z " fill="#2982F4" transform="translate(103,147)"/>
<path d="M0 0 C4.95 0 9.9 0 15 0 C15.33 4.95 15.66 9.9 16 15 C18.64 15.33 21.28 15.66 24 16 C24 19.63 24 23.26 24 27 C21.03 27 18.06 27 15 27 C15.33 32.94 15.66 38.88 16 45 C18.97 44.505 18.97 44.505 22 44 C22.50757862 45.41396902 23.00574925 46.83131729 23.5 48.25 C23.91765625 49.43335938 23.91765625 49.43335938 24.34375 50.640625 C25 53 25 53 25 57 C18.76000279 59.55999886 12.96542022 60.09830378 6.625 57.75 C2.91743612 55.27829075 1.40047056 53.20141168 0 49 C-0.14715199 47.37432921 -0.24721867 45.74413143 -0.31640625 44.11328125 C-0.35830078 43.17548828 -0.40019531 42.23769531 -0.44335938 41.27148438 C-0.48267578 40.29501953 -0.52199219 39.31855469 -0.5625 38.3125 C-0.60568359 37.32443359 -0.64886719 36.33636719 -0.69335938 35.31835938 C-0.79941654 32.87904454 -0.90147714 30.43962887 -1 28 C-2.65 27.67 -4.3 27.34 -6 27 C-6 23.37 -6 19.74 -6 16 C-4.35 15.67 -2.7 15.34 -1 15 C-0.67 10.05 -0.34 5.1 0 0 Z " fill="#4885F6" transform="translate(472,149)"/>
<path d="M0 0 C0.87890625 1.84375 0.87890625 1.84375 1 4 C0.22265625 6.140625 0.22265625 6.140625 -0.9375 8.25 C-1.50791016 9.30960938 -1.50791016 9.30960938 -2.08984375 10.390625 C-2.39019531 10.92171875 -2.69054687 11.4528125 -3 12 C-3.66386719 11.89300781 -4.32773437 11.78601563 -5.01171875 11.67578125 C-10.65691097 10.85620128 -10.65691097 10.85620128 -16.0625 12.3125 C-18.77700772 14.67674866 -18.9633815 15.67653662 -19.375 19.3125 C-19.29445692 23.08956386 -19.29445692 23.08956386 -16.9375 25.9375 C-13.28981513 28.49864044 -11.37459739 28.47722881 -7 28 C-5.66247608 27.68390087 -4.3278664 27.35448512 -3 27 C-2.32332002 28.24460783 -1.65905281 29.49596896 -1 30.75 C-0.62875 31.44609375 -0.2575 32.1421875 0.125 32.859375 C1 35 1 35 1 39 C-7.16696172 42.243616 -14.69292954 43.65093702 -23.015625 40.10546875 C-28.11181087 37.26645182 -31.94789408 33.70967213 -35 28.75 C-36.71689075 22.3116597 -37.19885019 15.90053793 -34.4375 9.6875 C-30.63617943 3.20133063 -25.36262663 -0.49506542 -18.1875 -2.53125 C-12.04478673 -3.8475457 -5.51235006 -3.17019274 0 0 Z " fill="#4685F9" transform="translate(589,166)"/>
<path d="M0 0 C4.14402667 -0.19906641 8.28546488 -0.3435041 12.43286133 -0.43945312 C13.84058131 -0.47947543 15.24797305 -0.53391768 16.65454102 -0.60351562 C28.25958439 -1.16299308 28.25958439 -1.16299308 32.34667969 1.56811523 C34.16521329 3.61310122 35.58270455 5.66225176 37 8 C37.89108967 9.20468865 38.78913829 10.40427288 39.6953125 11.59765625 C40.50970401 12.74943853 41.3196782 13.90435806 42.125 15.0625 C42.52847656 15.63548828 42.93195313 16.20847656 43.34765625 16.79882812 C44.15551031 17.94608413 44.96057983 19.09530653 45.76269531 20.24658203 C46.63390416 21.48119568 47.52013213 22.7052791 48.41699219 23.92138672 C52 28.79412606 52 28.79412606 52 31 C25.41189266 33.1983625 25.41189266 33.1983625 18.72753906 29.86767578 C15.40506348 26.88942064 13.72724853 23.12539739 12.00292969 19.07568359 C10.16491179 15.27168452 7.45991169 12.07038641 4.875 8.75 C0 2.31793209 0 2.31793209 0 0 Z " fill="#433EED" transform="translate(83,110)"/>
<path d="M0 0 C1.42244981 0.03513621 2.84498253 0.06707124 4.26757812 0.09570312 C7.74261532 0.17260449 11.21453174 0.29325531 14.6875 0.4375 C14.6875 4.00480526 13.96906971 4.77155581 11.87109375 7.5703125 C11.27103516 8.37726563 10.67097656 9.18421875 10.05273438 10.015625 C9.09850586 11.27632812 9.09850586 11.27632812 8.125 12.5625 C7.51591797 13.37976563 6.90683594 14.19703125 6.27929688 15.0390625 C5.04232017 16.69360065 3.78802124 18.33531983 2.51733398 19.96411133 C0.64427273 22.3936045 0.64427273 22.3936045 -0.79663086 25.04174805 C-2.45026164 27.7447113 -3.76873636 29.53276137 -6.3125 31.4375 C-11.50392693 32.52503361 -16.49953128 32.29227139 -21.75 32 C-23.16328374 31.95479695 -24.5767066 31.91374245 -25.99023438 31.87695312 C-29.43390651 31.7783489 -32.87230825 31.62341336 -36.3125 31.4375 C-35.02117757 27.87865131 -33.49997018 25.06349653 -31.23046875 22.0390625 C-30.62783203 21.22953125 -30.02519531 20.42 -29.40429688 19.5859375 C-28.77587891 18.75320312 -28.14746094 17.92046875 -27.5 17.0625 C-26.26388569 15.40918097 -25.0282014 13.75554034 -23.79296875 12.1015625 C-22.87849976 10.91977417 -22.87849976 10.91977417 -21.94555664 9.71411133 C-20.28284025 7.53672145 -20.28284025 7.53672145 -19.28686523 5.29174805 C-15.54615088 -2.17172827 -7.21052908 -0.3083696 0 0 Z " fill="#2A7EF5" transform="translate(119.3125,211.5625)"/>
<path d="M0 0 C1.46604895 0.04016572 2.93220334 0.07666116 4.3984375 0.109375 C7.97616254 0.19716433 11.5499086 0.33498602 15.125 0.5 C11.9331666 6.40608575 8.18266102 11.73637396 4.1875 17.125 C3.57970703 17.95773438 2.97191406 18.79046875 2.34570312 19.6484375 C1.44948242 20.86273438 1.44948242 20.86273438 0.53515625 22.1015625 C0.00027588 22.82682129 -0.53460449 23.55208008 -1.08569336 24.29931641 C-6.78451589 31.30834715 -6.78451589 31.30834715 -11.10473633 32.06762695 C-12.29349365 32.04144287 -13.48225098 32.01525879 -14.70703125 31.98828125 C-15.99931641 31.97216797 -17.29160156 31.95605469 -18.62304688 31.93945312 C-19.97788157 31.89768274 -21.33269928 31.85535809 -22.6875 31.8125 C-24.06180866 31.78740069 -25.43616116 31.76459036 -26.81054688 31.74414062 C-30.16647976 31.68526461 -33.5201809 31.6030642 -36.875 31.5 C-35.61978703 28.08315544 -34.1960999 25.28918169 -32.046875 22.35546875 C-31.49386719 21.59556641 -30.94085938 20.83566406 -30.37109375 20.05273438 C-29.79488281 19.27220703 -29.21867187 18.49167969 -28.625 17.6875 C-27.78388672 16.53411133 -27.78388672 16.53411133 -26.92578125 15.35742188 C-25.79831953 13.81464804 -24.65447637 12.28371332 -23.49462891 10.76513672 C-21.83211079 8.55626941 -21.83211079 8.55626941 -20.67333984 6.16064453 C-16.15496434 -1.94727938 -8.17884 -0.38876997 0 0 Z " fill="#2A7EF5" transform="translate(143.875,177.5)"/>
<path d="M0 0 C4.29989435 -0.05420035 8.59577965 -0.05836674 12.89550781 -0.01220703 C14.88609427 -0.00066071 16.876796 -0.0284363 18.8671875 -0.05859375 C27.59279382 0.08214184 27.59279382 0.08214184 31.078125 2.35546875 C32.98806091 4.44836582 34.45994221 6.61959104 36 9 C36.81387245 10.1257777 37.63471488 11.24653599 38.4609375 12.36328125 C42.91101435 18.41063246 47.13548373 24.55913955 51 31 C43.19960246 34.90019877 28.26813683 33.01570557 20 31 C14.60119844 27.81899533 11.87575737 22.63358311 9.13671875 17.16992188 C7.32902596 13.71915436 5.03026908 10.64894301 2.75 7.5 C1.49669228 5.66892631 0.2453121 3.83652087 -1 2 C-0.67 1.34 -0.34 0.68 0 0 Z " fill="#443DEE" transform="translate(108,143)"/>
<path d="M0 0 C4.62 0 9.24 0 14 0 C14.79101875 4.74611248 15.12867104 8.75531594 15.1328125 13.515625 C15.13376923 14.21266541 15.13472595 14.90970581 15.13571167 15.62786865 C15.13638817 17.09012951 15.13457112 18.55239346 15.13037109 20.01464844 C15.12498263 22.25722919 15.13035058 24.49961263 15.13671875 26.7421875 C15.13605851 28.16666711 15.13477847 29.59114659 15.1328125 31.015625 C15.13168457 32.30758789 15.13055664 33.59955078 15.12939453 34.93066406 C15 38 15 38 14 40 C15.23121385 38.93987294 16.45985685 37.87675995 17.6875 36.8125 C18.37199219 36.22082031 19.05648437 35.62914062 19.76171875 35.01953125 C22.11757842 33.0106077 22.11757842 33.0106077 24.125 30.28125 C28.36959825 26.91325356 32.06410209 27.44640752 37.3125 27.6875 C38.70952148 27.72133789 38.70952148 27.72133789 40.13476562 27.75585938 C42.4248396 27.81457922 44.71157875 27.89663142 47 28 C43.66883385 31.95374187 40.31571444 35.81041857 36.625 39.4375 C35.93664062 40.11683594 35.24828125 40.79617187 34.5390625 41.49609375 C34.03117188 41.99238281 33.52328125 42.48867187 33 43 C32.67 42.01 32.34 41.02 32 40 C30.515 40.495 30.515 40.495 29 41 C28.67 40.34 28.34 39.68 28 39 C25.97536745 38.34786708 25.97536745 38.34786708 24 38 C24.33 37.34 24.66 36.68 25 36 C23.16531168 36.05563651 23.16531168 36.05563651 21 37 C19.30911778 38.97956942 17.64169528 40.97945196 16 43 C14.515 43.495 14.515 43.495 13 44 C13 29.81 13 15.62 13 1 C8.71 1.66 4.42 2.32 0 3 C0 2.01 0 1.02 0 0 Z " fill="#4885F6" transform="translate(596,137)"/>
<path d="M0 0 C3.76993827 3.57574962 6.85099636 7.35016475 9.8125 11.625 C10.68055013 12.85968408 11.54904625 14.09405471 12.41796875 15.328125 C12.84770996 15.94107422 13.27745117 16.55402344 13.72021484 17.18554688 C15.66033739 19.9362128 17.64162507 22.65534557 19.625 25.375 C20.27726562 26.26960938 20.92953125 27.16421875 21.6015625 28.0859375 C22.06304687 28.71757812 22.52453125 29.34921875 23 30 C20.08785803 35.3762621 16.75648099 40.17918273 13 45 C12.3828125 43.1796875 12.3828125 43.1796875 12 41 C13.31306433 38.9866347 14.64837492 36.98768394 16 35 C17.14570971 30.89060968 17.14570971 30.89060968 16 27 C13.03 27.495 13.03 27.495 10 28 C9.34 25.36 8.68 22.72 8 20 C8.66 20 9.32 20 10 20 C9.319375 18.9171875 9.319375 18.9171875 8.625 17.8125 C7 15 7 15 6.0625 12.25 C5.22545065 9.80524198 5.22545065 9.80524198 2.875 9.1875 C2.25625 9.125625 1.6375 9.06375 1 9 C0.67 10.32 0.34 11.64 0 13 C-0.66 12.34 -1.32 11.68 -2 11 C-2.99 11.495 -2.99 11.495 -4 12 C-4.66 11.67 -5.32 11.34 -6 11 C-6.061875 11.721875 -6.12375 12.44375 -6.1875 13.1875 C-7.25632367 16.88727425 -9.25445957 18.31685822 -12 21 C-15.49116176 25.56027091 -17.74326483 29.05388136 -17 35 C-19 34 -19 34 -19.73364258 32.14990234 C-20.19702506 28.40971339 -17.67435203 25.62933281 -15.6875 22.625 C-15.01485107 21.57892578 -15.01485107 21.57892578 -14.32861328 20.51171875 C-9.78303516 13.51219295 -4.93908193 6.72555838 0 0 Z " fill="#3961E9" transform="translate(79,180)"/>
<path d="M0 0 C7.75 0.75 7.75 0.75 10 3 C9.625 5.625 9.625 5.625 9 8 C10.2375 7.95875 11.475 7.9175 12.75 7.875 C16.01637962 7.86341709 18.2146947 8.1431298 21 10 C21 9.34 21 8.68 21 8 C21.99 8 22.98 8 24 8 C24 8.66 24 9.32 24 10 C24.66 10 25.32 10 26 10 C25.83423117 16.46498449 21.99651306 20.30435802 18 25 C13.21848613 20.64170864 9.78594167 15.60152863 6.1875 10.25 C5.2912793 8.93708984 5.2912793 8.93708984 4.37695312 7.59765625 C0 1.14477679 0 1.14477679 0 0 Z " fill="#24A1F2" transform="translate(62,216)"/>
<path d="M0 0 C9.73944972 -0.12276617 19.29056184 0.16220564 29 1 C29 1.33 29 1.66 29 2 C28.14535156 2.04898438 27.29070312 2.09796875 26.41015625 2.1484375 C25.30542969 2.22320312 24.20070312 2.29796875 23.0625 2.375 C21.96035156 2.44460937 20.85820312 2.51421875 19.72265625 2.5859375 C18.37494141 2.79089844 18.37494141 2.79089844 17 3 C16.67 3.66 16.34 4.32 16 5 C14.35 5 12.7 5 11 5 C10.67 6.32 10.34 7.64 10 9 C10.66 9.33 11.32 9.66 12 10 C11.34 11.32 10.68 12.64 10 14 C10.99 14.78375 11.98 15.5675 13 16.375 C14.485 17.674375 14.485 17.674375 16 19 C16 19.66 16 20.32 16 21 C17.32 21 18.64 21 20 21 C20 22.32 20 23.64 20 25 C20.99 25 21.98 25 23 25 C24.68236471 25.62599617 26.3523962 26.28752268 28 27 C28 27.66 28 28.32 28 29 C31.96 29.33 35.92 29.66 40 30 C40 30.33 40 30.66 40 31 C23.43042048 33.35772673 23.43042048 33.35772673 18.02001953 29.63916016 C14.42567026 25.95827453 11.83057462 21.62978745 9.28173828 17.18603516 C7.30492445 13.81453211 5.01837131 10.67877851 2.75 7.5 C1.49669228 5.66892631 0.2453121 3.83652087 -1 2 C-0.67 1.34 -0.34 0.68 0 0 Z " fill="#4940EB" transform="translate(108,143)"/>
<path d="M0 0 C3.33794502 1.39943502 4.95618291 2.90196825 7.0234375 5.8515625 C7.57 6.62113281 8.1165625 7.39070312 8.6796875 8.18359375 C9.23914063 8.98925781 9.79859375 9.79492188 10.375 10.625 C11.48626576 12.2010241 12.59824088 13.77654828 13.7109375 15.3515625 C14.25161865 16.12483887 14.7922998 16.89811523 15.34936523 17.69482422 C17.46003671 20.64245919 19.68979509 23.48982288 21.95092773 26.32324219 C23 28 23 28 22.6875 30.625 C20.59498344 33.57002331 18.39358016 36.29147508 16 39 C15.34 37.68 14.68 36.36 14 35 C14.99 34.01 15.98 33.02 17 32 C16.34 31.67 15.68 31.34 15 31 C15.45375 30.195625 15.9075 29.39125 16.375 28.5625 C17.11575354 24.34020483 16.55210796 23.69204064 14.25 20.25 C12.59872206 17.9814219 10.9849772 15.9849772 9 14 C8.67 13.34 8.34 12.68 8 12 C6.02 12.33 4.04 12.66 2 13 C2 12.34 2 11.68 2 11 C1.34 11 0.68 11 0 11 C0 11.66 0 12.32 0 13 C-0.7425 12.9175 -1.485 12.835 -2.25 12.75 C-5.81441057 13.07403732 -6.64861027 14.4134713 -9 17 C-9.99 17.33 -10.98 17.66 -12 18 C-10.46906512 13.32800909 -7.89242605 9.97829995 -4.875 6.1875 C-4.40707031 5.59001953 -3.93914062 4.99253906 -3.45703125 4.37695312 C-2.30994435 2.91383208 -1.15568766 1.45633703 0 0 Z " fill="#3957F0" transform="translate(103,147)"/>
<path d="M0 0 C1.86168823 0.0314209 1.86168823 0.0314209 3.76098633 0.06347656 C4.42262283 0.06913635 5.08425934 0.07479614 5.76594543 0.08062744 C7.8757109 0.10298909 9.9837671 0.15317785 12.09301758 0.20410156 C13.52463364 0.22416717 14.95627638 0.24241784 16.38793945 0.25878906 C19.89435272 0.30285088 23.3997683 0.37187379 26.90551758 0.45410156 C26.90551758 3.93100905 26.33879462 4.56702208 24.28051758 7.24707031 C23.73911133 7.95927734 23.19770508 8.67148438 22.63989258 9.40527344 C22.06754883 10.14326172 21.49520508 10.88125 20.90551758 11.64160156 C20.33317383 12.39119141 19.76083008 13.14078125 19.17114258 13.91308594 C17.75559508 15.76509391 16.33357954 17.61173706 14.90551758 19.45410156 C12.59657957 15.40240192 13.03604478 13.03859449 13.90551758 8.45410156 C14.09114258 7.31972656 14.27676758 6.18535156 14.46801758 5.01660156 C14.61239258 4.17097656 14.75676758 3.32535156 14.90551758 2.45410156 C11.83144673 2.52499209 8.89446034 2.70420667 5.90551758 3.45410156 C3.89687399 5.82679897 3.89687399 5.82679897 2.90551758 8.45410156 C1.91551758 8.94910156 1.91551758 8.94910156 0.90551758 9.45410156 C0.57551758 8.79410156 0.24551758 8.13410156 -0.09448242 7.45410156 C-1.08448242 7.45410156 -2.07448242 7.45410156 -3.09448242 7.45410156 C-3.09448242 6.79410156 -3.09448242 6.13410156 -3.09448242 5.45410156 C-4.08448242 5.12410156 -5.07448242 4.79410156 -6.09448242 4.45410156 C-4.37603045 1.28579139 -3.64384508 0.53471809 0 0 Z " fill="#3C55F2" transform="translate(107.094482421875,211.5458984375)"/>
<path d="M0 0 C3.69530976 3.55648774 6.94935174 7.29470676 10.0625 11.375 C10.69381836 12.18324219 10.69381836 12.18324219 11.33789062 13.0078125 C14.27343825 16.83085127 16.68319487 20.77303452 19 25 C16.6875 25.1875 16.6875 25.1875 14 25 C12.3125 23.5625 12.3125 23.5625 11 22 C10.34 21.67 9.68 21.34 9 21 C9 19.35 9 17.7 9 16 C5.59679066 15.32326553 5.59679066 15.32326553 2 15 C1.34 15.66 0.68 16.32 0 17 C-0.99 17 -1.98 17 -3 17 C-3 16.34 -3 15.68 -3 15 C-5.31 15.33 -7.62 15.66 -10 16 C-6.99935973 10.36901124 -3.81213639 5.11915459 0 0 Z " fill="#385CE5" transform="translate(79,112)"/>
<path d="M0 0 C10.23 0 20.46 0 31 0 C26.5 7.875 26.5 7.875 23.765625 11.62109375 C23.19199219 12.41064453 22.61835938 13.20019531 22.02734375 14.01367188 C21.44082031 14.81353516 20.85429687 15.61339844 20.25 16.4375 C19.64800781 17.26443359 19.04601562 18.09136719 18.42578125 18.94335938 C16.95367999 20.96457777 15.47837394 22.98336762 14 25 C13.67 23.68 13.34 22.36 13 21 C13.66 21 14.32 21 15 21 C14.938125 20.236875 14.87625 19.47375 14.8125 18.6875 C15 16 15 16 16.5 14.625 C18.39868105 12.91592237 18.39868105 12.91592237 18.1875 9.3125 C18.125625 8.219375 18.06375 7.12625 18 6 C19.32 5.67 20.64 5.34 22 5 C22 3.68 22 2.36 22 1 C17.80800964 2.12673954 17.80800964 2.12673954 14.375 4.625 C13.92125 5.07875 13.4675 5.5325 13 6 C11.68 6 10.36 6 9 6 C8.34 4.68 7.68 3.36 7 2 C6.071875 2.515625 5.14375 3.03125 4.1875 3.5625 C1 5 1 5 -2 4 C-1.34 2.68 -0.68 1.36 0 0 Z " fill="#395EEA" transform="translate(128,178)"/>
<path d="M0 0 C2.475 0.495 2.475 0.495 5 1 C4.67 1.99 4.34 2.98 4 4 C3.34 4 2.68 4 2 4 C1.67 25.12 1.34 46.24 1 68 C4.96 68 8.92 68 13 68 C12.95875 66.22625 12.9175 64.4525 12.875 62.625 C12.8046875 59.6015625 12.8046875 59.6015625 13 57 C13.66 56.34 14.32 55.68 15 55 C15 59.95 15 64.9 15 70 C10.05 70 5.1 70 0 70 C0 46.9 0 23.8 0 0 Z " fill="#5183E0" transform="translate(342,137)"/>
<path d="M0 0 C3.19198948 2.01942192 5.58310948 4.09349323 8.0625 6.9375 C8.0625 7.5975 8.0625 8.2575 8.0625 8.9375 C1.7925 8.9375 -4.4775 8.9375 -10.9375 8.9375 C-11.2675 7.6175 -11.5975 6.2975 -11.9375 4.9375 C-11.298125 4.834375 -10.65875 4.73125 -10 4.625 C-9.319375 4.398125 -8.63875 4.17125 -7.9375 3.9375 C-7.6075 2.9475 -7.2775 1.9575 -6.9375 0.9375 C-4.22078059 -1.27612322 -3.33085984 -1.20477909 0 0 Z " fill="#4384FC" transform="translate(382.9375,198.0625)"/>
<path d="M0 0 C0.33 0.66 0.66 1.32 1 2 C1.66 2 2.32 2 3 2 C3.33 1.34 3.66 0.68 4 0 C4.33 0.33 4.66 0.66 5 1 C5.99 1 6.98 1 8 1 C6.08797357 5.78006608 3.97233765 9.79772953 1 14 C-2.59476701 10.50794062 -5.92026191 6.95966325 -9 3 C-9 2.34 -9 1.68 -9 1 C-4.545 0.505 -4.545 0.505 0 0 Z " fill="#1DA3F8" transform="translate(104,192)"/>
<path d="M0 0 C4.14402667 -0.19906641 8.28546488 -0.3435041 12.43286133 -0.43945312 C13.84058131 -0.47947543 15.24797305 -0.53391768 16.65454102 -0.60351562 C28.26914955 -1.16345421 28.26914955 -1.16345421 32.38842773 1.60546875 C34.2059664 3.64192664 35.61368036 5.65264496 37 8 C37.73089844 9.051875 38.46179688 10.10375 39.21484375 11.1875 C39.78332031 12.115625 40.35179687 13.04375 40.9375 14 C41.81728516 15.423125 41.81728516 15.423125 42.71484375 16.875 C43.13894531 17.57625 43.56304687 18.2775 44 19 C41 20 41 20 38 19 C37.8453125 17.3603125 37.8453125 17.3603125 37.6875 15.6875 C37.27914102 12.13416569 37.27914102 12.13416569 35.6875 10.0625 C33.76820011 8.64479115 33.76820011 8.64479115 30 9 C29.67 9 29.34 9 29 9 C29 7.02 29 5.04 29 3 C23.35652914 2.08877472 17.77002113 1.70225954 12.0625 1.4375 C10.75055664 1.37272461 10.75055664 1.37272461 9.41210938 1.30664062 C7.27488005 1.20153099 5.13745762 1.10036015 3 1 C3.66 2.98 4.32 4.96 5 7 C3.29115995 5.37660195 1.62553283 3.70680947 0 2 C0 1.34 0 0.68 0 0 Z " fill="#4827D9" transform="translate(83,110)"/>
<path d="M0 0 C4.62 0 9.24 0 14 0 C14.79101875 4.74611248 15.12867104 8.75531594 15.1328125 13.515625 C15.13376923 14.21266541 15.13472595 14.90970581 15.13571167 15.62786865 C15.13638817 17.09012951 15.13457112 18.55239346 15.13037109 20.01464844 C15.12498263 22.25722919 15.13035058 24.49961263 15.13671875 26.7421875 C15.13605851 28.16666711 15.13477847 29.59114659 15.1328125 31.015625 C15.13168457 32.30758789 15.13055664 33.59955078 15.12939453 34.93066406 C15 38 15 38 14 40 C16.64 37.69 19.28 35.38 22 33 C22 36.52232517 21.43268519 37.05751328 19.1875 39.625 C18.66542969 40.23601562 18.14335938 40.84703125 17.60546875 41.4765625 C16 43 16 43 13 44 C13 29.81 13 15.62 13 1 C8.71 1.66 4.42 2.32 0 3 C0 2.01 0 1.02 0 0 Z " fill="#3DA8EF" transform="translate(596,137)"/>
<path d="M0 0 C3.28472037 0.24219136 4.11246235 1.12471072 6.3671875 3.625 C7.21435455 4.74156818 8.04978438 5.86711179 8.875 7 C9.31118652 7.58289795 9.74737305 8.1657959 10.19677734 8.76635742 C13.63425122 13.39695672 16.90597685 18.13257333 20 23 C18.68 24.65 17.36 26.3 16 28 C14.31522047 25.67773633 12.64971248 23.3469124 11 21 C10.401875 20.154375 9.80375 19.30875 9.1875 18.4375 C7.7378814 15.46196708 7.92885392 13.27271988 8 10 C6.36526484 6.87525373 6.36526484 6.87525373 3.875 6.3125 C3.25625 6.209375 2.6375 6.10625 2 6 C2.33 5.01 2.66 4.02 3 3 C2.34 3 1.68 3 1 3 C0.67 2.01 0.34 1.02 0 0 Z " fill="#4833EF" transform="translate(135,145)"/>
<path d="M0 0 C0.66 0 1.32 0 2 0 C3.68732277 1.98260426 5.35366057 3.9832342 7 6 C7.66 6.33 8.32 6.66 9 7 C9 7.66 9 8.32 9 9 C10.32 9 11.64 9 13 9 C13 10.32 13 11.64 13 13 C13.99 13 14.98 13 16 13 C17.68236471 13.62599617 19.3523962 14.28752268 21 15 C21 15.66 21 16.32 21 17 C24.96 17.33 28.92 17.66 33 18 C33 18.33 33 18.66 33 19 C16.29385596 21.37715884 16.29385596 21.37715884 10.89111328 17.47802734 C6.14361929 12.52819343 2.17341315 6.52023946 0 0 Z " fill="#4257D8" transform="translate(115,155)"/>
<path d="M0 0 C0.33 1.32 0.66 2.64 1 4 C4.63 4 8.26 4 12 4 C11.67 5.65 11.34 7.3 11 9 C11.33 9.99 11.66 10.98 12 12 C12.06740865 13.56118428 12.08514456 15.1250252 12.0625 16.6875 C12.05347656 17.49574219 12.04445313 18.30398437 12.03515625 19.13671875 C12.02355469 19.75160156 12.01195313 20.36648437 12 21 C8.76254329 17.95941565 6.24829518 14.73129274 3.75 11.0625 C3.04359375 10.04285156 2.3371875 9.02320313 1.609375 7.97265625 C-0.03644654 4.93268006 -0.37391326 3.38391498 0 0 Z " fill="#2EA1E7" transform="translate(60,140)"/>
<path d="M0 0 C9 0 9 0 11 1 C8.36 4.63 5.72 8.26 3 12 C-0.74392306 10.12803847 -1.60045413 9.59931881 -3.75 6.375 C-4.17796875 5.74335938 -4.6059375 5.11171875 -5.046875 4.4609375 C-5.36140625 3.97882813 -5.6759375 3.49671875 -6 3 C-5.67 2.34 -5.34 1.68 -5 1 C-3.68 1.66 -2.36 2.32 -1 3 C-0.67 2.01 -0.34 1.02 0 0 Z " fill="#1AAAF7" transform="translate(78,160)"/>
<path d="M0 0 C5 6.66666667 5 6.66666667 5 12 C-1.24273068 14.4793824 -6.28299653 15.31985731 -13 15 C-11.68 14.67 -10.36 14.34 -9 14 C-9 13.01 -9 12.02 -9 11 C-9.99 11.33 -10.98 11.66 -12 12 C-11.67 11.01 -11.34 10.02 -11 9 C-8 10 -8 10 -7 12 C-4.69 12 -2.38 12 0 12 C-0.185625 11.05125 -0.37125 10.1025 -0.5625 9.125 C-1 6 -1 6 0 4 C-2.97 4 -5.94 4 -9 4 C-9.33 3.34 -9.66 2.68 -10 2 C-6.7 1.34 -3.4 0.68 0 0 Z " fill="#4986EB" transform="translate(585,193)"/>
<path d="M0 0 C2.64 0.33 5.28 0.66 8 1 C9.06414547 4.19243642 8.81907375 4.92847342 8 8 C11.74908149 11.74908149 23.10402555 10.05639093 28.27954102 10.06811523 C31.85327336 10.05999231 35.42643174 10.03573568 39 10 C39 10.66 39 11.32 39 12 C34.73208708 12.27402638 30.46894004 12.47239009 26.19482422 12.60424805 C24.74502363 12.65924048 23.29582427 12.73407754 21.84814453 12.82983398 C17.08246402 13.13692642 12.67315128 13.184283 8 12 C4.3768667 8.7967284 2.08173893 5.34708518 0 1 C0 0.67 0 0.34 0 0 Z " fill="#4759CC" transform="translate(96,129)"/>
<path d="M0 0 C0.99 0 1.98 0 3 0 C3 13.2 3 26.4 3 40 C2.34 40 1.68 40 1 40 C0.67 26.8 0.34 13.6 0 0 Z " fill="#5482DD" transform="translate(354,137)"/>
<path d="M0 0 C1 2 1 2 0.3125 4.5 C-1.15567038 7.29651501 -2.09303901 7.93411431 -5 9 C-4.37189827 11.97017694 -4.37189827 11.97017694 -3 15 C-0.49004504 16.43923199 -0.49004504 16.43923199 2 17 C2 17.66 2 18.32 2 19 C2.99 19 3.98 19 5 19 C6.07637127 22.87493656 5.94566951 24.52452927 4 28 C2.31514481 25.80367091 0.65286789 23.59520363 -1 21.375 C-1.47695312 20.75753906 -1.95390625 20.14007813 -2.4453125 19.50390625 C-4.65461387 16.50556868 -5.91434213 14.54606894 -6.5 10.8125 C-5.93440308 7.63101732 -5.04723132 6.09873784 -3 3.625 C-2.443125 2.93664062 -1.88625 2.24828125 -1.3125 1.5390625 C-0.879375 1.03117188 -0.44625 0.52328125 0 0 Z " fill="#24A3EE" transform="translate(90,165)"/>
<path d="M0 0 C9.9 0 19.8 0 30 0 C30 3.47690749 29.43327704 4.11292052 27.375 6.79296875 C26.83359375 7.50517578 26.2921875 8.21738281 25.734375 8.95117188 C25.16203125 9.68916016 24.5896875 10.42714844 24 11.1875 C23.42765625 11.93708984 22.8553125 12.68667969 22.265625 13.45898438 C20.85007751 15.31099235 19.42806196 17.15763549 18 19 C17.67 18.01 17.34 17.02 17 16 C17.66 16 18.32 16 19 16 C19.144375 15.236875 19.28875 14.47375 19.4375 13.6875 C20 11 20 11 21 8 C21.66 7.67 22.32 7.34 23 7 C22.67 6.34 22.34 5.68 22 5 C23.65 5 25.3 5 27 5 C27 4.01 27 3.02 27 2 C18.09 1.67 9.18 1.34 0 1 C0 0.67 0 0.34 0 0 Z " fill="#445DD1" transform="translate(104,212)"/>
<path d="M0 0 C1.65 1.65 3.3 3.3 5 5 C4.67 5.66 4.34 6.32 4 7 C3.34 6.34 2.68 5.68 2 5 C1.01 5 0.02 5 -1 5 C-1.103125 5.61875 -1.20625 6.2375 -1.3125 6.875 C-2 9 -2 9 -5 11 C-5.28875 11.763125 -5.5775 12.52625 -5.875 13.3125 C-7.29117087 16.69557485 -9.41019779 18.41019779 -12 21 C-15.48679249 25.56694017 -17.74393634 29.04850929 -17 35 C-19 34 -19 34 -19.73364258 32.14990234 C-20.19702506 28.40971339 -17.67435203 25.62933281 -15.6875 22.625 C-15.01485107 21.57892578 -15.01485107 21.57892578 -14.32861328 20.51171875 C-9.78303516 13.51219295 -4.93908193 6.72555838 0 0 Z " fill="#3F78D6" transform="translate(79,180)"/>
<path d="M0 0 C0.78375 0.474375 1.5675 0.94875 2.375 1.4375 C2.375 0.7775 2.375 0.1175 2.375 -0.5625 C3.035 -0.2325 3.695 0.0975 4.375 0.4375 C4.045 1.0975 3.715 1.7575 3.375 2.4375 C-2.235 2.4375 -7.845 2.4375 -13.625 2.4375 C-13.955 1.4475 -14.285 0.4575 -14.625 -0.5625 C-15.285 -0.5625 -15.945 -0.5625 -16.625 -0.5625 C-16.955 0.4275 -17.285 1.4175 -17.625 2.4375 C-18.945 1.7775 -20.265 1.1175 -21.625 0.4375 C-13.98863985 -3.09785192 -7.81005299 -3.36640215 0 0 Z " fill="#4D84F4" transform="translate(529.625,165.5625)"/>
<path d="M0 0 C0.33 1.32 0.66 2.64 1 4 C0.01 4.33 -0.98 4.66 -2 5 C-2 5.66 -2 6.32 -2 7 C-1.35973877 6.99476318 -0.71947754 6.98952637 -0.05981445 6.98413086 C2.85594695 6.96327571 5.77169262 6.95031271 8.6875 6.9375 C10.19860352 6.92493164 10.19860352 6.92493164 11.74023438 6.91210938 C12.71669922 6.90888672 13.69316406 6.90566406 14.69921875 6.90234375 C16.04246216 6.89448853 16.04246216 6.89448853 17.4128418 6.88647461 C20.03641759 7.00159802 22.44293053 7.41765715 25 8 C25 8.33 25 8.66 25 9 C15.1 9 5.2 9 -5 9 C-3.47426795 5.18566987 -2.47253678 3.03447696 0 0 Z " fill="#41A1DE" transform="translate(88,234)"/>
<path d="M0 0 C1 1 2 2 3 3 C3.99 3.33 4.98 3.66 6 4 C5.67 4.99 5.34 5.98 5 7 C4.34 7 3.68 7 3 7 C3 6.34 3 5.68 3 5 C2.34 5 1.68 5 1 5 C1 5.66 1 6.32 1 7 C0.2575 6.9175 -0.485 6.835 -1.25 6.75 C-4.81441057 7.07403732 -5.64861027 8.4134713 -8 11 C-8.99 11.33 -9.98 11.66 -11 12 C-9.50948318 7.39294801 -7.21457741 4.53603516 -4 1 C-2 0 -2 0 0 0 Z " fill="#3463F1" transform="translate(102,153)"/>
<path d="M0 0 C0 0.99 0 1.98 0 3 C13.86 3.495 13.86 3.495 28 4 C26 6 26 6 23.11083984 6.22705078 C21.90637207 6.21657715 20.7019043 6.20610352 19.4609375 6.1953125 C17.50800781 6.18564453 17.50800781 6.18564453 15.515625 6.17578125 C14.13541405 6.15906929 12.75520571 6.14213939 11.375 6.125 C9.98698548 6.11497006 8.59896411 6.10584423 7.2109375 6.09765625 C3.80711974 6.07401863 0.40364494 6.04106867 -3 6 C-1.125 1.125 -1.125 1.125 0 0 Z " fill="#3994D8" transform="translate(110,203)"/>
<path d="M0 0 C-1.47348708 3.42527887 -3.40907846 5.64955058 -6.0625 8.25 C-6.77535156 8.95640625 -7.48820312 9.6628125 -8.22265625 10.390625 C-10 12 -10 12 -11 12 C-11.21278058 7.53160785 -10.59138085 4.17737474 -9 0 C-2.25 -1.125 -2.25 -1.125 0 0 Z " fill="#4A88F2" transform="translate(389,165)"/>
<path d="M0 0 C2.83236991 2.64354525 4.21844267 4.43688534 6 8 C2.7 12.62 -0.6 17.24 -4 22 C-4.33 20.68 -4.66 19.36 -5 18 C-4.38125 17.13375 -3.7625 16.2675 -3.125 15.375 C-0.05945698 10.50619638 0 5.65501113 0 0 Z " fill="#3A7AD9" transform="translate(96,203)"/>
<path d="M0 0 C2.8203125 -0.29296875 2.8203125 -0.29296875 6.125 -0.1875 C7.76855469 -0.14689453 7.76855469 -0.14689453 9.4453125 -0.10546875 C10.28835937 -0.07066406 11.13140625 -0.03585938 12 0 C9.03 3.96 9.03 3.96 6 8 C5.34 7.34 4.68 6.68 4 6 C3.01 6 2.02 6 1 6 C1 5.34 1 4.68 1 4 C0.01 3.67 -0.98 3.34 -2 3 C-1.34 2.01 -0.68 1.02 0 0 Z " fill="#3366EF" transform="translate(103,213)"/>
<path d="M0 0 C2.49361571 1.20381448 4.68143083 2.45428722 7 4 C9.38677076 4.29452584 11.78626094 4.4928217 14.1875 4.625 C16.09595703 4.73714844 16.09595703 4.73714844 18.04296875 4.8515625 C19.01878906 4.90054688 19.99460937 4.94953125 21 5 C20.34 3.35 19.68 1.7 19 0 C21.04119788 1.61594832 23.04072937 3.2856382 25 5 C25 5.66 25 6.32 25 7 C21.9553906 7.18991128 18.92268634 7.32801567 15.875 7.4375 C15.0190625 7.49615234 14.163125 7.55480469 13.28125 7.61523438 C6.96642313 7.78524894 6.96642313 7.78524894 4.04394531 5.41064453 C2.55190649 3.66993258 1.23063791 1.93248123 0 0 Z " fill="#5083E4" transform="translate(620,200)"/>
<path d="M0 0 C0.66 0.33 1.32 0.66 2 1 C2 1.99 2 2.98 2 4 C3.32 4 4.64 4 6 4 C5.67 6.64 5.34 9.28 5 12 C4.01 12 3.02 12 2 12 C-1.0080208 8.9919792 -1.5289356 6.14536674 -2 2 C-1.34 2 -0.68 2 0 2 C0 1.34 0 0.68 0 0 Z " fill="#18AEF8" transform="translate(76,228)"/>
<path d="M0 0 C1.65 0.99 3.3 1.98 5 3 C3.5140084 7.59306496 1.14985318 10.43569245 -2 14 C-2.66 12.68 -3.32 11.36 -4 10 C-3.01 9.01 -2.02 8.02 -1 7 C-1.66 6.67 -2.32 6.34 -3 6 C-2 4 -1 2 0 0 Z " fill="#3265DD" transform="translate(121,172)"/>
<path d="M0 0 C1.1725131 0.95117134 2.33787015 1.91117009 3.5 2.875 C4.1496875 3.40867188 4.799375 3.94234375 5.46875 4.4921875 C5.9740625 4.98976562 6.479375 5.48734375 7 6 C7 6.66 7 7.32 7 8 C0.73 8 -5.54 8 -12 8 C-12.33 7.34 -12.66 6.68 -13 6 C-8.05 6 -3.1 6 2 6 C1.34 4.02 0.68 2.04 0 0 Z " fill="#5784DA" transform="translate(384,199)"/>
<path d="M0 0 C2.475 0.495 2.475 0.495 5 1 C5 2.32 5 3.64 5 5 C5.99 5.33 6.98 5.66 8 6 C9.6875 7.5625 9.6875 7.5625 11 9 C11 8.01 11 7.02 11 6 C11.66 6 12.32 6 13 6 C13.33 5.01 13.66 4.02 14 3 C14.66 3.33 15.32 3.66 16 4 C13.03 8.455 13.03 8.455 10 13 C6.40523299 9.50794062 3.07973809 5.95966325 0 2 C0 1.34 0 0.68 0 0 Z " fill="#36A4E0" transform="translate(95,193)"/>
<path d="M0 0 C2.64 0 5.28 0 8 0 C9.78409802 3.06246747 10.22880021 5.22079273 10.125 8.75 C10.10695312 9.54921875 10.08890625 10.3484375 10.0703125 11.171875 C10.04710937 11.77515625 10.02390625 12.3784375 10 13 C10.66 13 11.32 13 12 13 C12 13.66 12 14.32 12 15 C9.525 14.505 9.525 14.505 7 14 C7 14.66 7 15.32 7 16 C2.71 16 -1.58 16 -6 16 C-6 15.67 -6 15.34 -6 15 C-5.32453125 14.96261719 -4.6490625 14.92523438 -3.953125 14.88671875 C-3.06109375 14.82097656 -2.1690625 14.75523437 -1.25 14.6875 C-0.36828125 14.62949219 0.5134375 14.57148438 1.421875 14.51171875 C4.37826464 13.9249202 5.84308126 13.08750066 8 11 C8.46413104 7.81738719 8.60140853 5.91793933 6.8125 3.1875 C4.57968261 1.72461964 2.62655933 1.35494045 0 1 C0 0.67 0 0.34 0 0 Z " fill="#5583E1" transform="translate(202,179)"/>
<path d="M0 0 C2.475 0.495 2.475 0.495 5 1 C4.67 1.99 4.34 2.98 4 4 C3.34 4 2.68 4 2 4 C1.67 15.55 1.34 27.1 1 39 C0.67 39 0.34 39 0 39 C0 26.13 0 13.26 0 0 Z " fill="#4D83EE" transform="translate(342,137)"/>
<path d="M0 0 C3.39084274 0.21241938 4.169973 1.19252865 6.47265625 3.80078125 C7.34640116 4.96356468 8.20937869 6.13450191 9.0625 7.3125 C9.49626953 7.89451172 9.93003906 8.47652344 10.37695312 9.07617188 C11.59335254 10.71099787 12.79705971 12.35524524 14 14 C14.99827428 15.33462588 15.9973721 16.66864164 17 18 C16.67 18.66 16.34 19.32 16 20 C12.17975945 17.28561856 10.53692349 15.39120998 9 11 C7.42757703 8.42694423 6.68846106 7.23604379 3.8125 6.25 C3.214375 6.1675 2.61625 6.085 2 6 C2.33 5.01 2.66 4.02 3 3 C2.34 3 1.68 3 1 3 C0.67 2.01 0.34 1.02 0 0 Z " fill="#4929CB" transform="translate(135,145)"/>
<path d="M0 0 C0.99 0.33 1.98 0.66 3 1 C2.61402985 3.79828356 2.19863427 4.8205884 0.0625 6.75 C-2 8 -2 8 -4 8 C-4 8.99 -4 9.98 -4 11 C-6.50823147 13.77939163 -8.88157129 15.92104752 -12 18 C-10.18633597 13.87235084 -7.50853382 10.37940795 -4.875 6.75 C-4.17310547 5.77546875 -4.17310547 5.77546875 -3.45703125 4.78125 C-2.30725718 3.18564517 -1.15397434 1.59256975 0 0 Z " fill="#3983E0" transform="translate(125,182)"/>
<path d="M0 0 C1.9375 0.75 1.9375 0.75 4 2 C4.6875 4 4.6875 4 5 6 C5.33 6.66 5.66 7.32 6 8 C2.7 8 -0.6 8 -4 8 C-4 6 -4 6 -2 4 C-1.30251417 2.68252676 -0.63040043 1.35085807 0 0 Z " fill="#19A6F6" transform="translate(90,233)"/>
<path d="M0 0 C3.28131123 2.41780827 5.52205357 4.17632209 7 8 C7.265625 10.65625 7.265625 10.65625 7.25 13.5 C7.25515625 14.4384375 7.2603125 15.376875 7.265625 16.34375 C6.99595232 19.04047676 6.3732259 20.68949293 5 23 C4.96132813 21.44539063 4.96132813 21.44539063 4.921875 19.859375 C4.86558049 18.48954199 4.80823345 17.11975195 4.75 15.75 C4.73582031 15.06808594 4.72164063 14.38617188 4.70703125 13.68359375 C4.5373881 10.18894493 4.3553953 8.3879506 1.953125 5.765625 C1.30859375 5.18296875 0.6640625 4.6003125 0 4 C0 2.68 0 1.36 0 0 Z " fill="#5782DA" transform="translate(456,173)"/>
<path d="M0 0 C0.66 0.33 1.32 0.66 2 1 C2 1.66 2 2.32 2 3 C2.66 3.33 3.32 3.66 4 4 C3.67 5.32 3.34 6.64 3 8 C0.69 8 -1.62 8 -4 8 C-4.33 6.68 -4.66 5.36 -5 4 C-4.01 3.67 -3.02 3.34 -2 3 C-1.34 2.01 -0.68 1.02 0 0 Z " fill="#238EF6" transform="translate(135,199)"/>
<path d="M0 0 C0.99 0.33 1.98 0.66 3 1 C2.67 1.66 2.34 2.32 2 3 C1.360625 3.12375 0.72125 3.2475 0.0625 3.375 C-2.18991809 3.79785514 -2.18991809 3.79785514 -3.125 6 C-3.41375 6.66 -3.7025 7.32 -4 8 C-4.99 8.495 -4.99 8.495 -6 9 C-6.91485573 11.80478195 -6.91485573 11.80478195 -7.625 15.0625 C-7.88539063 16.16722656 -8.14578125 17.27195313 -8.4140625 18.41015625 C-8.60742188 19.26480469 -8.80078125 20.11945313 -9 21 C-9.33 21 -9.66 21 -10 21 C-10.41428769 14.23330106 -8.92030022 9.70042219 -5 4.1875 C-3 2 -3 2 0 0 Z " fill="#5082DF" transform="translate(428,141)"/>
<path d="M0 0 C-0.185625 0.763125 -0.37125 1.52625 -0.5625 2.3125 C-1.22819173 5.08967375 -1.22819173 5.08967375 0 8 C-0.33 8.99 -0.66 9.98 -1 11 C-2.5 9.625 -2.5 9.625 -4 8 C-4 7.34 -4 6.68 -4 6 C-4.99 5.67 -5.98 5.34 -7 5 C-6.6875 3.0625 -6.6875 3.0625 -6 1 C-3 0 -3 0 0 0 Z " fill="#1E9CF7" transform="translate(72,144)"/>
<path d="M0 0 C0.99 0.33 1.98 0.66 3 1 C3 1.99 3 2.98 3 4 C3.66 4 4.32 4 5 4 C5.33 3.01 5.66 2.02 6 1 C6.33 1.66 6.66 2.32 7 3 C7.66 3 8.32 3 9 3 C9.33 4.98 9.66 6.96 10 9 C9.34 8.34 8.68 7.68 8 7 C4.90073181 7.32198966 4.90073181 7.32198966 2 8 C1.34 5.36 0.68 2.72 0 0 Z " fill="#3169F1" transform="translate(87,200)"/>
<path d="M0 0 C4.95 0 9.9 0 15 0 C15 0.66 15 1.32 15 2 C16.65 1.34 18.3 0.68 20 0 C19.25 1.9375 19.25 1.9375 18 4 C15.875 4.75 15.875 4.75 14 5 C14 4.34 14 3.68 14 3 C13.154375 3.020625 12.30875 3.04125 11.4375 3.0625 C7.85709351 2.9974017 4.51459524 2.68913632 1 2 C0.67 1.34 0.34 0.68 0 0 Z " fill="#4C86F7" transform="translate(289,165)"/>
<path d="M0 0 C0.66 0.33 1.32 0.66 2 1 C-0.64 4.63 -3.28 8.26 -6 12 C-7.32 11.34 -8.64 10.68 -10 10 C-9.67 9.01 -9.34 8.02 -9 7 C-8.236875 6.71125 -7.47375 6.4225 -6.6875 6.125 C-3.36739451 4.7351884 -2.05692325 2.89492901 0 0 Z " fill="#2EA3E1" transform="translate(87,160)"/>
<path d="M0 0 C0.33 0.99 0.66 1.98 1 3 C-0.84828528 6.41903251 -3.18918234 9.32145612 -6 12 C-9.4375 12.5625 -9.4375 12.5625 -12 12 C-12 11.67 -12 11.34 -12 11 C-10.35 11 -8.7 11 -7 11 C-7.144375 10.113125 -7.28875 9.22625 -7.4375 8.3125 C-7 5 -7 5 -5.44140625 3.48828125 C-3.66586875 2.24147524 -1.87921043 1.08342234 0 0 Z " fill="#3280E0" transform="translate(120,230)"/>
<path d="M0 0 C1.32 0 2.64 0 4 0 C4 2.31 4 4.62 4 7 C5.98 7 7.96 7 10 7 C9.01 8.485 9.01 8.485 8 10 C4.98197607 9.67372714 3.40308719 9.38918764 1.1875 7.25 C-0.19608294 4.62847443 -0.24360427 2.92325122 0 0 Z " fill="#3E47E5" transform="translate(110,145)"/>
<path d="M0 0 C2.9555377 2.75170751 5.11563315 5.41970299 7 9 C7 9.66 7 10.32 7 11 C1.39 11 -4.22 11 -10 11 C-10 10.67 -10 10.34 -10 10 C-4.06 9.505 -4.06 9.505 2 9 C1.67 8.34 1.34 7.68 1 7 C1.66 7 2.32 7 3 7 C2.505 6.5875 2.01 6.175 1.5 5.75 C0 4 0 4 0 0 Z " fill="#443CD2" transform="translate(127,129)"/>
<path d="M0 0 C1.32 0.99 2.64 1.98 4 3 C3.67 3.66 3.34 4.32 3 5 C1.68 5 0.36 5 -1 5 C-1 6.32 -1 7.64 -1 9 C-1.61875 9.2475 -2.2375 9.495 -2.875 9.75 C-5.35068687 11.20628639 -5.95125002 12.37812506 -7 15 C-6.34 15.33 -5.68 15.66 -5 16 C-6.65 16 -8.3 16 -10 16 C-6.99935973 10.36901124 -3.81213639 5.11915459 0 0 Z " fill="#4161CF" transform="translate(79,112)"/>
<path d="M0 0 C9.9 0 19.8 0 30 0 C30 0.33 30 0.66 30 1 C21.09 1 12.18 1 3 1 C3.66 2.98 4.32 4.96 5 7 C3.29115995 5.37660195 1.62553283 3.70680947 0 2 C0 1.34 0 0.68 0 0 Z " fill="#4E48C6" transform="translate(83,110)"/>
<path d="M0 0 C1.875 0.25 1.875 0.25 4 1 C5.25 3.0625 5.25 3.0625 6 5 C4.68 5 3.36 5 2 5 C1.67 6.32 1.34 7.64 1 9 C0.34 8.34 -0.32 7.68 -1 7 C-1.99 7 -2.98 7 -4 7 C-3.67 6.34 -3.34 5.68 -3 5 C-2.34 5 -1.68 5 -1 5 C-0.67 3.35 -0.34 1.7 0 0 Z " fill="#365BEF" transform="translate(78,184)"/>
<path d="M0 0 C-0.33 0.99 -0.66 1.98 -1 3 C-1.34820041 4.66362417 -1.68404492 6.32995171 -2 8 C-3.32 7.67 -4.64 7.34 -6 7 C-6.33 5.02 -6.66 3.04 -7 1 C-3.375 -1.125 -3.375 -1.125 0 0 Z " fill="#2197F5" transform="translate(92,173)"/>
<path d="M0 0 C0.99 0 1.98 0 3 0 C3 1.32 3 2.64 3 4 C3.66 4 4.32 4 5 4 C5.33 5.98 5.66 7.96 6 10 C3.0625 9.1875 3.0625 9.1875 0 8 C-0.33 7.01 -0.66 6.02 -1 5 C-0.34 5 0.32 5 1 5 C0.67 3.35 0.34 1.7 0 0 Z " fill="#4386F9" transform="translate(490,195)"/>
<path d="M0 0 C0.66 0.33 1.32 0.66 2 1 C-0.97 5.29 -3.94 9.58 -7 14 C-7.33 12.68 -7.66 11.36 -8 10 C-7.34 9.67 -6.68 9.34 -6 9 C-6.20625 8.38125 -6.4125 7.7625 -6.625 7.125 C-6.74875 6.42375 -6.8725 5.7225 -7 5 C-4.64046906 2.64046906 -3.22104383 2.50858587 0 2 C0 1.34 0 0.68 0 0 Z " fill="#4356D1" transform="translate(157,178)"/>
<path d="M0 0 C0.99 0.99 1.98 1.98 3 3 C2.21625 3.20625 1.4325 3.4125 0.625 3.625 C-2.30916286 4.80676612 -2.30916286 4.80676612 -3.3125 8.125 C-3.539375 9.07375 -3.76625 10.0225 -4 11 C-5.32 10.67 -6.64 10.34 -8 10 C-6.5682479 4.98886765 -4.01554307 3.05530451 0 0 Z " fill="#21A6F1" transform="translate(117,196)"/>
<path d="M0 0 C5.17226615 4.6873662 8.98925493 10.31728181 13 16 C12.67 16.66 12.34 17.32 12 18 C8.80940729 15.87293819 7.7634141 13.97860402 5.9765625 10.6640625 C5.04163549 8.89884286 5.04163549 8.89884286 3.375 7.4375 C1.32077865 5.28990495 0.8117392 2.80986644 0 0 Z " fill="#415CCE" transform="translate(110,155)"/>
<path d="M0 0 C2.475 0.99 2.475 0.99 5 2 C5 2.99 5 3.98 5 5 C2 7 2 7 -1 7 C-1.625 4.625 -1.625 4.625 -2 2 C-1.34 1.34 -0.68 0.68 0 0 Z " fill="#3752EC" transform="translate(79,115)"/>
<path d="M0 0 C3.9036874 3.46994436 6.36588975 7.55224006 9 12 C6 13 6 13 3 12 C2.814375 10.4221875 2.814375 10.4221875 2.625 8.8125 C2.08859218 5.54041229 1.36119965 2.99463924 0 0 Z " fill="#4935D1" transform="translate(118,117)"/>
<path d="M0 0 C1 2 1 2 0.3125 4.5 C-1.15567038 7.29651501 -2.09303901 7.93411431 -5 9 C-4.34 11.64 -3.68 14.28 -3 17 C-5.34372023 15.24220983 -5.9549077 14.215441 -6.5625 11.3125 C-5.75252193 6.54262917 -3.08635367 3.6191171 0 0 Z " fill="#3D91DC" transform="translate(90,165)"/>
<path d="M0 0 C0 0.33 0 0.66 0 1 C-1.79090253 1.19466332 -3.58276505 1.38051213 -5.375 1.5625 C-6.87160156 1.71912109 -6.87160156 1.71912109 -8.3984375 1.87890625 C-11 2 -11 2 -13 1 C-13.33 1.99 -13.66 2.98 -14 4 C-15.32 3.34 -16.64 2.68 -18 2 C-11.53261488 -0.99415978 -6.99272215 -1.18933594 0 0 Z " fill="#5283E4" transform="translate(526,164)"/>
<path d="M0 0 C0.61875 0.350625 1.2375 0.70125 1.875 1.0625 C2.57625 1.371875 3.2775 1.68125 4 2 C4.66 1.67 5.32 1.34 6 1 C8.125 1.9375 8.125 1.9375 10 3 C9.67 3.99 9.34 4.98 9 6 C6.69 5.67 4.38 5.34 2 5 C1.34 3.35 0.68 1.7 0 0 Z " fill="#3A56F0" transform="translate(126,167)"/>
<path d="M0 0 C2.50357861 0.8345262 4.66785852 1.79371992 7 3 C6.34 4.32 5.68 5.64 5 7 C4.01 7 3.02 7 2 7 C2 6.34 2 5.68 2 5 C0.68 5 -0.64 5 -2 5 C-1.34 3.35 -0.68 1.7 0 0 Z " fill="#336AF3" transform="translate(74,122)"/>
<path d="M0 0 C2.6348519 2.45919511 4.74516551 4.57772411 6 8 C5.67 8.66 5.34 9.32 5 10 C3.35 10 1.7 10 0 10 C0 6.7 0 3.4 0 0 Z " fill="#3B69DA" transform="translate(96,203)"/>
<path d="M0 0 C0.66 0 1.32 0 2 0 C2 0.66 2 1.32 2 2 C3.65 2.33 5.3 2.66 7 3 C6.67 3.66 6.34 4.32 6 5 C5.071875 4.979375 4.14375 4.95875 3.1875 4.9375 C-0.02286011 4.84230396 -0.02286011 4.84230396 -3 6 C-1.125 1.125 -1.125 1.125 0 0 Z " fill="#248CF6" transform="translate(65,203)"/>
<path d="M0 0 C4.95 0.33 9.9 0.66 15 1 C15 1.66 15 2.32 15 3 C10.05 3 5.1 3 0 3 C0 2.01 0 1.02 0 0 Z " fill="#5583DA" transform="translate(532,204)"/>
<path d="M0 0 C0.33 0 0.66 0 1 0 C1.05449838 1.72880982 1.09301688 3.45812712 1.125 5.1875 C1.14820313 6.15042969 1.17140625 7.11335937 1.1953125 8.10546875 C0.9913544 11.12812778 0.26874632 13.26769985 -1 16 C-1.33 16 -1.66 16 -2 16 C-2.54372951 12.94152152 -3 10.11227195 -3 7 C-2.34 6.67 -1.68 6.34 -1 6 C-0.34227572 2.97065509 -0.34227572 2.97065509 0 0 Z " fill="#4F85EA" transform="translate(221,151)"/>
<path d="M0 0 C0.66 0.99 1.32 1.98 2 3 C1.34 3 0.68 3 0 3 C-1.62514468 4.45833358 -1.62514468 4.45833358 -3 6 C-6.875 3.25 -6.875 3.25 -8 1 C-5.21136993 -0.39431504 -3.07921132 -0.25660094 0 0 Z " fill="#1AA3F7" transform="translate(79,224)"/>
<path d="M0 0 C5.94 0 11.88 0 18 0 C17.01 0.495 17.01 0.495 16 1 C16 1.99 16 2.98 16 4 C15.34 4 14.68 4 14 4 C14 3.34 14 2.68 14 2 C13.15695313 2.02320313 12.31390625 2.04640625 11.4453125 2.0703125 C9.80175781 2.09738281 9.80175781 2.09738281 8.125 2.125 C7.03445312 2.14820313 5.94390625 2.17140625 4.8203125 2.1953125 C2 2 2 2 0 0 Z " fill="#2F4BE7" transform="translate(115,213)"/>
<path d="M0 0 C2.0625 1.75 2.0625 1.75 4 4 C3.63273998 7.14426121 2.35131974 9.23134408 0.5 11.75 C-0.16515625 12.67039063 -0.16515625 12.67039063 -0.84375 13.609375 C-1.2253125 14.06828125 -1.606875 14.5271875 -2 15 C-2.33 15 -2.66 15 -3 15 C-3 13.35 -3 11.7 -3 10 C-2.01 10 -1.02 10 0 10 C0 6.7 0 3.4 0 0 Z " fill="#3F6DCA" transform="translate(98,137)"/>
<path d="M0 0 C1.32 0.66 2.64 1.32 4 2 C2.8572081 3.16964602 1.71068285 4.33564556 0.5625 5.5 C-0.07558594 6.1496875 -0.71367187 6.799375 -1.37109375 7.46875 C-3 9 -3 9 -4 9 C-4 7.02 -4 5.04 -4 3 C-2.68 2.34 -1.36 1.68 0 1 C0 0.67 0 0.34 0 0 Z " fill="#4D82E2" transform="translate(382,168)"/>
<path d="M0 0 C1.32 0.33 2.64 0.66 4 1 C3.01 1 2.02 1 1 1 C1.103125 1.845625 1.20625 2.69125 1.3125 3.5625 C0.90334843 8.0631673 -1.01173571 10.68841532 -4 14 C-4.33 14 -4.66 14 -5 14 C-5 12.02 -5 10.04 -5 8 C-4.01 7.67 -3.02 7.34 -2 7 C-0.77030122 3.48809191 -0.77030122 3.48809191 0 0 Z " fill="#3382E5" transform="translate(94,146)"/>
<path d="M0 0 C3.35620271 1.38877354 5.07298728 2.91677965 7 6 C7 6.66 7 7.32 7 8 C5.0625 7.25 5.0625 7.25 3 6 C2.25 3.875 2.25 3.875 2 2 C-0.97 4.475 -0.97 4.475 -4 7 C-2.92598892 4.08482708 -2.22189824 2.22189824 0 0 Z " fill="#4158CD" transform="translate(103,147)"/>
<path d="M0 0 C1.32 0.66 2.64 1.32 4 2 C2.02 4.97 0.04 7.94 -2 11 C-2.97608217 8.07175348 -3.08226668 6.04386724 -3 3 C-2.34 2.67 -1.68 2.34 -1 2 C-0.67 1.34 -0.34 0.68 0 0 Z " fill="#2E9DE6" transform="translate(84,228)"/>
<path d="M0 0 C0 4.57142857 0 4.57142857 -1 7 C-2.89569244 8.84816812 -4.89048548 10.38420165 -7 12 C-7 8.19654123 -5.86213669 7.22298985 -3.5 4.3125 C-2.8503125 3.50425781 -2.200625 2.69601563 -1.53125 1.86328125 C-1.0259375 1.24839844 -0.520625 0.63351563 0 0 Z " fill="#3786DE" transform="translate(100,218)"/>
<path d="M0 0 C0.66 1.32 1.32 2.64 2 4 C-1.63 4 -5.26 4 -9 4 C-9.33 3.34 -9.66 2.68 -10 2 C-6.7 1.34 -3.4 0.68 0 0 Z " fill="#5484DD" transform="translate(585,193)"/>
<path d="M0 0 C0.33 0.66 0.66 1.32 1 2 C-0.64379791 6.67184669 -2.18479582 9.71103088 -6 13 C-6 11.68 -6 10.36 -6 9 C-5.34 9 -4.68 9 -4 9 C-4.0825 8.2575 -4.165 7.515 -4.25 6.75 C-3.92894816 3.21842973 -2.64734383 2.23369636 0 0 Z " fill="#3C70D9" transform="translate(147,190)"/>
<path d="M0 0 C4.62 0 9.24 0 14 0 C14 0.66 14 1.32 14 2 C13.34 2 12.68 2 12 2 C11.67 2.66 11.34 3.32 11 4 C9.68 3.67 8.36 3.34 7 3 C7 2.34 7 1.68 7 1 C4.69 1 2.38 1 0 1 C0 0.67 0 0.34 0 0 Z " fill="#404EEC" transform="translate(143,178)"/>
<path d="M0 0 C0.66 0 1.32 0 2 0 C2.33 0.33 2.66 0.66 3 1 C3.66 0.67 4.32 0.34 5 0 C5.66 0.33 6.32 0.66 7 1 C7 3.31 7 5.62 7 8 C1.125 3.375 1.125 3.375 0 0 Z " fill="#4D83E4" transform="translate(555,195)"/>
<path d="M0 0 C0.33 0.66 0.66 1.32 1 2 C1.66 2 2.32 2 3 2 C3.8125 3.6875 3.8125 3.6875 4 6 C1.5625 8.75 1.5625 8.75 -1 11 C-1.6875 9.1875 -1.6875 9.1875 -2 7 C-0.5625 5.25 -0.5625 5.25 1 4 C0.34 3.67 -0.32 3.34 -1 3 C-0.67 2.01 -0.34 1.02 0 0 Z " fill="#3374E2" transform="translate(119,175)"/>
<path d="M0 0 C0.625 1.8125 0.625 1.8125 1 4 C0.01 5.485 0.01 5.485 -1 7 C-1.24246783 10.20379124 -1.24246783 10.20379124 -1.125 13.6875 C-1.10695313 14.86699219 -1.08890625 16.04648438 -1.0703125 17.26171875 C-1.04710937 18.16535156 -1.02390625 19.06898438 -1 20 C-3.97093503 15.54359745 -3.51397346 11.2291213 -3 6 C-1.5 2.3125 -1.5 2.3125 0 0 Z " fill="#5584DD" transform="translate(556,174)"/>
<path d="M0 0 C4.06534057 -0.28883414 6.33058355 0.42124391 9.8125 2.5 C10.60269531 2.9640625 11.39289063 3.428125 12.20703125 3.90625 C12.79871094 4.2671875 13.39039063 4.628125 14 5 C14 5.66 14 6.32 14 7 C9.0276578 5.50829734 4.58154261 3.39542583 0 1 C0 0.67 0 0.34 0 0 Z " fill="#4F83DB" transform="translate(429,175)"/>
<path d="M0 0 C9.59453303 2.70615034 9.59453303 2.70615034 13 7 C10.69 7 8.38 7 6 7 C5.7525 6.38125 5.505 5.7625 5.25 5.125 C3.79371361 2.64931313 2.62187494 2.04874998 0 1 C0 0.67 0 0.34 0 0 Z " fill="#537DDD" transform="translate(443,166)"/>
<path d="M0 0 C1.21236328 0.04060547 1.21236328 0.04060547 2.44921875 0.08203125 C3.06410156 0.11683594 3.67898438 0.15164062 4.3125 0.1875 C4.3125 1.1775 4.3125 2.1675 4.3125 3.1875 C3.384375 2.98125 2.45625 2.775 1.5 2.5625 C-1.83923402 1.82057034 -1.83923402 1.82057034 -4.6875 4.1875 C-5.6775 3.8575 -6.6675 3.5275 -7.6875 3.1875 C-5.26849268 0.20484049 -3.789448 -0.16475861 0 0 Z " fill="#4D87EA" transform="translate(373.6875,164.8125)"/>
<path d="M0 0 C0.66 0.33 1.32 0.66 2 1 C1.525625 1.598125 1.05125 2.19625 0.5625 2.8125 C-1.16465744 5.00382924 -1.16465744 5.00382924 -2 8 C-3.32 8 -4.64 8 -6 8 C-5.65120368 4.74456771 -4.97866739 3.98126893 -2.4375 1.75 C-1.633125 1.1725 -0.82875 0.595 0 0 Z " fill="#5183E8" transform="translate(564,166)"/>
<path d="M0 0 C1.65 0 3.3 0 5 0 C4.06725891 1.12894876 3.12859878 2.25300876 2.1875 3.375 C1.66542969 4.00148437 1.14335938 4.62796875 0.60546875 5.2734375 C-1 7 -1 7 -4 9 C-3.71125 8.443125 -3.4225 7.88625 -3.125 7.3125 C-1.9586747 4.91505355 -0.9660119 2.48403061 0 0 Z " fill="#5082DF" transform="translate(638,165)"/>
<path d="M0 0 C0 3.96018245 -1.18721244 6.5039097 -3 10 C-5.1875 10.9375 -5.1875 10.9375 -7 11 C-5.5140084 6.40693504 -3.14985318 3.56430755 0 0 Z " fill="#396ED9" transform="translate(98,154)"/>
<path d="M0 0 C2.31 0.33 4.62 0.66 7 1 C7.33 1.99 7.66 2.98 8 4 C4.04 4 0.08 4 -4 4 C-2.68 3.34 -1.36 2.68 0 2 C0 1.34 0 0.68 0 0 Z " fill="#3E50F1" transform="translate(110,135)"/>
<path d="M0 0 C0.99 0.66 1.98 1.32 3 2 C3 2.66 3 3.32 3 4 C-3.27 4 -9.54 4 -16 4 C-16 3.67 -16 3.34 -16 3 C-10.72 3 -5.44 3 0 3 C0 2.01 0 1.02 0 0 Z " fill="#6288CB" transform="translate(642,203)"/>
<path d="M0 0 C3.63 0.33 7.26 0.66 11 1 C11.33 1.99 11.66 2.98 12 4 C8.71023192 5.09658936 7.28696233 4.79953138 4 4 C4 3.34 4 2.68 4 2 C2.68 1.67 1.36 1.34 0 1 C0 0.67 0 0.34 0 0 Z " fill="#5383E9" transform="translate(429,191)"/>
<path d="M0 0 C2.93200474 2.85276137 5.64315404 5.65079784 8 9 C7.67 9.66 7.34 10.32 7 11 C3.95751406 9.47875703 2.29161316 8.55545364 0.6875 5.5 C0 3 0 3 0 0 Z " fill="#3D5ECE" transform="translate(84,187)"/>
<path d="M0 0 C1.65 1.65 3.3 3.3 5 5 C4.34 5.66 3.68 6.32 3 7 C0.525 6.01 0.525 6.01 -2 5 C-1.34 3.35 -0.68 1.7 0 0 Z " fill="#423BD3" transform="translate(154,168)"/>
<path d="M0 0 C1.32 0.66 2.64 1.32 4 2 C3.01 3.98 2.02 5.96 1 8 C0.01 7.01 -0.98 6.02 -2 5 C-1.34 3.35 -0.68 1.7 0 0 Z " fill="#4135E3" transform="translate(151,165)"/>
<path d="M0 0 C3.63 0.33 7.26 0.66 11 1 C11 1.66 11 2.32 11 3 C6.545 3.495 6.545 3.495 2 4 C2 3.34 2 2.68 2 2 C1.34 2 0.68 2 0 2 C0 1.34 0 0.68 0 0 Z " fill="#5384E5" transform="translate(249,174)"/>
<path d="M0 0 C2.475 0.495 2.475 0.495 5 1 C6.375 3.375 6.375 3.375 7 6 C6.67 6.99 6.34 7.98 6 9 C4.02 6.03 2.04 3.06 0 0 Z " fill="#33A9E9" transform="translate(68,225)"/>
<path d="M0 0 C0.33 0 0.66 0 1 0 C1.12375 0.804375 1.2475 1.60875 1.375 2.4375 C1.58125 3.283125 1.7875 4.12875 2 5 C2.66 5.33 3.32 5.66 4 6 C3.34 8.31 2.68 10.62 2 13 C-0.20914 9.68629 -0.22481553 8.6553979 -0.125 4.8125 C-0.10695313 3.91144531 -0.08890625 3.01039063 -0.0703125 2.08203125 C-0.04710937 1.39496094 -0.02390625 0.70789063 0 0 Z " fill="#4E82E7" transform="translate(498,181)"/>
<path d="M0 0 C1.9375 0.375 1.9375 0.375 4 1 C4.33 1.66 4.66 2.32 5 3 C4.01 3.495 4.01 3.495 3 4 C2.34786708 6.02463255 2.34786708 6.02463255 2 8 C1.01 7.67 0.02 7.34 -1 7 C-0.67 4.69 -0.34 2.38 0 0 Z " fill="#3663EC" transform="translate(121,220)"/>
<path d="M0 0 C0.33 0.66 0.66 1.32 1 2 C0.67 2.66 0.34 3.32 0 4 C-0.69867187 3.9278125 -1.39734375 3.855625 -2.1171875 3.78125 C-3.02726563 3.6884375 -3.93734375 3.595625 -4.875 3.5 C-5.77992188 3.4071875 -6.68484375 3.314375 -7.6171875 3.21875 C-9.93313211 2.96952705 -9.93313211 2.96952705 -12 3 C-12 2.34 -12 1.68 -12 1 C-6.06 0.505 -6.06 0.505 0 0 Z " fill="#5780D8" transform="translate(586,174)"/>
<path d="M0 0 C0.99 0.99 1.98 1.98 3 3 C2.01 4.485 2.01 4.485 1 6 C0.34 6 -0.32 6 -1 6 C-1 5.34 -1 4.68 -1 4 C-1.66 4 -2.32 4 -3 4 C-3 3.01 -3 2.02 -3 1 C-2.01 0.67 -1.02 0.34 0 0 Z " fill="#3564F4" transform="translate(115,164)"/>
<path d="M0 0 C3.465 1.485 3.465 1.485 7 3 C6.34 4.32 5.68 5.64 5 7 C3.29115995 5.37660195 1.62553283 3.70680947 0 2 C0 1.34 0 0.68 0 0 Z " fill="#2EABEF" transform="translate(72,161)"/>
<path d="M0 0 C2.475 0.495 2.475 0.495 5 1 C5 3.31 5 5.62 5 8 C2.20127563 5.47211993 0.54226981 3.79588866 0 0 Z " fill="#329DE9" transform="translate(87,181)"/>
<path d="M0 0 C2.475 0.99 2.475 0.99 5 2 C4.25 6.75 4.25 6.75 2 9 C2 6.69 2 4.38 2 2 C1.34 2 0.68 2 0 2 C0 1.34 0 0.68 0 0 Z " fill="#5282DE" transform="translate(585,165)"/>
<path d="M0 0 C0.99 1.32 1.98 2.64 3 4 C0.50935112 4.68707555 -1.37886292 5 -4 5 C-2.25 1.125 -2.25 1.125 0 0 Z " fill="#2B97E9" transform="translate(93,229)"/>
<path d="M0 0 C0.99 0 1.98 0 3 0 C3 0.66 3 1.32 3 2 C3.66 2 4.32 2 5 2 C5 2.99 5 3.98 5 5 C4.01 5.33 3.02 5.66 2 6 C2 5.34 2 4.68 2 4 C1.34 4 0.68 4 0 4 C0 2.68 0 1.36 0 0 Z " fill="#2399F9" transform="translate(83,224)"/>
<path d="M0 0 C1.43861294 0.08746284 2.87597508 0.19565348 4.3125 0.3125 C5.11300781 0.37050781 5.91351563 0.42851562 6.73828125 0.48828125 C9.36272334 1.08206694 10.30820672 1.95780294 12 4 C7.6822542 3.49202991 3.96697886 2.80317221 0 1 C0 0.67 0 0.34 0 0 Z " fill="#5084E0" transform="translate(419,203)"/>
<path d="M0 0 C1.65 1.65 3.3 3.3 5 5 C4.67 5.66 4.34 6.32 4 7 C3.34 6.34 2.68 5.68 2 5 C-0.60280568 5.32041397 -0.60280568 5.32041397 -3 6 C-1.125 1.125 -1.125 1.125 0 0 Z " fill="#3B55C3" transform="translate(79,180)"/>
<path d="M0 0 C0.66 0 1.32 0 2 0 C2 0.66 2 1.32 2 2 C3.65 1.34 5.3 0.68 7 0 C6.25 1.9375 6.25 1.9375 5 4 C2.875 4.75 2.875 4.75 1 5 C1 4.34 1 3.68 1 3 C0.01 2.67 -0.98 2.34 -2 2 C-1.34 2 -0.68 2 0 2 C0 1.34 0 0.68 0 0 Z " fill="#5789E8" transform="translate(302,165)"/>
<path d="M0 0 C2.97 1.65 5.94 3.3 9 5 C5.8035914 6.06546953 3.34252724 6.07427838 0 6 C0 4.02 0 2.04 0 0 Z " fill="#4E81DF" transform="translate(434,160)"/>
<path d="M0 0 C0.99 0 1.98 0 3 0 C1.55746343 3.36591866 -0.33264727 5.51047079 -3 8 C-3 7.01 -3 6.02 -3 5 C-2.34 5 -1.68 5 -1 5 C-0.67 3.35 -0.34 1.7 0 0 Z " fill="#3C69D2" transform="translate(124,223)"/>
<path d="M0 0 C0 0.66 0 1.32 0 2 C-1.11375 2.309375 -2.2275 2.61875 -3.375 2.9375 C-6.7945155 3.82326483 -6.7945155 3.82326483 -9 5 C-8.67 3.68 -8.34 2.36 -8 1 C-5.10765685 0.17361624 -3.11257569 0 0 0 Z " fill="#4E84DF" transform="translate(443,151)"/>
<path d="M0 0 C1.32 0 2.64 0 4 0 C4 1.65 4 3.3 4 5 C2.68 5 1.36 5 0 5 C0 3.35 0 1.7 0 0 Z " fill="#3137E7" transform="translate(110,145)"/>
<path d="M0 0 C0.66 0.66 1.32 1.32 2 2 C1.67 2.66 1.34 3.32 1 4 C0.34 4 -0.32 4 -1 4 C-1.33 4.66 -1.66 5.32 -2 6 C-2.99 4.68 -3.98 3.36 -5 2 C-3.35 1.34 -1.7 0.68 0 0 Z " fill="#4D83EE" transform="translate(372,199)"/>
<path d="M0 0 C0.99 0.66 1.98 1.32 3 2 C3 3.32 3 4.64 3 6 C2.01 5.67 1.02 5.34 0 5 C0 4.34 0 3.68 0 3 C-0.66 3 -1.32 3 -2 3 C-2 2.34 -2 1.68 -2 1 C-1.34 0.67 -0.68 0.34 0 0 Z " fill="#14AEF5" transform="translate(103,196)"/>
<path d="M0 0 C0.66 0 1.32 0 2 0 C2.33 1.98 2.66 3.96 3 6 C2.01 6 1.02 6 0 6 C-1 3 -1 3 0 0 Z " fill="#3269F4" transform="translate(96,137)"/>
<path d="M0 0 C1.32 0.33 2.64 0.66 4 1 C4 2.32 4 3.64 4 5 C4.66 5.33 5.32 5.66 6 6 C5.01 6 4.02 6 3 6 C0 2.66666667 0 2.66666667 0 0 Z " fill="#39ACDD" transform="translate(75,234)"/>
<path d="M0 0 C0.66 0 1.32 0 2 0 C2.66 1.98 3.32 3.96 4 6 C3.01 6 2.02 6 1 6 C1 5.34 1 4.68 1 4 C0.01 3.67 -0.98 3.34 -2 3 C-1.34 2.01 -0.68 1.02 0 0 Z " fill="#3D6EE0" transform="translate(103,213)"/>
<path d="M0 0 C2.5 2.3125 2.5 2.3125 5 5 C5 5.99 5 6.98 5 8 C2.5 6.25 2.5 6.25 0 4 C0 2.68 0 1.36 0 0 Z " fill="#4936C3" transform="translate(146,157)"/>
<path d="" fill="#7C8A8A" transform="translate(0,0)"/>
</svg>
